<?xml version="1.0" standalone="no"?>
<!DOCTYPE svg PUBLIC "-//W3C//DTD SVG 20010904//EN"
 "http://www.w3.org/TR/2001/REC-SVG-20010904/DTD/svg10.dtd">
<svg version="1.0" xmlns="http://www.w3.org/2000/svg"
 width="807.000000pt" height="445.000000pt" viewBox="0 0 807.000000 445.000000"
 preserveAspectRatio="xMidYMid meet">
<metadata>
Created by potrace 1.16, written by Peter Selinger 2001-2019
</metadata>
<g transform="translate(0.000000,445.000000) scale(0.100000,-0.100000)"
fill="#000000" stroke="none">
<path d="M5975 4259 c-38 -5 -88 -10 -110 -13 -51 -5 -144 -24 -156 -31 -5 -3
-50 -8 -100 -11 -50 -2 -100 -9 -111 -15 -11 -6 -41 -8 -71 -4 -29 4 -81 2
-115 -5 -61 -11 -64 -10 -93 14 -33 28 -86 42 -127 32 -15 -4 -45 -11 -67 -15
-22 -5 -78 -19 -124 -31 -66 -18 -89 -20 -103 -11 -14 9 -24 8 -41 -1 -12 -6
-29 -13 -37 -14 -8 -1 -58 -10 -110 -19 -52 -9 -113 -18 -135 -22 -22 -3 -67
-14 -99 -24 -33 -11 -74 -19 -93 -19 -18 0 -50 -7 -70 -15 -19 -8 -50 -15 -67
-15 -17 0 -40 -7 -50 -15 -11 -9 -41 -15 -68 -15 -27 0 -64 -7 -84 -15 -22 -9
-90 -17 -182 -21 -81 -4 -151 -10 -157 -14 -5 -4 -30 -10 -55 -14 -80 -11
-114 -16 -190 -31 -93 -18 -224 -37 -270 -39 -19 -2 -73 -6 -119 -10 -62 -6
-89 -5 -108 5 -19 10 -28 10 -43 1 -11 -6 -32 -9 -47 -6 -20 4 -35 -1 -53 -16
-16 -13 -35 -20 -55 -18 -60 5 -197 -30 -300 -78 -37 -17 -61 -21 -90 -17 -39
5 -162 -25 -189 -46 -21 -16 -127 -21 -191 -10 -56 11 -67 10 -90 -5 -18 -12
-56 -18 -128 -22 -56 -3 -113 -9 -127 -14 -14 -4 -65 -13 -115 -20 -49 -6
-115 -16 -145 -22 -51 -10 -137 -23 -220 -33 -19 -2 -93 -5 -165 -6 -90 -2
-135 -6 -145 -15 -9 -8 -36 -16 -60 -18 -75 -8 -124 -19 -145 -32 -39 -25 -90
-27 -130 -6 -35 17 -41 18 -68 4 -33 -16 -66 -80 -67 -127 0 -35 30 -58 90
-70 74 -14 70 -9 67 -95 -2 -43 -8 -84 -15 -92 -14 -18 -10 -156 7 -216 7 -24
9 -51 6 -62 -5 -16 -1 -28 24 -76 3 -6 14 -23 24 -37 16 -22 17 -30 6 -67 -7
-24 -24 -49 -40 -61 -25 -18 -26 -21 -16 -60 8 -33 7 -46 -6 -68 -13 -22 -16
-61 -18 -185 -1 -106 2 -161 10 -169 6 -6 11 -39 11 -74 0 -37 4 -63 10 -63 7
0 10 -40 9 -114 -3 -107 -1 -118 24 -166 31 -59 33 -75 12 -84 -8 -3 -15 -14
-15 -24 0 -10 -5 -23 -10 -28 -6 -6 -14 -43 -17 -82 -3 -40 -9 -72 -12 -72 -4
0 -7 -55 -7 -122 -1 -68 -3 -211 -5 -318 l-5 -195 -32 -44 c-35 -48 -40 -69
-18 -77 8 -3 14 -19 14 -39 0 -38 35 -90 73 -111 22 -11 27 -20 27 -55 1 -27
8 -49 21 -63 29 -30 26 -51 -9 -83 -38 -34 -39 -74 -4 -125 45 -65 81 -63 157
6 37 34 47 50 47 76 0 46 32 69 97 70 28 0 62 4 75 9 13 5 59 10 103 12 77 4
79 3 85 -20 9 -37 61 -62 128 -59 31 1 62 5 67 9 6 4 42 9 80 12 39 3 111 10
160 16 50 6 146 13 215 16 109 5 127 9 139 26 16 23 63 25 81 4 16 -19 60 -19
133 0 38 10 92 14 164 11 60 -1 130 1 157 6 34 5 61 4 90 -6 26 -8 68 -12 116
-9 135 8 180 7 204 -6 27 -15 68 -12 266 18 41 6 87 9 103 5 21 -4 34 -1 50
15 32 29 85 29 146 1 28 -14 51 -30 51 -37 0 -16 12 -23 57 -29 30 -4 43 -1
56 14 15 17 30 18 144 16 71 -2 154 -6 186 -9 37 -3 57 -2 57 5 0 7 17 8 50 4
33 -4 55 -3 64 5 11 9 38 10 94 6 64 -6 89 -4 125 10 32 12 58 15 84 11 54
-10 124 -7 139 5 7 6 15 6 18 1 9 -14 65 -23 84 -13 26 14 128 34 139 28 5 -3
30 -1 55 4 38 8 54 7 82 -6 26 -13 39 -14 55 -6 11 6 58 11 105 11 50 0 88 4
92 11 3 6 14 9 24 6 10 -3 42 0 71 5 42 8 55 7 64 -4 7 -10 30 -14 77 -14 38
1 68 4 68 7 0 4 21 2 47 -2 36 -7 50 -6 62 5 11 10 21 12 31 6 20 -13 132 -13
164 0 18 7 35 5 62 -6 21 -9 40 -12 43 -7 20 30 204 42 258 16 21 -10 46 -13
70 -9 157 23 157 23 189 4 23 -14 50 -18 113 -17 53 1 87 -4 97 -12 9 -8 18
-9 22 -3 4 5 27 10 52 12 24 2 51 9 60 15 8 7 39 24 68 37 28 13 52 26 52 30
0 11 49 30 63 24 7 -2 23 9 35 26 26 34 35 36 76 15 37 -20 193 -14 227 8 21
13 172 50 269 64 19 3 45 12 57 20 18 12 26 12 56 -1 31 -12 37 -13 48 0 6 8
23 14 38 14 18 0 32 9 46 30 11 17 25 28 31 26 7 -3 28 7 48 20 25 17 36 32
36 50 0 41 -75 144 -105 144 -8 0 -17 12 -20 28 -4 15 -15 52 -27 82 -15 43
-20 84 -23 185 -1 72 2 135 7 142 6 7 6 32 0 65 -17 88 1 252 34 318 24 47 28
69 30 156 3 96 2 102 -21 124 -28 27 -32 57 -10 86 8 10 15 25 15 33 0 8 8 20
17 27 16 11 18 35 19 226 0 119 5 224 11 238 5 14 9 61 7 105 -2 44 -4 93 -4
109 0 16 -6 36 -12 43 -11 14 0 72 24 120 7 15 8 26 1 35 -7 9 -6 50 4 128 11
97 25 337 23 419 0 12 3 28 7 35 30 46 -5 237 -64 350 -16 30 -13 117 6 140
31 37 3 136 -39 136 -10 0 -31 5 -46 12 -24 11 -29 10 -50 -15 -23 -27 -64
-37 -64 -16 0 8 -15 10 -45 7 -35 -4 -48 -1 -61 13 -19 21 -44 25 -60 9 -14
-14 -103 -29 -106 -18 -2 5 -21 5 -48 -1 -39 -8 -277 -16 -365 -12 -137 7
-235 2 -256 -13 -32 -22 -127 -12 -150 17 -11 13 -18 16 -23 8 -8 -13 -72 -15
-80 -2 -14 22 -252 35 -371 20z m-310 -128 c-12 -12 -17 -12 -30 -1 -15 12
-14 15 7 26 28 15 45 -3 23 -25z m1785 -221 c0 -24 -26 -38 -42 -22 -8 8 -8
15 2 27 18 21 40 19 40 -5z m-381 -11 c17 -19 23 -20 77 -9 120 24 159 30 177
24 23 -7 22 -21 -8 -56 -31 -36 -31 -51 -3 -70 l22 -14 -22 -45 c-24 -49 -28
-89 -12 -105 7 -7 4 -25 -10 -56 -18 -42 -19 -78 0 -78 9 0 6 -63 -4 -79 -4
-7 -5 -18 -3 -25 3 -8 1 -31 -4 -52 -20 -82 -22 -131 -4 -138 12 -4 15 -12 10
-24 -5 -9 -9 -51 -10 -92 -2 -41 -6 -94 -10 -117 -6 -32 -4 -43 5 -43 10 0 10
-3 0 -15 -8 -10 -11 -32 -8 -60 3 -25 2 -48 -3 -51 -5 -3 -9 -52 -8 -109 0
-58 -3 -110 -7 -116 -4 -7 -6 -29 -6 -51 1 -21 -3 -38 -9 -38 -7 0 -8 -14 -4
-40 4 -23 3 -46 -3 -53 -5 -7 -12 -30 -16 -52 -13 -67 -18 -438 -7 -485 6 -29
6 -50 0 -63 -8 -13 -6 -27 4 -50 8 -18 18 -75 22 -127 7 -101 34 -176 77 -213
20 -17 22 -17 44 4 22 21 24 21 49 5 27 -18 33 -53 14 -87 -8 -16 -7 -26 5
-44 16 -24 22 -99 10 -129 -3 -9 -16 -16 -29 -16 -13 0 -26 -7 -29 -16 -9 -24
-7 -85 4 -124 5 -19 6 -38 2 -42 -5 -5 -30 -3 -58 2 -87 19 -99 19 -122 4 -24
-16 -139 -17 -149 -1 -2 4 -19 5 -36 3 -18 -3 -72 -8 -122 -11 -99 -6 -147
-15 -277 -51 -48 -13 -98 -24 -111 -24 -14 0 -38 -7 -53 -15 -16 -8 -41 -15
-56 -15 -16 0 -28 -4 -28 -10 0 -14 -47 -13 -56 1 -4 7 -22 9 -48 5 -110 -17
-180 -20 -406 -16 -332 5 -440 3 -456 -11 -8 -7 -30 -9 -56 -5 -56 9 -83 9
-208 2 -161 -8 -240 -17 -240 -26 0 -5 -28 -7 -62 -5 -35 1 -92 -4 -127 -12
-35 -8 -70 -12 -79 -8 -8 3 -20 1 -27 -5 -7 -6 -55 -12 -106 -15 -52 -2 -132
-9 -179 -15 -98 -11 -194 -13 -203 -3 -15 14 -251 6 -300 -11 -26 -9 -60 -16
-76 -16 -15 0 -31 -3 -35 -8 -4 -4 -62 -8 -129 -8 -207 -3 -358 -12 -503 -31
-25 -3 -44 0 -48 6 -4 6 -22 11 -40 11 -18 0 -36 3 -40 7 -4 4 -37 6 -72 4
-41 -2 -70 2 -80 9 -11 10 -18 10 -32 -4 -10 -9 -22 -13 -25 -10 -4 4 -34 1
-67 -6 -48 -10 -63 -10 -75 0 -17 14 -194 7 -223 -9 -26 -14 -85 -16 -322 -9
-197 6 -353 -11 -419 -45 -32 -16 -45 -19 -48 -9 -7 17 -24 15 -39 -5 -9 -14
-33 -19 -96 -24 -46 -3 -94 -9 -108 -13 -41 -11 -402 -9 -449 2 -25 6 -48 9
-52 6 -13 -8 -83 7 -104 22 -18 13 -20 28 -20 147 -1 72 -5 185 -9 250 -4 65
-4 125 0 135 4 9 9 48 11 86 2 38 7 74 12 80 18 22 42 180 35 237 -11 99 22
385 47 413 13 15 11 54 -4 63 -6 4 -19 21 -27 36 -12 24 -12 33 -1 60 37 91
51 152 45 193 -6 42 0 64 47 157 10 22 19 55 19 75 0 21 6 55 14 77 13 39 14
126 1 210 -3 22 -7 77 -9 123 -2 45 -8 88 -13 95 -9 11 -6 49 13 195 5 33 14
49 42 72 19 16 49 32 66 36 17 3 51 12 75 20 48 16 71 13 71 -10 0 -9 9 -20
19 -26 26 -13 108 -13 113 1 4 12 118 35 188 38 25 1 70 8 100 16 31 8 73 17
95 21 22 3 42 10 45 14 12 18 191 47 315 50 79 2 121 7 133 14 6 4 60 9 119
11 107 5 264 28 293 44 20 11 141 25 315 37 49 3 94 8 99 11 5 3 41 10 80 14
39 4 103 13 141 18 39 6 121 10 183 11 62 0 121 4 130 9 10 5 75 12 146 16 71
3 139 11 153 16 13 5 44 9 67 9 24 0 67 4 96 10 28 5 93 12 143 16 51 3 97 7
104 9 7 2 74 7 150 11 76 3 142 9 148 12 5 3 29 7 55 8 150 6 263 16 284 24
30 11 382 16 413 6 13 -4 30 -3 39 2 10 6 30 6 49 1 25 -7 43 -4 78 11 25 11
49 25 52 30 3 5 31 12 63 15 31 4 81 18 109 31 40 18 59 21 77 15 17 -7 30 -5
45 5 13 10 46 15 92 16 59 0 74 -3 93 -21 20 -19 31 -21 74 -16 27 3 72 12 98
20 58 18 110 19 120 4 4 -6 19 -8 38 -5 37 7 225 27 246 27 62 -2 117 -8 126
-13 5 -4 44 -1 85 6 52 9 81 10 97 2 18 -7 31 -6 55 6 87 42 138 47 166 17z
m-1981 -49 c19 -11 32 -26 30 -32 -6 -18 -88 -18 -121 -1 -31 15 -30 19 5 39
33 18 49 16 86 -6z m-168 -25 l25 -14 -27 -1 c-34 0 -59 10 -52 21 7 13 25 11
54 -6z m-145 -24 c9 -15 -14 -24 -43 -16 -20 5 -23 8 -11 16 18 11 46 12 54 0z
m-758 -37 c4 -12 -45 -29 -55 -20 -2 3 1 13 8 21 14 17 41 17 47 -1z m-267
-24 c0 -5 -2 -10 -4 -10 -3 0 -8 5 -11 10 -3 6 -1 10 4 10 6 0 11 -4 11 -10z
m3769 -57 c22 -88 32 -155 26 -182 -4 -21 -2 -30 9 -34 21 -8 21 -56 0 -64
-13 -5 -15 -15 -9 -52 19 -127 18 -133 -25 -193 -34 -48 -39 -62 -36 -98 3
-32 10 -48 32 -65 l28 -23 -13 -63 c-8 -35 -15 -80 -16 -99 -2 -19 -8 -57 -13
-85 -32 -154 -40 -249 -22 -260 6 -4 4 -18 -6 -37 -18 -35 -25 -142 -11 -175
6 -12 25 -29 43 -38 20 -9 34 -23 34 -33 0 -10 6 -24 13 -31 10 -10 7 -16 -13
-31 -26 -20 -49 -26 -51 -12 0 4 -2 20 -4 37 -2 16 1 35 7 43 10 11 8 13 -12
10 -22 -3 -25 -7 -23 -42 2 -22 -2 -45 -8 -52 -6 -7 -14 -56 -19 -108 -4 -52
-12 -101 -16 -108 -5 -7 -7 -23 -5 -35 1 -13 -2 -23 -8 -23 -14 0 -20 13 -25
51 -18 129 -26 172 -36 184 -7 8 -9 24 -5 36 4 11 4 45 0 75 -5 43 -11 54 -28
60 -12 3 -30 13 -39 21 -11 10 -25 12 -39 8 -20 -7 -19 -3 11 29 40 42 44 43
67 16 37 -42 42 -27 43 113 1 177 4 238 14 262 4 11 12 29 16 40 5 11 12 169
15 350 10 460 11 475 25 536 19 80 36 109 65 109 20 0 26 -7 34 -37z m-6879
-429 c0 -14 -4 -23 -10 -19 -5 3 -10 15 -10 26 0 10 5 19 10 19 6 0 10 -12 10
-26z m6704 -366 c3 -7 7 -25 10 -40 l6 -27 -25 23 c-14 13 -25 31 -25 40 0 19
29 22 34 4z m-4 -72 c0 -11 -19 -15 -25 -6 -3 5 1 10 9 10 9 0 16 -2 16 -4z
m-6742 -99 c2 -10 -3 -17 -12 -17 -18 0 -29 16 -21 31 9 14 29 6 33 -14z
m6477 -2054 c0 -30 19 -34 23 -5 2 13 9 21 15 19 7 -2 11 -13 9 -25 -2 -16 3
-23 22 -28 55 -14 35 -68 -26 -66 -18 1 -46 2 -62 2 -16 0 -42 12 -58 25 -16
14 -34 25 -39 25 -5 0 -9 7 -9 15 0 8 4 15 8 15 5 0 15 11 22 25 12 22 20 26
54 23 35 -3 41 -6 41 -25z m-225 -52 c0 -14 -53 -49 -67 -44 -14 5 -18 35 -6
46 10 11 73 8 73 -2z m-4188 -121 c18 -17 20 -23 10 -45 -13 -28 -47 -34 -56
-9 -5 14 12 74 22 74 1 0 12 -9 24 -20z"/>
<path d="M6194 2819 c-15 -16 -27 -20 -56 -16 -24 3 -41 0 -48 -8 -6 -8 -19
-13 -28 -13 -9 1 -36 -8 -58 -19 -30 -14 -47 -17 -59 -11 -11 7 -21 6 -28 -1
-6 -6 -20 -11 -31 -11 -12 0 -30 -7 -41 -16 -14 -10 -31 -13 -58 -8 -32 5 -42
2 -58 -15 -22 -23 -49 -27 -67 -9 -9 9 -17 7 -36 -11 -16 -15 -43 -25 -77 -29
-50 -7 -54 -9 -68 -45 -16 -42 -15 -46 47 -149 42 -70 44 -97 20 -268 -17
-126 -18 -278 -3 -445 4 -51 2 -102 -5 -140 -7 -33 -14 -85 -17 -115 -4 -51
-2 -59 25 -90 l30 -34 99 18 c54 9 114 19 133 22 32 5 69 19 124 47 40 20 76
25 113 17 34 -8 63 -6 213 17 26 4 49 20 88 60 57 60 63 82 30 117 -13 13 -28
32 -34 42 -6 11 -30 25 -52 32 -39 13 -45 12 -78 -7 -38 -23 -69 -27 -79 -11
-8 13 -92 13 -100 -1 -4 -5 -19 -7 -34 -4 -19 4 -35 0 -54 -15 -15 -12 -46
-23 -72 -25 -39 -3 -45 -1 -45 16 0 11 -12 42 -26 70 -24 45 -26 54 -16 87 7
20 13 48 14 61 2 19 12 27 53 38 28 8 80 18 117 22 37 5 73 13 81 19 7 6 32
14 56 18 35 6 47 14 65 43 13 20 30 42 39 49 25 21 31 69 13 97 -9 13 -16 30
-16 38 0 8 -18 19 -39 26 -38 11 -71 7 -71 -9 0 -4 -42 -11 -92 -15 -51 -4
-111 -14 -133 -22 -66 -24 -82 -26 -88 -10 -9 23 18 164 37 192 9 13 16 31 16
38 0 39 61 57 210 61 30 1 69 8 85 16 17 9 63 27 103 40 59 20 80 33 108 66
44 54 54 112 25 138 -12 11 -42 24 -68 31 -32 8 -51 19 -58 33 -12 28 -27 28
-51 1z"/>
<path d="M4327 2738 c-31 -4 -65 -11 -74 -16 -10 -5 -35 -12 -56 -16 -26 -5
-41 -14 -49 -31 -6 -13 -19 -26 -29 -28 -45 -12 -68 -137 -50 -272 6 -44 13
-127 15 -185 3 -58 11 -134 20 -170 9 -36 16 -79 16 -97 0 -17 5 -35 10 -38
21 -13 11 -81 -18 -118 -27 -34 -28 -38 -21 -110 4 -41 12 -84 18 -96 15 -27
54 -27 146 -2 44 13 74 16 79 10 18 -17 46 -10 46 12 0 11 5 29 10 39 12 22
80 44 93 31 5 -5 24 -3 44 5 19 8 42 12 52 9 29 -9 184 80 256 147 95 89 167
229 181 353 4 33 11 65 16 72 13 16 11 158 -2 199 -7 20 -9 38 -6 41 3 3 -5
25 -18 49 -22 41 -126 134 -150 134 -5 0 -26 11 -45 25 -32 22 -40 23 -77 14
-37 -10 -47 -8 -93 17 -47 24 -59 26 -121 20 -40 -3 -71 -2 -75 4 -6 10 -25 9
-118 -2z m150 -209 c7 -7 43 -11 93 -10 76 2 83 0 115 -26 19 -15 48 -39 64
-53 17 -13 31 -29 31 -35 0 -7 11 -34 25 -61 14 -27 25 -53 25 -58 0 -5 -18
-30 -41 -55 -50 -57 -53 -62 -62 -83 -3 -10 -14 -18 -24 -18 -18 0 -173 -143
-173 -159 0 -4 -11 -18 -25 -31 -28 -26 -117 -46 -108 -24 2 7 -5 19 -17 26
-41 25 -49 65 -47 245 1 141 -1 173 -15 202 -10 18 -20 48 -24 66 -5 30 -3 35
28 52 18 10 53 21 78 24 25 3 50 7 56 7 5 1 15 -3 21 -9z"/>
<path d="M2355 2723 c-22 -2 -49 -7 -60 -12 -11 -5 -40 -15 -65 -22 -25 -7
-49 -16 -55 -21 -5 -4 -19 -8 -32 -8 -13 0 -23 -3 -23 -8 0 -7 -73 -42 -89
-42 -22 0 -101 -48 -121 -73 -12 -15 -29 -27 -38 -27 -20 -1 -62 -34 -62 -49
0 -6 -9 -15 -20 -21 -12 -6 -25 -21 -31 -33 -5 -12 -21 -37 -34 -56 -14 -19
-25 -48 -25 -64 0 -17 -8 -39 -17 -49 -11 -13 -19 -42 -21 -86 -3 -37 -10 -76
-17 -87 -32 -50 -28 -106 17 -240 11 -33 21 -71 21 -85 3 -34 46 -105 71 -116
13 -6 23 -24 28 -48 11 -51 25 -67 53 -60 17 4 26 0 34 -14 6 -12 20 -24 31
-27 11 -3 20 -12 20 -19 0 -7 29 -27 66 -46 62 -31 68 -32 147 -26 73 5 212
21 259 29 38 7 98 41 98 57 0 22 20 40 44 40 11 0 29 9 41 20 12 12 40 23 61
26 21 3 48 9 59 14 11 4 28 11 38 14 9 3 20 14 24 23 4 10 17 27 30 38 33 30
29 58 -17 99 -37 33 -45 36 -100 36 -43 0 -61 -4 -68 -16 -5 -8 -28 -20 -53
-25 -24 -5 -56 -18 -70 -29 -15 -10 -50 -22 -78 -26 -48 -6 -51 -5 -61 20 -5
14 -11 26 -13 26 -2 0 -19 -13 -37 -30 -37 -33 -59 -36 -156 -19 -67 12 -104
37 -104 71 0 11 -9 36 -21 55 -16 25 -20 44 -16 76 10 78 20 112 33 120 8 4
14 14 14 21 0 7 9 21 20 31 11 10 20 24 20 30 0 7 9 15 20 18 14 4 20 14 20
34 0 36 16 53 50 53 18 0 31 9 43 30 10 17 22 30 28 30 5 0 9 11 9 26 0 19 7
28 30 35 17 6 30 17 30 24 0 18 70 63 110 70 29 5 39 2 58 -18 15 -16 30 -23
43 -20 13 4 19 0 19 -11 0 -27 80 -15 100 15 6 9 4 121 -3 162 -5 29 -24 54
-97 124 -51 50 -93 74 -124 71 -12 -1 -39 -3 -61 -5z"/>
<path d="M3340 2539 c-13 -6 -33 -19 -43 -29 -13 -15 -31 -20 -69 -20 -46 0
-54 -4 -92 -42 -23 -24 -68 -61 -99 -83 -74 -51 -114 -92 -122 -125 -4 -14
-14 -33 -23 -43 -11 -12 -17 -39 -19 -79 -1 -33 -6 -65 -12 -71 -21 -21 -11
-103 22 -174 5 -11 6 -26 2 -33 -10 -16 93 -120 118 -120 11 0 36 -10 56 -22
95 -60 179 -68 253 -24 25 14 52 26 61 26 9 0 22 12 29 28 11 21 20 27 48 28
49 1 80 21 135 84 50 58 68 93 67 124 -1 18 26 64 54 93 10 10 18 118 14 173
-1 8 -2 33 -3 55 -1 24 -13 57 -29 82 -15 23 -30 53 -34 68 -3 14 -19 32 -33
40 -15 7 -33 21 -40 29 -9 11 -31 16 -71 16 -32 0 -74 7 -93 15 -41 17 -43 17
-77 4z m-25 -280 c4 -6 19 -7 35 -4 16 4 38 1 49 -5 28 -14 29 -96 2 -148 -10
-20 -28 -58 -40 -84 -11 -27 -27 -48 -35 -48 -8 0 -24 -13 -35 -29 -38 -54
-125 -46 -201 18 -32 27 -33 31 -22 55 7 15 12 36 12 47 0 23 89 126 152 177
42 33 72 40 83 21z"/>
</g>
</svg>
