<?xml version="1.0" standalone="no"?>
<!DOCTYPE svg PUBLIC "-//W3C//DTD SVG 20010904//EN"
 "http://www.w3.org/TR/2001/REC-SVG-20010904/DTD/svg10.dtd">
<svg version="1.0" xmlns="http://www.w3.org/2000/svg"
 width="888.000000pt" height="888.000000pt" viewBox="0 0 888.000000 888.000000"
 preserveAspectRatio="xMidYMid meet">
<metadata>
Created by potrace 1.16, written by Peter Selinger 2001-2019
</metadata>
<g transform="translate(0.000000,888.000000) scale(0.100000,-0.100000)"
fill="#000000" stroke="none">
<path d="M6616 7012 c-3 -6 -63 -13 -133 -16 -71 -4 -153 -10 -183 -13 -30 -3
-98 -5 -151 -4 -63 1 -119 -4 -159 -14 -43 -11 -71 -13 -89 -7 -14 5 -37 7
-51 6 -66 -9 -184 -14 -392 -17 -154 -2 -231 -6 -239 -14 -9 -9 -16 -9 -31 0
-16 10 -22 9 -32 -6 -11 -14 -27 -17 -87 -16 -41 1 -112 -4 -159 -9 -47 -6
-124 -11 -172 -11 -48 -1 -110 -6 -138 -12 -44 -9 -54 -9 -70 6 -11 10 -26 15
-35 11 -9 -3 -69 -8 -133 -11 -64 -3 -133 -8 -152 -12 -87 -14 -332 -17 -560
-7 -30 1 -210 5 -399 8 -189 3 -349 10 -355 15 -10 8 -167 23 -246 24 -48 0
-139 -19 -175 -36 -25 -13 -49 -14 -135 -7 -201 17 -251 23 -256 31 -6 11 -55
11 -70 1 -6 -4 -22 -35 -35 -69 -15 -41 -30 -63 -40 -63 -36 0 -79 -76 -79
-141 0 -22 -7 -50 -15 -62 -11 -18 -12 -31 -5 -59 6 -19 8 -75 5 -124 -3 -49
-6 -123 -8 -164 -1 -41 -6 -81 -10 -88 -5 -7 -10 -59 -12 -115 -2 -56 -5 -148
-7 -204 -2 -72 -8 -107 -19 -120 -12 -14 -14 -37 -10 -113 4 -52 3 -129 -1
-170 -4 -56 -1 -98 13 -167 11 -50 19 -95 18 -100 -1 -4 0 -10 1 -13 8 -17 6
-137 -3 -148 -6 -7 -12 -27 -14 -43 -1 -16 -9 -42 -17 -58 -10 -18 -12 -31 -5
-38 12 -12 16 -264 7 -464 -4 -116 -9 -152 -24 -173 -13 -21 -14 -30 -5 -35 8
-5 10 -21 5 -47 -5 -34 -7 -107 -4 -198 0 -16 -6 -36 -14 -45 -25 -28 -30 -70
-11 -91 10 -11 24 -20 31 -20 7 0 18 -23 25 -53 10 -47 9 -59 -6 -91 -15 -30
-16 -41 -6 -60 7 -12 14 -42 16 -65 2 -32 10 -49 28 -65 14 -11 28 -32 32 -46
9 -32 25 -51 36 -45 4 3 13 -4 19 -15 16 -29 40 -24 84 17 37 34 38 38 28 67
-20 55 -34 165 -28 209 4 23 6 58 5 77 -2 37 -1 46 4 210 2 60 -1 111 -6 118
-10 13 -19 61 -17 97 1 11 1 60 1 109 -1 48 4 106 10 128 7 26 7 44 0 52 -10
12 -8 96 3 114 3 5 -2 24 -10 42 -13 26 -15 47 -9 104 4 39 7 100 7 136 -1 36
3 80 9 98 7 20 7 37 2 45 -15 19 -16 106 -2 123 9 11 9 18 1 26 -14 14 -16 54
-4 62 4 2 9 37 10 78 1 40 6 74 12 76 13 5 13 112 -1 167 -9 35 -8 47 4 66 9
13 19 45 22 71 7 44 5 49 -26 77 -27 25 -30 32 -19 45 7 9 10 27 8 40 -3 15 0
27 7 30 9 3 11 22 7 63 -2 32 -6 78 -7 103 -2 25 -6 83 -9 129 -3 47 -2 89 3
95 5 6 11 31 15 56 21 152 50 267 73 293 11 12 23 38 27 57 5 25 18 44 49 67
42 32 44 32 149 30 72 -1 110 2 120 11 9 7 33 14 54 17 22 2 66 9 99 15 95 16
94 16 88 -32 l-6 -41 36 6 c21 3 37 2 37 -4 0 -5 -6 -9 -14 -9 -7 0 -19 -6
-25 -14 -9 -10 -8 -15 3 -19 9 -4 18 -2 22 4 3 6 12 8 20 5 7 -3 57 1 110 9
54 8 112 15 130 15 18 0 35 4 38 9 12 19 211 35 605 46 101 3 187 7 190 9 3 2
47 0 96 -4 55 -6 94 -5 99 1 6 5 28 9 49 9 30 0 40 -4 44 -20 4 -13 17 -21 42
-25 20 -4 48 -13 63 -21 14 -8 43 -14 63 -14 47 0 175 21 175 29 0 3 27 6 59
6 34 1 66 6 75 14 9 7 22 11 30 8 7 -3 31 -1 52 4 22 5 87 11 146 14 l106 4
44 -40 c42 -39 45 -40 98 -35 91 8 140 18 146 27 3 5 22 9 43 9 21 0 41 3 45
7 8 8 14 9 106 18 61 6 71 4 77 -11 6 -15 18 -16 120 -10 108 7 113 6 113 -13
0 -27 53 -41 158 -41 l82 0 0 34 0 35 48 -15 c26 -8 61 -19 77 -24 19 -5 66
-4 125 4 52 7 102 11 110 9 9 -2 29 1 45 8 17 7 50 13 75 13 31 1 44 5 42 14
-2 10 7 11 35 5 21 -4 61 -7 88 -6 28 1 63 2 79 2 15 0 35 6 42 12 14 12 177
15 195 4 5 -4 66 -1 135 5 146 14 160 9 131 -42 -16 -28 -16 -32 -1 -49 14
-16 30 -17 154 -14 113 4 140 2 150 -10 7 -8 16 -13 20 -10 16 10 21 -15 21
-112 0 -54 5 -117 11 -141 6 -25 7 -47 2 -52 -5 -5 -6 -51 -3 -102 3 -51 4
-149 1 -218 -2 -69 1 -144 6 -168 6 -23 6 -44 2 -47 -4 -3 -8 -21 -7 -41 1
-19 -5 -39 -12 -43 -8 -5 -17 -43 -22 -96 -5 -48 -12 -91 -15 -97 -4 -6 -8
-36 -9 -67 -1 -31 -7 -76 -13 -101 -6 -25 -9 -69 -7 -99 4 -43 1 -59 -17 -83
-19 -27 -20 -36 -11 -70 6 -23 7 -55 3 -76 -5 -20 -7 -71 -5 -112 2 -58 -1
-79 -14 -94 -11 -13 -13 -20 -4 -23 7 -2 9 -11 7 -18 -3 -8 -2 -20 3 -27 4 -7
9 -74 11 -148 1 -74 5 -230 7 -347 l5 -212 -49 6 c-42 5 -50 3 -53 -13 -3 -11
2 -27 11 -37 13 -16 13 -17 -1 -12 -8 3 -18 0 -20 -7 -8 -20 10 -160 21 -171
7 -7 7 -16 0 -28 -7 -15 -2 -26 25 -55 19 -21 33 -41 31 -45 -3 -4 -1 -28 4
-54 8 -43 7 -47 -15 -55 -13 -5 -24 -14 -24 -19 0 -44 80 -141 117 -141 13 0
39 10 58 23 l35 22 -5 83 c-2 45 -7 87 -10 92 -3 4 0 21 6 37 6 15 12 60 15
98 2 39 9 96 15 128 10 49 10 60 -2 68 -12 8 -12 10 0 18 12 8 12 12 2 24 -15
19 -21 201 -8 241 7 21 6 30 -4 36 -10 6 -10 12 -1 22 6 8 11 23 11 33 0 64
14 113 37 125 17 9 21 17 15 29 -15 30 -21 119 -8 125 8 3 6 10 -7 20 -17 14
-18 25 -12 128 3 62 14 160 23 217 13 85 14 107 3 124 -15 25 -23 134 -10 142
6 3 10 28 10 54 0 26 4 51 10 57 5 5 12 78 14 162 5 144 7 154 28 172 13 11
26 19 31 20 11 0 8 85 -4 97 -11 11 -14 131 -4 164 3 10 -1 29 -10 43 -9 13
-15 41 -14 62 1 22 -5 59 -14 83 -19 54 -12 220 10 228 16 6 17 55 1 71 -10
10 -10 17 -1 31 19 30 27 90 14 105 -12 15 -5 92 10 101 9 6 0 75 -12 91 -5 6
-6 14 -2 18 9 8 -77 96 -94 96 -7 0 -22 9 -34 21 -12 12 -38 22 -65 25 -25 2
-53 8 -62 13 -20 11 -57 12 -394 7 -180 -2 -251 -6 -262 -15 -20 -17 -32 -8
-46 34 -11 32 -15 35 -50 35 -21 0 -45 3 -53 6 -8 3 -18 1 -21 -4z m-1316
-267 c0 -13 -4 -14 -20 -5 -11 6 -20 13 -20 15 0 3 9 5 20 5 11 0 20 -7 20
-15z"/>
<path d="M7160 6541 c0 -16 6 -21 26 -21 33 0 30 33 -4 38 -17 3 -22 -2 -22
-17z"/>
<path d="M4556 6403 c-7 -7 -42 -12 -106 -16 -41 -3 -60 -14 -77 -44 -27 -47
-5 -92 60 -127 40 -21 107 -16 107 8 0 13 62 72 83 79 14 4 2 48 -24 80 -21
28 -31 32 -43 20z"/>
<path d="M6939 6385 c-5 -5 -72 -12 -149 -13 -77 -2 -140 -8 -140 -13 0 -4
-17 -11 -37 -14 -21 -4 -50 -11 -65 -17 -20 -8 -34 -6 -58 5 -17 9 -38 13 -46
10 -8 -3 -20 -1 -27 5 -25 20 -112 25 -477 25 -596 -1 -854 -13 -864 -40 -5
-12 -10 -13 -20 -4 -9 8 -28 8 -64 1 -53 -10 -92 -38 -92 -66 0 -26 20 -54 38
-54 9 0 25 -7 34 -14 25 -18 147 -8 174 15 11 9 21 9 40 0 14 -6 38 -11 54
-11 20 0 30 -5 30 -15 0 -10 10 -15 29 -15 16 0 36 -3 44 -6 10 -3 18 5 25 25
7 21 16 29 25 25 8 -3 18 0 22 6 5 8 43 9 129 4 88 -5 125 -4 130 5 9 14 88
15 103 0 8 -8 17 -8 32 0 12 7 38 12 59 12 20 0 64 1 97 3 130 6 453 -22 476
-40 8 -6 31 -14 52 -18 20 -4 48 -18 61 -33 26 -28 21 -30 91 30 34 30 50 36
110 42 39 4 89 13 113 20 24 8 44 9 48 4 3 -5 -2 -36 -10 -70 -9 -33 -16 -87
-16 -119 0 -51 -3 -60 -21 -65 -16 -5 -28 2 -54 32 -40 44 -43 66 -14 86 18
13 19 18 8 35 -13 21 -71 31 -137 24 -35 -4 -40 -26 -6 -28 10 -1 32 -4 47 -9
23 -6 28 -12 25 -34 -1 -15 8 -44 20 -65 12 -20 22 -42 22 -47 0 -6 16 -26 35
-46 36 -37 42 -63 26 -106 -5 -13 -11 -69 -14 -125 -3 -55 -8 -106 -12 -112
-4 -7 -9 -53 -10 -103 -2 -51 -6 -132 -10 -182 -3 -49 -2 -117 3 -150 7 -40 7
-64 0 -72 -7 -9 -7 -18 2 -28 8 -10 13 -70 16 -181 3 -91 9 -174 13 -183 5 -9
10 -60 10 -112 1 -51 2 -145 4 -206 1 -64 -2 -114 -7 -116 -5 -2 -10 -22 -11
-46 -1 -24 -8 -46 -16 -51 -7 -5 -11 -12 -7 -15 3 -3 -1 -30 -8 -58 -8 -29
-17 -64 -19 -79 -2 -16 -11 -43 -20 -62 -9 -19 -16 -47 -14 -63 1 -15 -3 -41
-10 -57 -10 -24 -9 -32 6 -49 33 -36 86 -43 89 -12 3 23 17 55 25 55 5 0 9 8
9 19 0 22 26 113 45 156 20 47 40 118 37 138 -1 9 2 17 7 17 22 0 37 478 16
527 -4 10 -9 54 -11 98 -1 44 -6 130 -9 190 -14 222 -13 399 1 500 8 55 12
111 9 124 -4 13 1 33 10 48 10 14 18 51 19 91 2 37 14 99 26 137 12 39 23 79
24 91 1 11 5 24 8 30 3 5 9 30 12 56 4 26 12 50 17 54 6 3 8 12 5 20 -3 7 2
17 10 22 8 4 18 21 23 38 4 16 15 31 25 32 25 5 56 39 56 61 0 26 -47 81 -69
81 -9 0 -23 6 -29 12 -16 16 -139 27 -153 13z"/>
<path d="M2446 6373 c5 -14 4 -15 -4 -4 -16 23 -42 5 -42 -28 0 -20 -7 -34
-20 -41 -11 -6 -20 -16 -20 -23 0 -7 -6 -23 -13 -37 -13 -25 -26 -123 -33
-242 -1 -31 -7 -65 -12 -75 -5 -10 -10 -40 -11 -68 -2 -27 -7 -55 -12 -62 -7
-7 -6 -14 1 -18 6 -3 8 -10 5 -16 -6 -9 -21 -151 -29 -274 -3 -38 -9 -84 -14
-101 -7 -20 -7 -35 0 -42 5 -5 9 -36 8 -68 0 -32 0 -68 0 -79 1 -11 3 -75 5
-141 3 -104 7 -185 21 -394 1 -19 2 -37 3 -40 1 -3 4 -41 6 -85 6 -120 13
-202 24 -279 6 -38 8 -73 5 -77 -3 -5 7 -27 21 -50 23 -36 30 -40 55 -36 15 4
40 18 56 32 33 30 37 74 12 126 -23 49 -39 150 -26 166 6 8 6 24 -1 46 -7 19
-11 57 -11 83 1 27 -3 78 -9 114 -5 36 -11 135 -12 220 -1 85 -6 166 -11 179
-6 17 -5 27 3 32 10 6 10 26 2 86 -7 56 -7 82 1 92 6 8 11 50 11 95 l0 81 31
-2 c30 -3 31 -1 43 54 7 31 23 65 35 77 11 12 30 38 40 59 21 41 64 81 150
140 31 21 56 45 56 53 0 9 11 14 34 14 35 0 46 13 46 52 0 10 7 26 15 34 16
16 20 78 9 134 -5 24 -11 30 -25 27 -21 -6 -51 24 -41 40 7 11 101 17 484 30
85 3 120 8 128 19 16 19 37 18 48 -2 8 -14 33 -16 183 -16 306 1 442 7 447 20
2 7 10 12 18 12 24 0 14 44 -16 67 -41 33 -60 39 -60 18 0 -15 -7 -16 -53 -11
-53 7 -105 9 -467 21 -266 8 -413 14 -555 22 -66 3 -138 6 -160 7 -22 1 -43 5
-46 9 -13 17 -100 -5 -125 -32 -32 -34 -30 -58 7 -114 27 -41 35 -47 65 -47
26 0 34 -4 34 -18 0 -9 -8 -22 -18 -28 -9 -6 -18 -23 -20 -38 -3 -36 -47 -118
-84 -158 -10 -10 -18 -22 -18 -26 0 -5 -16 -16 -35 -25 -23 -11 -35 -24 -35
-37 0 -11 -4 -20 -8 -20 -4 0 -14 -16 -21 -35 -11 -32 -21 -40 -43 -36 -5 0
-8 -10 -8 -23 0 -14 -4 -27 -9 -30 -11 -7 -23 52 -13 68 4 6 12 61 18 121 7
61 17 130 23 155 6 25 17 90 26 144 8 55 20 105 26 112 6 7 9 19 7 26 -3 7 1
28 9 46 18 44 4 62 -48 62 -32 0 -37 -3 -33 -17z"/>
<path d="M6275 6090 c-16 -9 -35 -27 -41 -39 -6 -12 -22 -30 -35 -39 -13 -9
-35 -29 -48 -45 -13 -15 -35 -34 -50 -42 -14 -8 -42 -29 -62 -47 -20 -18 -48
-43 -62 -55 -15 -13 -27 -29 -27 -37 0 -8 -9 -17 -20 -21 -23 -7 -90 -70 -90
-85 0 -6 -11 -15 -25 -20 -14 -5 -25 -14 -25 -20 0 -5 -6 -10 -12 -10 -7 0
-37 -23 -67 -50 -29 -28 -55 -50 -56 -50 -2 0 -17 -12 -32 -27 -110 -105 -152
-143 -157 -143 -2 0 -24 -18 -47 -41 -23 -22 -53 -48 -66 -56 -13 -8 -23 -22
-23 -29 0 -8 -9 -18 -19 -22 -11 -4 -37 -24 -60 -44 -22 -21 -44 -38 -49 -38
-10 0 -72 -54 -72 -63 0 -13 -197 -197 -210 -197 -4 0 -11 -11 -14 -24 -3 -13
-16 -30 -28 -39 -13 -8 -49 -40 -81 -71 -31 -31 -62 -56 -67 -56 -5 0 -7 -7
-4 -15 4 -9 -3 -19 -19 -26 -14 -6 -28 -22 -32 -36 -3 -13 -13 -27 -23 -30
-24 -9 -82 -54 -82 -64 0 -4 -34 -42 -75 -84 -41 -41 -75 -81 -75 -88 0 -14
-53 -67 -67 -67 -5 0 -19 -16 -33 -36 -30 -43 -100 -114 -112 -114 -4 0 -8 -6
-8 -14 0 -8 -7 -17 -16 -20 -8 -3 -13 -10 -10 -15 4 -5 -7 -23 -24 -39 -16
-17 -30 -35 -30 -41 0 -6 -9 -11 -19 -11 -11 0 -21 -3 -23 -7 -1 -5 -20 -16
-40 -25 -26 -12 -38 -24 -38 -38 0 -11 -4 -20 -9 -20 -5 0 -11 -12 -14 -27 -3
-16 -15 -38 -26 -50 -32 -34 -27 -44 22 -37 40 7 86 31 87 47 0 4 35 42 79 85
43 42 90 96 104 118 15 25 36 44 51 48 14 3 26 12 26 20 0 12 85 96 97 96 12
0 108 95 116 115 12 28 46 63 89 91 25 16 35 29 32 39 -4 9 -1 15 8 15 18 0
238 221 238 239 0 5 9 11 20 14 11 3 24 17 30 31 5 14 14 26 19 26 5 0 27 17
49 38 22 20 51 45 65 54 18 12 24 24 20 38 -4 16 -2 19 11 14 9 -3 16 -1 16 5
0 6 5 11 10 11 16 0 80 61 80 77 0 7 9 13 20 13 12 0 26 12 35 30 9 17 22 30
30 30 7 0 20 8 27 18 7 9 33 33 58 52 25 18 79 65 121 104 92 86 100 92 127
100 11 4 27 20 34 36 7 17 18 30 25 30 6 0 29 20 50 44 21 23 47 46 59 50 12
3 26 18 32 31 8 17 20 25 38 25 21 0 25 4 21 19 -3 15 4 21 34 30 22 7 40 20
44 30 9 29 85 101 105 101 10 0 25 10 33 23 8 12 38 46 66 76 28 29 64 81 80
115 17 34 42 77 56 96 30 40 29 37 8 48 -12 6 -28 4 -48 -8z"/>
<path d="M3115 6078 c-32 -18 -65 -57 -65 -77 0 -10 -9 -26 -20 -36 -11 -10
-22 -26 -25 -36 -4 -11 -12 -19 -18 -19 -7 0 -38 -26 -70 -58 -80 -78 -93 -93
-125 -140 -15 -22 -56 -71 -91 -108 -35 -38 -70 -84 -78 -103 -16 -39 -30 -54
-57 -64 -14 -5 -16 -10 -7 -20 7 -9 7 -17 0 -24 -5 -5 -11 -22 -13 -36 -1 -14
-12 -34 -23 -44 -25 -21 -40 -78 -23 -88 25 -16 60 7 97 63 21 31 48 68 60 82
13 14 23 30 23 37 0 20 63 83 84 83 13 0 17 5 13 20 -3 14 4 28 25 45 16 14
34 25 39 25 5 0 9 6 9 13 0 21 24 67 35 67 19 1 105 70 105 84 0 8 9 17 19 21
10 3 21 15 24 26 3 11 15 23 26 26 12 3 21 9 21 13 0 4 19 29 42 55 36 41 40
50 29 66 -6 11 -8 25 -4 32 4 7 13 28 20 47 18 51 -6 74 -52 48z"/>
<path d="M5492 6005 c-24 -36 -46 -65 -50 -65 -13 0 -64 -48 -66 -62 -3 -20
-89 -118 -103 -118 -7 0 -13 -6 -13 -12 -1 -16 -35 -58 -48 -58 -5 0 -21 -15
-36 -34 -14 -19 -51 -59 -81 -88 -30 -29 -81 -79 -114 -111 -32 -31 -62 -64
-65 -73 -3 -8 -20 -21 -38 -29 -18 -7 -45 -26 -59 -42 -43 -47 -188 -183 -195
-183 -4 0 -20 -15 -35 -32 -94 -107 -120 -135 -176 -194 -35 -36 -63 -70 -63
-75 0 -5 -9 -9 -20 -9 -11 0 -20 -4 -20 -10 0 -5 -9 -10 -20 -10 -14 0 -20 -7
-20 -22 0 -23 -87 -117 -162 -176 -27 -20 -48 -40 -48 -46 0 -10 -111 -116
-122 -116 -5 0 -8 -6 -8 -12 0 -7 -35 -47 -77 -88 -42 -41 -100 -105 -129
-142 -30 -37 -58 -70 -64 -73 -5 -3 -10 -15 -10 -26 0 -10 -6 -19 -13 -19 -7
0 -35 -26 -62 -57 -74 -84 -124 -133 -136 -133 -6 0 -20 -11 -31 -25 -11 -14
-37 -34 -58 -45 -37 -19 -39 -22 -38 -69 0 -28 5 -57 12 -67 11 -15 16 -12 44
24 20 24 43 42 62 45 16 4 37 15 47 26 118 129 184 198 271 286 56 57 102 107
102 112 0 5 20 26 45 48 25 22 45 45 45 51 0 13 129 134 142 134 4 0 8 6 8 13
0 6 20 32 45 56 25 24 45 48 45 53 0 5 4 6 10 3 12 -7 42 8 42 21 1 22 22 53
44 65 13 7 24 15 24 19 0 8 187 200 195 200 3 0 14 9 25 20 11 11 27 20 35 20
8 0 15 9 15 20 0 11 11 27 24 35 13 9 43 40 67 70 24 30 50 55 58 55 8 0 29
18 48 39 18 22 43 41 56 43 12 2 28 15 35 30 7 16 24 31 38 34 13 3 24 12 24
19 0 6 9 20 20 30 11 10 20 24 20 32 0 8 11 13 29 13 21 0 36 8 51 30 12 16
19 34 15 40 -3 5 6 12 20 16 14 3 25 10 25 15 0 5 17 25 38 44 67 63 71 68 67
75 -5 8 26 41 74 80 17 13 31 30 31 37 0 7 6 13 13 13 6 0 52 38 101 85 49 47
92 85 96 85 3 0 17 20 29 45 12 25 29 45 38 45 11 0 14 6 9 24 -5 21 -2 25 21
28 38 4 36 27 -5 72 -49 54 -70 49 -120 -29z"/>
<path d="M6605 5966 c-8 -19 -19 -37 -24 -41 -6 -3 -8 -12 -4 -20 3 -9 -1 -15
-10 -15 -9 0 -30 -16 -48 -35 -19 -19 -39 -35 -45 -35 -6 0 -19 -11 -28 -25
-9 -14 -22 -25 -29 -25 -7 0 -32 -25 -56 -55 -24 -30 -52 -57 -62 -60 -11 -4
-19 -10 -19 -14 0 -16 -88 -111 -102 -111 -5 0 -8 -6 -8 -14 0 -8 -14 -27 -32
-43 -17 -15 -49 -45 -72 -65 -22 -21 -43 -38 -47 -38 -5 0 -14 -12 -22 -27 -7
-16 -19 -27 -25 -26 -7 2 -12 -4 -12 -12 0 -8 -5 -15 -11 -15 -12 0 -179 -168
-179 -181 0 -5 -7 -9 -15 -9 -18 0 -56 -36 -48 -44 6 -6 -19 -30 -71 -69 -22
-17 -234 -225 -274 -270 -4 -4 -47 -45 -97 -92 -161 -151 -191 -182 -182 -191
4 -4 -7 -17 -23 -29 -17 -12 -43 -40 -59 -63 -17 -22 -34 -43 -40 -47 -6 -3
-11 -15 -11 -25 0 -20 -49 -50 -82 -50 -10 0 -18 -4 -18 -9 0 -16 -74 -56
-115 -61 -39 -5 -40 -6 -45 -52 -3 -26 -8 -49 -10 -51 -3 -2 -23 -8 -45 -13
l-40 -9 3 -60 c2 -32 8 -67 13 -77 13 -24 36 -23 44 3 6 18 12 20 41 14 26 -4
34 -3 34 9 0 9 11 16 28 18 19 2 28 9 30 25 2 13 12 29 21 36 10 6 20 21 22
32 3 12 14 21 27 23 16 2 22 8 18 18 -3 8 0 14 8 14 7 0 27 20 45 45 18 25 36
45 41 45 5 0 19 18 30 40 13 26 27 40 40 40 10 0 33 18 51 40 18 22 36 37 42
33 6 -4 8 0 4 10 -3 9 -3 17 1 19 4 2 21 22 39 46 17 24 52 56 77 73 26 16 50
39 55 52 10 25 75 87 92 87 5 0 15 11 21 25 6 14 15 25 21 25 8 0 53 44 104
102 7 7 44 42 83 78 40 36 116 108 169 160 54 52 123 118 154 145 31 28 56 56
57 63 0 7 6 12 13 11 28 -3 37 2 37 22 0 12 8 23 19 26 10 2 24 16 31 29 8 13
19 24 26 24 7 0 29 18 50 40 21 22 43 40 49 40 16 0 85 63 85 77 0 6 7 13 15
17 8 3 15 11 15 17 0 16 68 90 102 111 15 10 28 25 28 33 0 8 9 15 20 15 11 0
20 3 20 8 0 4 25 33 55 65 43 45 55 64 55 89 0 21 9 41 26 59 l26 28 -18 40
c-23 50 -41 52 -59 7z"/>
<path d="M3424 5933 c-16 -21 -34 -47 -40 -58 -6 -11 -30 -33 -53 -49 -23 -15
-45 -36 -49 -45 -3 -9 -30 -39 -59 -67 -29 -29 -53 -58 -53 -66 0 -20 -36 -52
-49 -43 -6 3 -11 -2 -11 -13 0 -10 -10 -30 -22 -44 -13 -14 -54 -62 -91 -107
-38 -44 -72 -81 -77 -81 -5 0 -12 -9 -15 -20 -4 -11 -38 -52 -76 -90 -38 -38
-76 -84 -85 -102 -38 -83 -113 -178 -139 -178 -16 0 -50 -38 -41 -47 3 -4 -6
-19 -20 -34 -28 -29 -49 -114 -32 -125 20 -13 54 7 73 42 11 21 29 42 40 48
33 18 115 113 115 134 0 5 9 17 20 27 11 10 20 23 20 29 0 16 92 106 108 106
7 0 12 5 12 10 0 6 9 10 20 10 13 0 27 14 40 40 11 22 26 40 34 40 18 0 49 37
42 49 -10 15 40 88 64 96 11 3 20 11 20 16 0 5 8 17 18 27 10 10 33 40 52 67
36 51 46 62 99 105 16 14 30 33 31 43 0 17 75 97 91 97 5 0 9 6 9 13 0 7 14
18 30 24 27 10 30 16 30 56 0 31 6 49 20 62 11 10 20 29 20 42 0 25 -10 29
-28 11 -8 -8 -15 -8 -25 1 -12 9 -20 5 -43 -26z"/>
<path d="M3910 5947 c0 -7 -8 -17 -18 -23 -10 -7 -24 -31 -31 -55 -13 -43 -22
-57 -68 -101 -12 -12 -35 -39 -50 -62 -31 -45 -41 -57 -87 -109 -17 -20 -49
-59 -70 -86 -22 -28 -43 -51 -48 -51 -9 0 -68 -60 -68 -69 0 -4 -13 -14 -28
-23 -16 -9 -37 -34 -48 -55 -19 -38 -52 -70 -66 -65 -5 1 -8 -3 -8 -8 0 -6
-16 -25 -35 -43 -19 -17 -35 -34 -35 -38 0 -3 -29 -37 -65 -75 -36 -38 -65
-74 -65 -80 0 -17 -52 -74 -67 -74 -7 0 -12 -4 -10 -9 2 -9 -66 -92 -120 -149
-13 -13 -23 -27 -23 -32 0 -5 -12 -16 -27 -24 -35 -19 -65 -51 -86 -93 -9 -17
-26 -38 -38 -46 -27 -19 -22 -44 13 -65 l28 -17 80 83 c44 46 80 89 80 97 0 8
5 15 10 15 15 0 135 127 149 156 6 13 17 24 24 24 18 0 87 72 87 91 0 16 86
101 113 112 9 3 17 11 17 16 0 6 10 21 23 33 12 13 49 55 82 93 87 99 102 115
109 115 4 0 21 16 39 35 17 19 39 35 48 35 18 0 59 60 59 86 0 8 5 14 10 14 6
0 10 7 10 15 0 9 8 19 18 22 32 12 72 47 72 62 0 9 9 27 19 40 10 14 17 30 15
36 -3 6 4 20 16 30 11 10 20 24 20 31 0 7 9 18 20 24 11 6 20 7 20 3 0 -4 5
-2 12 5 9 9 7 16 -6 31 -11 12 -14 21 -7 26 16 10 13 36 -6 50 -16 12 -16 14
0 38 21 32 22 47 2 47 -8 0 -15 -6 -15 -13z"/>
<path d="M4746 5798 c-20 -23 -36 -47 -36 -53 0 -14 -48 -64 -123 -129 -31
-27 -57 -54 -57 -60 0 -13 -64 -76 -77 -76 -5 0 -19 -17 -31 -37 -26 -47 -135
-153 -156 -153 -9 0 -16 -6 -16 -14 0 -8 -11 -23 -25 -34 -14 -11 -25 -23 -25
-27 0 -4 -22 -30 -49 -59 -97 -101 -141 -151 -141 -163 0 -16 -12 -17 -28 -1
-9 9 -12 7 -12 -11 0 -36 -18 -61 -45 -61 -14 0 -24 -3 -23 -7 3 -11 -51 -93
-61 -93 -12 0 -191 -181 -191 -193 0 -5 -38 -49 -85 -96 -174 -178 -225 -232
-225 -244 0 -7 -21 -25 -45 -42 -25 -16 -45 -35 -45 -41 0 -6 -7 -18 -17 -25
-9 -8 -22 -29 -30 -46 -7 -18 -17 -33 -22 -33 -6 0 -12 -9 -16 -19 -3 -11 -28
-42 -55 -70 -28 -29 -50 -58 -50 -66 0 -8 -9 -24 -21 -36 -23 -23 -18 -59 8
-59 24 0 113 60 113 76 0 7 22 36 49 63 27 28 52 59 56 70 3 11 15 23 25 26
11 3 27 22 36 41 9 19 34 51 55 71 22 21 39 42 39 48 0 10 91 84 129 104 11 7
21 21 21 31 0 11 7 20 15 20 8 0 15 5 15 11 0 6 19 30 43 54 23 24 62 64 87
90 25 25 53 51 63 56 9 5 17 21 17 34 0 18 6 25 18 25 18 0 82 63 82 80 0 5
13 11 30 15 16 4 38 17 49 31 10 13 23 24 28 24 10 0 46 58 49 78 3 16 2 15
34 28 18 8 24 19 25 40 0 21 4 28 17 26 18 -3 32 14 33 37 0 8 16 19 35 24 33
8 80 42 78 56 -3 29 4 41 27 41 16 0 25 6 25 15 0 8 4 15 9 15 9 0 96 85 139
135 12 15 22 34 22 44 0 22 19 41 40 41 9 0 25 9 35 20 10 11 22 20 27 20 16
0 58 52 58 71 0 13 6 18 22 16 17 -1 24 4 26 21 2 15 10 22 27 22 14 0 29 10
40 28 10 15 31 40 47 55 23 21 29 33 24 52 -4 14 -1 27 6 32 21 13 50 73 44
89 -4 10 -22 14 -65 14 -57 0 -61 -1 -95 -42z"/>
<path d="M4126 5665 c-8 -8 -21 -15 -30 -15 -8 0 -16 -10 -18 -22 -2 -15 -13
-25 -33 -31 -21 -6 -36 -20 -49 -47 -10 -21 -31 -47 -47 -59 -16 -12 -29 -26
-29 -32 0 -6 -28 -39 -62 -73 -35 -34 -85 -87 -111 -118 -27 -31 -60 -61 -73
-68 -14 -8 -24 -22 -24 -35 0 -12 -20 -40 -45 -65 -25 -24 -45 -52 -45 -62 0
-10 -5 -18 -11 -18 -12 0 -130 -119 -168 -170 -14 -19 -34 -41 -44 -48 -10 -8
-16 -19 -15 -26 2 -6 -16 -28 -39 -49 -26 -24 -39 -44 -37 -55 3 -11 -6 -22
-28 -33 -18 -9 -33 -23 -33 -31 0 -9 -23 -38 -50 -65 -28 -26 -56 -61 -64 -76
-8 -15 -23 -27 -33 -27 -11 0 -18 -7 -18 -20 0 -11 -4 -20 -10 -20 -5 0 -18
-17 -29 -37 -10 -21 -28 -47 -40 -57 -12 -11 -21 -27 -21 -37 0 -19 -44 -59
-65 -59 -12 0 -35 -41 -35 -63 0 -7 -9 -18 -20 -25 -11 -7 -20 -21 -20 -32 0
-11 -4 -20 -8 -20 -5 0 -14 -11 -22 -24 -11 -21 -10 -27 10 -48 l21 -23 26 30
c14 17 50 56 79 89 30 32 54 61 54 65 1 10 35 45 55 57 11 6 22 20 24 30 5 29
33 56 52 51 28 -7 59 21 59 52 0 20 13 42 43 72 23 24 49 53 57 64 9 11 24 25
35 31 11 6 20 20 20 31 1 10 10 28 20 40 11 12 26 30 34 40 8 10 27 32 43 49
16 17 30 38 32 45 2 17 64 83 90 97 11 5 24 25 30 43 8 26 19 36 44 44 20 5
32 16 32 26 0 9 7 19 15 23 8 3 15 12 15 21 0 8 5 15 10 15 6 0 10 6 10 13 1
24 51 70 78 71 24 1 27 6 30 39 2 22 8 37 16 37 7 0 26 13 42 30 16 16 34 30
40 30 6 0 18 16 27 35 9 19 23 35 32 35 8 0 15 9 15 20 0 28 85 110 114 110 8
0 20 16 27 35 7 19 16 35 20 35 11 0 84 73 102 102 11 18 13 29 6 34 -6 3 -8
15 -6 26 4 14 -1 22 -19 29 -34 12 -40 12 -58 -6z"/>
<path d="M6545 5479 c-20 -11 -57 -46 -222 -208 -46 -45 -88 -81 -94 -81 -18
0 -39 -28 -33 -44 4 -11 0 -13 -15 -9 -15 4 -21 1 -21 -11 0 -8 -11 -23 -25
-32 -14 -9 -25 -21 -25 -26 0 -13 -60 -66 -82 -74 -10 -3 -18 -10 -18 -15 0
-5 -38 -48 -85 -94 -47 -47 -85 -86 -85 -88 0 -6 -89 -104 -151 -166 -38 -38
-72 -82 -80 -103 -7 -21 -18 -38 -24 -38 -6 0 -18 -8 -27 -17 -32 -36 -98 -93
-107 -93 -5 0 -12 -11 -15 -25 -4 -16 -13 -25 -26 -25 -11 0 -20 -5 -20 -11 0
-6 -16 -29 -36 -51 -20 -22 -40 -53 -46 -68 -6 -18 -15 -27 -23 -23 -9 3 -17
-5 -21 -21 -3 -14 -25 -42 -48 -61 -58 -50 -64 -55 -74 -55 -6 0 -12 -9 -15
-20 -3 -11 -19 -25 -36 -31 -20 -7 -31 -18 -31 -30 0 -11 -7 -22 -17 -26 -20
-8 -88 -82 -88 -97 0 -6 17 -13 38 -17 34 -5 40 -3 49 17 6 13 18 24 27 24 24
1 85 41 115 78 15 17 36 32 47 32 10 0 19 5 19 10 0 6 20 31 45 58 25 26 45
53 45 60 0 7 9 16 20 20 18 7 82 77 147 164 15 20 40 44 56 53 15 9 27 22 27
29 0 7 18 25 40 42 22 16 40 34 40 40 0 14 63 74 78 74 7 0 12 4 12 10 0 13
86 100 99 100 6 0 11 6 11 14 0 12 120 139 213 225 20 18 39 42 42 52 4 10 13
19 20 19 8 0 33 27 55 60 33 48 46 60 68 60 19 0 43 16 82 55 72 72 90 93 90
105 0 5 11 12 24 16 13 3 28 16 35 30 6 13 17 24 26 24 8 0 15 7 15 14 0 8 16
27 36 42 20 16 40 37 45 48 6 12 16 32 24 46 13 22 13 26 -2 38 -20 15 -71 15
-98 1z"/>
<path d="M6382 4922 c2 -63 -5 -82 -28 -82 -8 0 -14 -7 -14 -15 0 -8 -6 -15
-13 -15 -7 0 -26 -13 -42 -30 -16 -16 -35 -30 -42 -30 -7 0 -13 -7 -13 -15 0
-9 -7 -18 -15 -21 -8 -4 -15 -10 -15 -16 0 -5 -27 -34 -60 -65 -33 -30 -60
-61 -60 -69 0 -8 -3 -14 -7 -14 -5 0 -28 -19 -53 -41 -25 -22 -55 -42 -67 -45
-13 -4 -23 -10 -23 -15 0 -10 -90 -109 -100 -109 -10 0 -80 -67 -80 -77 0 -4
-22 -27 -49 -50 -26 -23 -56 -61 -66 -83 -10 -22 -23 -40 -29 -40 -6 0 -17
-14 -24 -30 -8 -17 -27 -44 -44 -60 -16 -17 -27 -30 -24 -30 11 0 -50 -57 -67
-63 -14 -5 -17 -13 -11 -29 19 -61 58 -51 142 36 40 41 79 76 87 80 8 3 15 15
15 26 0 11 7 23 15 26 8 4 15 12 15 20 0 8 7 14 15 14 8 0 15 5 15 10 0 6 6
10 14 10 8 0 17 11 20 25 5 18 15 27 35 31 16 3 38 19 50 35 12 16 27 29 33
29 13 0 78 68 78 81 0 5 4 9 9 9 6 0 18 14 28 31 11 18 29 33 45 36 14 3 46
23 70 45 23 22 53 47 66 55 12 9 22 26 22 39 0 15 7 27 18 30 34 11 48 22 91
75 24 30 54 60 67 67 13 7 24 19 24 27 0 8 9 15 20 15 11 0 20 4 20 10 0 5 15
27 34 47 18 21 37 53 41 71 3 17 13 32 20 32 16 0 9 34 -11 50 -12 11 -114 39
-141 40 -9 0 -12 -18 -11 -58z"/>
<path d="M6474 4640 c-15 -6 -28 -30 -44 -79 -12 -38 -31 -78 -41 -87 -10 -9
-19 -23 -19 -31 0 -7 -9 -21 -20 -30 -11 -10 -20 -21 -20 -25 0 -13 -69 -109
-111 -155 -22 -24 -39 -47 -39 -53 0 -5 -31 -41 -70 -80 -38 -39 -70 -74 -70
-80 0 -5 -16 -22 -35 -37 -58 -46 -39 -89 28 -63 17 7 46 27 63 44 17 17 43
40 57 50 15 10 27 25 27 32 0 8 6 14 13 14 17 0 97 76 97 92 0 7 14 24 30 38
17 14 30 29 30 34 0 5 11 20 25 35 58 60 65 69 65 77 0 5 20 28 45 52 25 24
45 52 45 62 0 11 14 29 30 42 19 14 30 31 30 46 0 13 7 36 16 52 27 45 14 60
-53 59 -32 0 -67 -4 -79 -9z"/>
<path d="M6474 4146 c-12 -9 -24 -30 -27 -49 -5 -30 -56 -96 -75 -97 -4 -1
-20 -19 -37 -42 -16 -22 -49 -60 -72 -84 -38 -38 -42 -47 -36 -76 12 -65 34
-73 79 -30 16 16 45 38 64 50 19 12 55 42 79 67 24 25 53 45 63 45 10 0 18 6
18 13 0 8 9 22 20 32 11 10 20 31 20 46 0 15 5 31 10 34 6 3 10 24 10 45 0 41
-2 42 -65 54 -19 4 -38 1 -51 -8z"/>
<path d="M6185 3710 c-8 -13 -101 -20 -340 -25 -126 -2 -252 -9 -280 -16 -96
-21 -231 -31 -450 -33 -294 -3 -774 -15 -855 -21 -36 -3 -71 -1 -77 3 -7 4
-75 2 -150 -5 -76 -6 -188 -12 -249 -13 -61 0 -114 -3 -118 -7 -7 -8 -220 -16
-346 -13 -33 1 -129 -6 -140 -10 -3 -1 -43 -3 -90 -4 -47 -1 -121 -8 -166 -14
-50 -7 -146 -8 -255 -4 -216 7 -223 7 -282 -8 -42 -10 -51 -10 -66 4 -19 17
-41 21 -41 7 0 -5 -9 -11 -20 -14 -13 -3 -20 -13 -20 -29 1 -32 51 -55 107
-47 24 3 47 1 52 -4 5 -5 17 -7 27 -5 10 2 27 -5 36 -14 22 -22 46 -23 87 -2
17 9 63 20 102 26 59 8 74 7 88 -6 17 -16 47 -14 88 6 17 9 27 6 49 -11 32
-25 77 -27 119 -5 18 9 43 13 65 10 19 -3 101 -8 183 -12 110 -5 151 -3 162 6
8 7 44 15 80 18 36 2 65 9 65 14 0 5 10 2 22 -6 28 -20 256 -23 291 -4 28 14
90 12 125 -5 15 -8 66 -15 119 -16 78 -2 94 0 110 16 16 16 37 19 143 21 68 1
141 -3 160 -8 28 -7 57 -5 122 9 57 12 91 15 102 9 23 -13 350 -6 365 7 2 2
10 -2 17 -10 19 -19 128 -28 194 -15 111 21 198 30 322 35 105 4 142 2 214
-15 70 -17 104 -19 175 -14 69 5 89 4 89 -6 0 -10 3 -10 14 -1 25 21 131 31
366 37 124 3 232 6 240 6 14 1 116 -20 181 -37 17 -4 31 -1 40 7 8 8 21 17 31
20 13 5 15 15 11 50 -8 59 -20 81 -44 75 -10 -3 -22 -1 -25 4 -3 5 -13 9 -22
9 -9 0 -30 7 -46 15 -21 11 -32 12 -42 4 -16 -14 -60 -15 -189 -4 -55 4 -107
13 -115 20 -8 7 -25 16 -37 19 -38 12 -122 15 -128 5 -8 -12 -91 -12 -132 0
-18 5 -35 6 -38 1z"/>
<path d="M6481 3341 c-33 -31 -41 -74 -22 -124 12 -32 98 -49 117 -23 6 9 17
16 25 16 19 0 59 44 59 64 0 26 -28 74 -49 86 -39 20 -97 12 -130 -19z"/>
<path d="M6005 3332 c-16 -11 -45 -72 -45 -92 0 -25 37 -50 75 -50 56 0 103
57 60 73 -8 4 -21 22 -29 42 -15 34 -38 44 -61 27z"/>
<path d="M1774 3300 c-10 -12 -38 -34 -62 -51 -23 -16 -47 -40 -52 -53 -4 -13
-18 -26 -30 -29 -12 -3 -19 -10 -16 -16 9 -13 -92 -124 -118 -131 -12 -3 -22
-15 -24 -27 -2 -12 -28 -46 -58 -77 -30 -31 -54 -59 -54 -62 0 -14 -53 -73
-61 -68 -5 3 -9 0 -9 -6 0 -6 -5 -8 -10 -5 -6 3 -13 -2 -17 -12 -3 -10 -12
-22 -20 -26 -7 -4 -13 -13 -13 -20 0 -7 -14 -28 -30 -47 -16 -19 -30 -39 -30
-44 0 -5 -2 -7 -5 -4 -8 7 -155 -143 -155 -158 0 -7 -9 -18 -20 -24 -11 -6
-20 -17 -20 -24 0 -7 -11 -35 -25 -62 -20 -38 -26 -68 -29 -136 -4 -82 -3 -88
15 -88 10 0 33 14 51 30 17 17 43 33 57 36 48 10 52 14 68 51 14 36 47 73 64
73 4 0 19 24 34 54 15 31 36 58 51 65 37 17 94 64 94 79 0 6 5 12 10 12 6 0
10 8 10 18 1 25 35 62 58 62 28 0 52 32 52 68 0 18 5 32 10 32 6 0 10 7 10 15
0 34 48 89 78 90 12 0 112 104 112 117 0 10 59 67 81 78 10 6 22 22 25 35 4
15 13 25 24 25 10 0 27 11 38 25 11 14 22 25 25 25 3 0 17 11 31 24 27 24 33
50 16 61 -6 4 -6 15 1 32 13 34 3 43 -49 45 -26 1 -48 8 -58 20 -21 23 -26 23
-50 -2z"/>
<path d="M2615 3261 c-70 -14 -90 -50 -60 -107 25 -50 93 -61 115 -19 10 19
21 25 46 25 28 0 35 5 40 26 7 27 -7 44 -37 44 -9 0 -24 9 -34 20 -19 21 -21
21 -70 11z"/>
<path d="M6345 3229 c-10 -15 3 -25 16 -12 7 7 7 13 1 17 -6 3 -14 1 -17 -5z"/>
<path d="M7263 3218 c-24 -14 -33 -27 -33 -46 0 -14 -11 -38 -26 -53 -45 -47
-10 -105 43 -71 12 8 28 12 35 9 8 -4 5 -8 -9 -12 -15 -5 -23 -15 -23 -29 0
-14 -11 -28 -31 -40 -17 -10 -35 -29 -41 -42 -6 -13 -19 -26 -30 -29 -10 -4
-18 -10 -18 -15 0 -5 -19 -32 -42 -59 -24 -28 -56 -68 -73 -90 -16 -22 -45
-57 -63 -78 -17 -21 -39 -53 -47 -70 -9 -18 -23 -33 -31 -33 -9 0 -18 -8 -21
-18 -2 -10 -14 -22 -26 -27 -12 -6 -23 -20 -25 -31 -4 -25 -55 -84 -94 -109
-16 -9 -28 -26 -28 -36 0 -10 -8 -24 -19 -31 -10 -7 -20 -22 -22 -33 -2 -11
-14 -24 -27 -30 -12 -5 -28 -23 -36 -40 -20 -41 -73 -87 -105 -91 -58 -6 -70
-15 -79 -58 -5 -23 -5 -46 0 -52 5 -7 3 -14 -6 -17 -19 -8 -735 0 -814 9 -34
4 -65 11 -68 15 -3 5 -30 9 -59 9 -47 0 -57 3 -71 26 -35 52 -107 68 -167 37
-45 -23 -125 -43 -174 -43 -23 0 -44 -4 -47 -9 -6 -10 -126 -25 -201 -25 -27
0 -157 4 -287 9 -215 7 -240 6 -256 -8 -16 -15 -21 -15 -38 -2 -23 18 -135 20
-152 3 -9 -9 -36 -8 -114 1 -112 14 -147 27 -163 61 -9 19 -17 21 -75 19 -36
-1 -73 1 -83 6 -9 4 -34 4 -55 0 -20 -4 -103 -9 -184 -11 -81 -2 -197 -8 -258
-14 -95 -9 -176 -12 -320 -11 -14 0 -78 2 -143 6 -73 3 -134 1 -159 -6 -45
-12 -58 -3 -58 37 0 15 -12 27 -38 40 -34 16 -46 16 -147 4 -96 -11 -159 -16
-415 -34 -30 -2 -107 -9 -170 -14 -63 -6 -116 -9 -118 -7 -2 2 -14 0 -26 -5
-38 -14 -251 -17 -251 -3 0 21 -44 45 -70 39 -14 -4 -41 -23 -61 -43 -36 -36
-40 -37 -116 -39 -50 -1 -87 -7 -101 -17 -13 -9 -29 -12 -38 -7 -8 4 -44 10
-81 13 -67 6 -68 6 -93 -27 -31 -40 -31 -56 -2 -77 25 -18 127 -35 127 -20 0
27 117 30 138 3 14 -18 99 -27 117 -12 12 9 160 31 255 37 36 3 71 9 77 15 8
6 24 7 40 3 35 -10 74 -6 91 8 36 29 155 -6 211 -62 22 -22 29 -23 94 -17 44
4 78 13 89 23 11 10 18 12 18 5 0 -8 29 -12 93 -12 80 0 95 3 110 20 19 22 66
27 85 8 9 -9 25 -8 67 1 42 10 63 10 90 1 29 -9 41 -9 66 4 37 18 79 21 79 5
0 -7 14 -9 43 -5 109 17 166 2 167 -45 0 -39 36 -46 215 -42 94 3 181 4 195 3
33 -2 35 -2 108 12 50 9 70 9 98 -1 28 -10 38 -10 50 0 12 9 20 9 42 -2 19
-10 72 -14 189 -14 90 0 163 2 163 5 0 3 33 7 72 9 40 1 78 7 84 12 6 5 35 7
65 3 30 -3 99 -4 154 -3 55 1 128 1 163 1 34 0 62 4 62 10 0 5 19 6 46 2 37
-5 45 -4 39 6 -6 10 -1 11 21 5 16 -4 72 -9 124 -10 101 -1 206 -12 222 -22 6
-3 13 0 17 6 6 9 15 9 35 1 15 -5 49 -8 74 -5 26 3 54 5 62 5 8 -1 60 -2 115
-3 55 -2 108 -7 118 -11 12 -5 28 -4 43 5 20 10 31 10 58 1 23 -9 42 -9 59 -3
13 5 152 10 308 10 156 0 300 0 319 0 19 0 59 3 88 6 34 4 52 3 52 -4 0 -6 11
-11 25 -11 26 0 35 -26 16 -45 -5 -6 -11 -24 -12 -41 -4 -35 19 -64 50 -64 12
0 21 -4 21 -10 0 -15 37 -12 70 5 17 9 33 15 37 14 7 -2 15 10 28 41 13 32 34
63 65 95 26 27 38 33 60 28 20 -3 37 2 59 18 29 22 43 59 21 59 -5 0 -10 17
-10 38 0 31 6 41 33 60 18 12 42 22 53 22 28 0 64 41 64 73 0 25 30 67 48 67
4 0 22 23 40 50 18 28 64 81 102 117 67 65 69 69 63 106 -4 28 -2 41 10 50 8
7 17 21 19 32 2 15 12 20 38 21 20 1 36 7 39 15 8 24 114 119 133 119 12 0 10
38 -2 45 -16 10 -11 45 10 72 11 14 20 31 20 38 0 6 11 21 25 33 14 12 25 29
25 37 0 8 4 15 10 15 5 0 16 12 24 27 12 24 12 31 -1 56 -8 16 -13 31 -10 33
2 2 24 5 49 6 l46 2 12 54 c15 69 8 76 -75 77 -36 1 -71 7 -77 13 -17 17 -58
13 -95 -10z"/>
<path d="M2258 3218 c-30 -10 -38 -42 -13 -52 8 -3 12 -12 9 -20 -3 -8 3 -19
15 -26 12 -6 21 -17 21 -25 0 -8 7 -15 15 -15 8 0 15 -4 15 -8 0 -9 96 1 106
11 14 14 -16 85 -44 103 -68 46 -79 49 -124 32z"/>
<path d="M2953 3222 c-6 -4 -14 -19 -18 -34 -6 -24 -3 -29 21 -39 16 -6 39
-16 51 -22 29 -13 73 5 73 31 0 29 -52 72 -86 72 -16 0 -34 -4 -41 -8z"/>
<path d="M5739 2976 c-2 -2 -65 -7 -139 -10 -74 -3 -218 -12 -320 -20 -114 -9
-193 -10 -208 -5 -13 5 -29 6 -35 2 -6 -4 -72 -8 -147 -8 -396 -5 -866 -18
-880 -24 -12 -6 -549 -6 -638 0 -13 0 -31 -6 -40 -14 -11 -10 -38 -16 -77 -16
-34 0 -92 -5 -130 -11 -37 -6 -111 -11 -164 -10 -150 1 -372 -10 -411 -21 -19
-5 -101 -12 -182 -16 -131 -5 -150 -4 -167 11 -21 19 -71 13 -71 -9 0 -16 -83
-37 -156 -39 -65 -2 -96 -24 -76 -56 6 -11 12 -31 12 -44 0 -14 8 -31 18 -38
12 -9 18 -29 19 -68 4 -75 7 -80 52 -80 32 0 43 5 60 29 12 16 21 36 21 44 0
8 -26 29 -57 46 l-58 32 48 -5 c37 -4 49 -2 53 9 8 19 30 19 38 0 7 -19 70
-13 95 9 10 9 29 16 43 16 13 0 28 3 32 7 4 5 33 9 64 9 78 2 113 8 138 24 34
21 105 -16 135 -71 28 -50 68 -71 99 -51 11 7 25 12 32 12 8 0 14 16 15 41 2
32 -2 45 -20 60 -12 10 -18 18 -14 19 5 0 16 -7 25 -16 10 -11 17 -13 20 -5 2
6 14 11 26 11 12 0 27 5 32 10 11 11 32 12 225 11 74 0 182 4 239 9 58 5 117
6 132 3 15 -3 34 -1 40 4 7 5 42 10 78 12 36 2 70 7 75 11 11 8 129 -10 141
-22 13 -13 24 -9 18 7 -5 13 10 15 109 13 116 -3 140 -9 120 -29 -12 -12 -48
-15 -223 -24 -123 -6 -152 -20 -143 -70 4 -24 15 -35 54 -53 41 -20 59 -23
107 -18 31 4 80 6 108 6 34 -1 55 4 64 15 13 16 50 21 50 6 0 -20 56 -20 189
-1 95 14 186 20 283 19 79 -1 173 4 210 10 62 10 99 12 225 11 23 0 44 4 48
10 3 5 21 10 38 10 35 0 107 43 107 63 0 10 -52 12 -232 10 -128 -1 -237 -3
-243 -4 -5 0 -81 0 -167 1 -157 2 -171 5 -150 36 11 16 127 32 179 24 26 -4
60 -4 75 1 15 4 28 5 28 1 0 -10 188 -5 290 7 49 5 91 6 101 1 10 -6 48 -4 95
3 47 7 127 10 199 7 66 -3 123 -2 126 2 3 5 70 10 149 12 124 3 146 1 156 -13
10 -13 17 -14 46 -4 18 7 52 15 76 19 l42 7 0 44 c0 63 -32 93 -98 93 -27 0
-51 -2 -53 -4z m-1464 -226 c3 -5 -1 -10 -9 -10 -9 0 -16 5 -16 10 0 6 4 10 9
10 6 0 13 -4 16 -10z"/>
<path d="M5924 2769 c-4 -7 -23 -9 -51 -5 -25 3 -53 1 -64 -5 -20 -10 -60 -12
-209 -6 l-85 3 -37 -38 c-43 -44 -41 -68 8 -94 19 -10 34 -24 34 -31 0 -28 38
-28 270 -3 58 6 137 9 175 5 89 -8 110 5 108 64 -2 53 -7 59 -58 81 -24 10
-46 23 -49 29 -9 14 -33 14 -42 0z"/>
<path d="M3856 2442 c-2 -2 -19 -6 -38 -8 -18 -3 -48 -10 -66 -15 -18 -6 -54
-8 -80 -5 -26 3 -99 2 -162 -2 -63 -4 -141 -3 -173 2 -39 6 -65 5 -80 -2 -12
-6 -33 -13 -47 -16 -18 -4 -30 -16 -39 -42 -12 -34 -12 -37 16 -63 52 -52 68
-55 213 -54 79 1 136 6 138 12 2 6 17 4 38 -5 21 -9 44 -12 57 -8 12 4 34 7
49 5 14 -1 29 2 33 8 9 16 44 13 107 -9 82 -29 191 -37 221 -17 16 10 29 12
38 6 8 -5 31 -8 51 -7 20 1 44 -4 52 -11 11 -9 29 -11 54 -7 21 3 55 1 77 -5
29 -8 40 -8 43 0 9 27 41 32 81 11 22 -11 42 -16 45 -12 3 5 51 9 107 10 84 1
107 4 128 20 34 25 37 54 10 91 -34 47 -77 65 -140 58 -30 -2 -90 1 -134 9
-44 8 -113 14 -153 14 -66 0 -75 3 -97 26 -19 20 -30 25 -52 20 -31 -6 -160
-8 -241 -3 -29 2 -54 1 -56 -1z"/>
<path d="M760 2080 c0 -5 4 -10 9 -10 6 0 13 5 16 10 3 6 -1 10 -9 10 -9 0
-16 -4 -16 -10z"/>
</g>
</svg>
