<?xml version="1.0" standalone="no"?>
<!DOCTYPE svg PUBLIC "-//W3C//DTD SVG 20010904//EN"
 "http://www.w3.org/TR/2001/REC-SVG-20010904/DTD/svg10.dtd">
<svg version="1.0" xmlns="http://www.w3.org/2000/svg"
 width="600.000000pt" height="600.000000pt" viewBox="0 0 600.000000 600.000000"
 preserveAspectRatio="xMidYMid meet">
<metadata>
Created by potrace 1.16, written by Peter Selinger 2001-2019
</metadata>
<g transform="translate(0.000000,600.000000) scale(0.100000,-0.100000)"
fill="#000000" stroke="none">
<path d="M2160 4210 c-8 -5 -27 -8 -41 -5 -18 4 -31 0 -44 -15 -10 -11 -26
-20 -35 -20 -24 0 -40 -20 -40 -51 0 -32 -12 -38 -58 -31 l-32 5 4 -69 c2 -38
5 -72 5 -76 1 -3 23 -22 50 -42 l50 -35 -3 -67 c-1 -51 -6 -69 -20 -80 -10 -7
-29 -37 -43 -66 -27 -58 -31 -125 -15 -233 9 -56 8 -126 -3 -185 -9 -54 -26
-189 -31 -265 -3 -44 -11 -89 -17 -100 -5 -11 -11 -34 -13 -52 -2 -18 -10 -50
-20 -70 -28 -65 -31 -76 -47 -163 -9 -50 -16 -146 -16 -233 0 -82 -6 -167 -12
-190 -17 -65 -14 -194 6 -251 14 -41 15 -53 4 -72 -13 -26 -16 -18 47 -149 27
-56 31 -60 59 -56 62 8 250 1 272 -10 16 -9 29 -9 54 0 51 17 76 13 112 -19
39 -34 60 -36 169 -19 51 8 73 8 81 0 17 -17 58 -13 80 6 12 12 38 19 71 20
204 8 348 9 352 1 7 -11 91 -10 99 1 8 14 71 20 260 25 104 3 176 1 188 -6 14
-7 29 -6 56 6 30 14 51 15 126 8 58 -6 94 -6 103 1 7 6 37 7 75 2 69 -8 64 -8
196 -1 52 3 147 -1 210 -8 80 -10 133 -11 171 -5 30 5 80 9 110 7 30 -1 65 1
77 5 14 5 34 1 60 -13 41 -22 68 -26 78 -10 7 12 116 13 166 1 20 -5 43 -5 51
0 9 5 49 0 99 -12 57 -14 99 -18 130 -14 51 7 89 -8 89 -35 0 -19 19 -40 37
-40 7 0 21 8 31 18 27 24 53 38 89 46 40 9 55 27 64 79 15 86 21 102 55 149
l34 49 -12 133 c-10 111 -9 141 2 175 12 38 12 45 -6 79 -19 34 -19 45 -10
147 6 61 15 116 19 123 5 8 3 22 -7 36 -12 19 -14 49 -11 154 3 76 9 139 16
150 9 15 9 28 -3 63 -13 37 -14 72 -6 209 8 160 20 238 54 371 9 35 19 85 21
111 4 42 11 53 55 93 l51 46 -22 22 c-11 13 -21 31 -21 40 0 24 -40 67 -63 67
-11 0 -36 12 -56 28 -38 28 -162 62 -256 68 -98 6 -240 26 -256 35 -10 5 -32
9 -50 9 -44 0 -162 21 -173 32 -6 4 -42 8 -80 8 -39 0 -107 7 -151 15 -44 9
-116 16 -160 16 -125 0 -210 8 -213 19 -2 5 -31 10 -65 10 -34 0 -92 8 -129
17 -57 15 -76 15 -126 5 -71 -15 -184 -16 -249 -2 -26 5 -151 12 -278 14 -126
3 -240 5 -252 6 -12 0 -25 5 -28 10 -3 6 -21 10 -38 10 -18 0 -43 7 -55 16
-16 11 -33 14 -55 9 -74 -15 -146 -20 -202 -12 -87 11 -414 2 -428 -12 -13
-13 -57 -14 -114 -1 -23 5 -63 12 -90 15 -26 3 -64 7 -83 10 -19 3 -42 1 -50
-5z m838 -310 c39 -19 44 -19 67 -4 18 11 35 14 58 10 17 -4 97 -9 177 -12 80
-3 161 -9 180 -14 19 -6 69 -10 110 -10 41 0 102 -4 135 -10 33 -5 112 -10
175 -12 69 -1 123 -7 135 -14 43 -27 115 -43 215 -49 58 -3 119 -8 136 -11 20
-4 44 0 64 11 24 12 39 14 54 7 12 -5 55 -10 96 -11 41 0 107 -6 145 -11 154
-22 342 -43 378 -42 23 1 40 -4 43 -11 9 -26 -14 -64 -48 -77 -18 -8 -63 -44
-99 -82 -36 -37 -73 -68 -81 -68 -17 0 -78 -64 -78 -81 0 -6 -6 -9 -14 -6 -18
7 -46 -24 -46 -51 0 -12 -5 -22 -10 -22 -6 0 -20 -11 -31 -24 -12 -13 -33 -27
-48 -31 -45 -11 -151 -66 -151 -79 0 -7 -20 -26 -45 -44 -25 -18 -50 -43 -55
-57 -6 -17 -17 -25 -32 -25 -27 0 -47 38 -53 101 -3 24 -9 47 -15 53 -5 5 -10
19 -10 31 0 25 -36 85 -51 85 -6 0 -27 14 -46 30 -41 36 -85 39 -142 9 -37
-19 -40 -24 -44 -72 -10 -98 -17 -146 -27 -171 -5 -14 -7 -32 -4 -39 3 -8 -7
-22 -21 -31 -21 -14 -29 -15 -41 -5 -7 6 -24 9 -35 6 -32 -9 -183 15 -192 30
-4 7 -14 13 -22 13 -8 0 -20 9 -27 20 -7 11 -21 20 -31 20 -11 0 -30 9 -44 20
-14 11 -32 20 -41 20 -8 0 -41 18 -74 40 -33 22 -66 40 -74 40 -7 0 -28 9 -46
20 -27 17 -43 19 -91 14 -53 -6 -61 -4 -95 22 -20 16 -54 38 -75 48 -21 11
-43 29 -49 40 -14 26 -32 40 -83 65 -43 21 -135 102 -135 120 0 6 -4 11 -9 11
-5 0 -26 16 -47 35 -20 19 -40 35 -44 35 -5 0 -28 16 -52 36 -23 20 -60 48
-81 61 -21 13 -43 35 -50 50 -10 23 -8 28 18 49 17 13 40 24 52 24 12 0 25 5
28 10 4 6 63 10 144 10 117 0 143 -3 179 -20z m-644 -251 c12 -43 15 -47 26
-29 7 11 16 8 50 -15 23 -16 50 -34 60 -40 53 -32 100 -66 100 -75 0 -5 25
-28 55 -51 39 -30 55 -48 55 -65 0 -22 2 -23 25 -12 24 11 28 8 58 -28 31 -38
63 -70 127 -126 17 -16 42 -28 56 -28 16 0 27 -8 33 -22 12 -31 122 -88 169
-88 20 0 52 -9 70 -20 18 -11 44 -20 57 -20 17 0 47 -21 94 -65 37 -36 75 -65
83 -65 32 0 76 -22 87 -43 12 -24 27 -47 84 -129 48 -71 50 -116 7 -160 -16
-16 -30 -37 -30 -46 0 -9 -7 -48 -17 -86 -15 -65 -15 -72 0 -117 9 -25 17 -56
17 -67 0 -26 9 -29 82 -22 57 6 63 9 100 53 22 26 46 47 54 47 7 0 19 10 25
23 15 27 110 117 124 116 6 0 21 -6 35 -14 14 -8 36 -15 50 -15 54 -1 142 -45
203 -102 18 -16 51 -40 73 -54 24 -14 47 -38 54 -55 18 -42 47 -59 101 -59 35
0 54 6 81 28 66 52 108 97 108 114 0 23 -40 128 -48 128 -17 0 -82 168 -82
210 0 19 105 70 143 70 15 0 45 11 66 25 30 18 38 29 34 45 -4 16 -1 20 20 20
16 0 31 9 42 26 15 23 15 32 5 70 -7 25 -17 47 -21 50 -15 9 -10 44 6 44 9 0
18 6 21 14 3 8 15 16 26 19 18 5 20 11 15 41 -5 30 -3 36 13 36 10 0 21 7 24
15 3 9 22 23 43 31 50 21 123 98 123 129 0 25 14 33 25 15 9 -14 25 -2 25 18
0 11 16 24 39 34 22 10 52 33 68 53 15 20 47 46 71 58 24 12 48 29 53 39 15
28 55 23 68 -9 13 -33 19 -203 7 -221 -14 -23 -15 -346 -1 -413 9 -43 10 -68
3 -76 -6 -7 -7 -24 -4 -37 3 -14 2 -28 -4 -31 -7 -4 -6 -14 2 -28 19 -32 17
-375 -1 -387 -15 -8 -25 -85 -15 -102 11 -18 13 -137 2 -144 -6 -4 -7 -26 -3
-54 10 -76 4 -84 -62 -89 -73 -5 -102 -5 -238 -1 -60 2 -130 0 -155 -4 -33 -5
-55 -3 -84 9 -35 15 -40 15 -48 2 -6 -12 -14 -13 -38 -4 -16 6 -31 18 -32 26
-4 21 -48 22 -48 1 0 -26 -21 -40 -62 -40 -32 0 -45 7 -77 40 -35 36 -42 40
-89 40 -28 0 -54 -4 -57 -10 -3 -5 -21 -10 -38 -10 -18 0 -56 -8 -85 -19 -39
-13 -64 -16 -95 -10 -23 4 -46 5 -50 2 -5 -3 -68 -6 -140 -7 -97 -2 -140 -7
-162 -18 -17 -9 -42 -14 -57 -11 -17 3 -33 -1 -45 -14 -61 -58 -72 -63 -136
-63 -34 0 -77 4 -96 10 -23 6 -40 6 -55 -2 -19 -11 -48 -11 -231 -3 -77 3
-126 14 -145 31 -22 19 -138 34 -187 25 -23 -4 -63 -5 -90 -1 -26 5 -60 6 -75
3 -17 -3 -33 0 -43 11 -9 9 -24 16 -33 17 -9 0 -26 3 -37 6 -11 4 -47 5 -79 4
-35 -1 -68 4 -80 12 -28 18 -60 27 -121 33 -27 2 -74 7 -104 9 -29 3 -63 11
-75 17 -11 7 -43 15 -71 18 l-50 5 3 60 c1 33 4 92 5 130 2 39 9 107 16 153
12 72 17 85 40 99 53 33 91 76 86 97 -3 12 -2 15 1 9 10 -22 31 -14 43 15 11
28 5 102 -19 222 -26 131 -33 210 -29 348 1 26 0 101 -2 167 -3 101 -1 126 14
158 13 28 17 49 12 78 -10 59 2 115 28 127 31 15 40 10 51 -29z"/>
<path d="M663 4025 c-32 -22 -63 -78 -63 -113 0 -17 -4 -34 -10 -37 -21 -13
-10 -54 21 -77 17 -13 53 -44 81 -70 28 -27 58 -48 67 -48 23 -1 51 -27 101
-95 53 -70 58 -75 88 -75 15 0 29 -10 40 -30 14 -24 24 -30 51 -30 22 0 46
-11 74 -32 40 -32 44 -33 127 -30 108 4 134 18 127 70 -8 64 -31 106 -88 162
-97 95 -153 142 -185 156 -17 7 -47 33 -67 58 -21 25 -47 48 -60 51 -12 4 -38
22 -57 41 -29 28 -194 114 -218 114 -4 0 -17 -7 -29 -15z"/>
<path d="M228 3386 c-20 -18 -40 -44 -44 -60 -7 -29 16 -96 47 -131 10 -11 19
-33 21 -50 3 -26 8 -30 36 -33 24 -2 36 -10 44 -28 7 -15 20 -24 33 -24 13 0
38 -7 58 -15 23 -9 51 -12 84 -8 38 4 59 1 93 -16 24 -11 55 -21 69 -21 14 0
34 -7 44 -15 11 -7 28 -12 40 -9 12 2 52 -12 90 -32 61 -31 72 -34 100 -24 26
9 34 8 43 -5 16 -21 49 -19 106 7 l49 22 -4 94 c-6 142 -9 143 -269 177 -72
10 -129 22 -139 31 -9 8 -38 22 -65 31 -27 9 -62 24 -79 34 -40 23 -130 55
-180 64 -22 4 -63 15 -90 24 l-51 18 -36 -31z"/>
<path d="M877 2756 c-10 -8 -37 -17 -60 -20 -24 -4 -65 -18 -92 -32 -38 -19
-58 -23 -90 -19 -36 6 -43 3 -69 -24 -17 -17 -38 -31 -49 -31 -18 0 -65 -22
-97 -46 -8 -6 -42 -16 -75 -23 -33 -6 -72 -20 -87 -31 -15 -11 -31 -20 -35
-20 -5 0 -13 -15 -19 -32 -7 -18 -17 -47 -24 -64 -12 -27 -11 -36 9 -77 26
-54 36 -64 77 -70 17 -3 40 -11 53 -18 18 -12 26 -12 52 4 17 9 44 17 60 17
16 0 29 5 29 10 0 6 20 10 43 10 34 0 69 13 150 55 82 43 116 55 150 55 27 0
49 6 57 15 7 8 19 15 28 15 8 0 31 10 51 23 19 12 45 27 56 32 31 16 54 73 50
129 -2 26 -8 53 -14 59 -6 6 -11 20 -11 32 0 35 -22 53 -75 59 -35 4 -55 2
-68 -8z"/>
</g>
</svg>
