<?xml version="1.0" standalone="no"?>
<!DOCTYPE svg PUBLIC "-//W3C//DTD SVG 20010904//EN"
 "http://www.w3.org/TR/2001/REC-SVG-20010904/DTD/svg10.dtd">
<svg version="1.0" xmlns="http://www.w3.org/2000/svg"
 width="330.000000pt" height="557.000000pt" viewBox="0 0 330.000000 557.000000"
 preserveAspectRatio="xMidYMid meet">
<metadata>
Created by potrace 1.16, written by Peter Selinger 2001-2019
</metadata>
<g transform="translate(0.000000,557.000000) scale(0.100000,-0.100000)"
fill="#000000" stroke="none">
<path d="M1272 5403 c-12 -2 -33 -19 -47 -37 -24 -31 -25 -37 -16 -98 8 -58
53 -164 126 -298 8 -14 26 -55 41 -92 32 -76 62 -95 95 -59 10 11 27 22 38 26
24 7 34 62 36 210 1 111 -13 213 -35 254 -15 29 -47 61 -61 61 -6 0 -21 8 -34
18 -23 18 -92 25 -143 15z m137 -247 c6 -4 11 -20 11 -36 0 -43 -23 -28 -43
28 -23 63 -21 84 2 46 11 -18 24 -35 30 -38z"/>
<path d="M3035 4736 c-10 -7 -27 -11 -39 -9 -35 7 -112 -41 -175 -107 -31 -33
-62 -60 -67 -60 -11 0 -44 -36 -44 -49 0 -4 -14 -26 -31 -47 -48 -61 -62 -102
-47 -139 13 -33 32 -55 45 -55 7 0 142 67 228 114 17 9 38 16 47 16 30 0 99
42 108 66 5 12 17 25 27 28 21 7 73 77 73 98 0 8 7 23 15 34 8 10 15 38 15 61
0 47 1 46 -91 57 -30 3 -53 1 -64 -8z m25 -123 c0 -8 -10 -33 -22 -55 -16 -28
-27 -38 -41 -34 -10 2 -29 -6 -44 -20 -14 -13 -36 -24 -48 -24 -12 0 -39 -11
-59 -25 -43 -29 -46 -30 -46 -11 0 8 34 45 75 84 100 94 185 132 185 85z"/>
<path d="M1787 4478 c-12 -9 -20 -39 -28 -98 -5 -47 -17 -133 -26 -191 -12
-80 -13 -129 -7 -195 5 -49 9 -96 9 -104 0 -22 -32 -24 -39 -3 -4 10 -26 32
-49 50 -23 18 -57 46 -76 63 -56 52 -73 59 -111 52 -47 -10 -53 -47 -13 -84
15 -15 64 -62 109 -106 107 -106 164 -142 225 -142 29 0 51 6 59 15 7 8 18 15
25 15 7 0 18 6 24 13 6 8 30 19 53 26 24 7 67 26 97 42 30 16 62 29 72 29 9 0
22 7 29 15 7 8 18 15 25 15 20 0 55 49 55 76 0 38 -28 57 -74 50 -22 -4 -45
-11 -51 -15 -5 -5 -28 -14 -50 -21 -22 -7 -56 -24 -75 -36 -19 -13 -41 -24
-49 -24 -8 0 -22 -7 -31 -15 -16 -14 -17 -5 -23 127 -6 154 -5 168 12 303 l11
90 -36 33 c-39 36 -43 37 -67 20z"/>
<path d="M440 4423 c-8 -3 -28 -19 -43 -37 -28 -30 -29 -33 -22 -106 12 -129
43 -176 175 -263 115 -76 208 -102 256 -71 27 18 74 91 74 115 0 8 -9 32 -20
54 -11 22 -20 47 -20 57 0 10 -4 18 -10 18 -5 0 -10 7 -10 16 0 30 -40 82 -85
111 -25 15 -45 31 -45 35 0 4 -20 22 -44 41 -40 30 -50 33 -117 34 -41 1 -81
-1 -89 -4z m112 -104 c13 -6 41 -33 63 -60 44 -55 61 -72 88 -92 11 -7 21 -31
24 -56 l6 -43 -44 7 c-24 4 -51 10 -60 14 -29 11 -129 104 -129 120 0 9 -7 25
-15 35 -19 26 -19 51 1 70 18 19 35 20 66 5z"/>
<path d="M1800 3504 c-16 -5 -185 -22 -260 -28 -59 -4 -100 -21 -101 -43 -3
-35 3 -48 29 -70 34 -27 92 -36 143 -23 23 6 138 12 257 14 232 3 250 6 272
54 8 19 7 30 -5 48 -17 27 -14 26 -106 29 -37 1 -72 6 -79 10 -13 8 -126 15
-150 9z"/>
<path d="M735 3269 c-16 -3 -43 -14 -60 -23 -16 -9 -44 -16 -60 -16 -17 0 -39
-6 -50 -14 -11 -7 -45 -24 -75 -37 -30 -12 -75 -39 -100 -59 -25 -19 -65 -49
-89 -65 -23 -16 -47 -39 -51 -51 -5 -12 -13 -25 -19 -28 -5 -4 -17 -21 -26
-38 -20 -40 -6 -90 31 -107 50 -22 96 -13 209 43 92 45 121 65 176 123 36 37
78 85 93 106 15 20 32 37 39 38 7 0 26 18 44 39 27 35 30 43 20 64 -13 28 -38
35 -82 25z m-205 -196 c0 -17 -79 -76 -138 -104 -65 -30 -82 -35 -82 -21 0 14
83 82 108 88 12 4 39 15 59 25 40 20 53 23 53 12z"/>
<path d="M2542 3101 c-7 -4 -19 -25 -27 -47 -12 -35 -11 -41 6 -63 10 -13 19
-31 19 -40 1 -35 41 -134 67 -166 35 -42 103 -92 168 -125 28 -13 52 -27 55
-31 18 -23 145 -27 169 -5 10 9 21 16 25 16 4 0 14 7 22 15 13 13 13 20 0 57
-46 132 -110 210 -212 259 -34 16 -78 42 -98 58 -19 16 -54 31 -77 35 -23 4
-54 16 -69 26 -32 23 -31 22 -48 11z m8 -91 c0 -5 -2 -10 -4 -10 -3 0 -8 5
-11 10 -3 6 -1 10 4 10 6 0 11 -4 11 -10z m123 -61 c12 -7 32 -21 44 -33 11
-12 43 -32 69 -46 85 -44 139 -80 146 -98 29 -72 -15 -89 -109 -42 -53 27 -76
47 -128 113 -35 45 -66 89 -68 99 -6 21 13 24 46 7z"/>
<path d="M1586 2734 c-19 -20 -44 -57 -56 -82 -12 -26 -25 -54 -30 -62 -29
-60 -60 -196 -63 -271 -2 -83 15 -165 38 -181 17 -13 80 -9 112 7 42 21 121
107 129 142 4 15 13 37 20 48 7 11 17 50 22 86 12 78 0 153 -30 186 -14 15
-22 41 -25 86 -5 56 -9 66 -27 71 -41 11 -56 6 -90 -30z m49 -175 c39 -74 6
-266 -48 -280 -35 -10 -51 11 -44 58 13 85 31 153 42 153 7 0 10 11 7 29 -3
25 11 71 23 71 3 0 12 -14 20 -31z"/>
<path d="M888 2174 c-39 -13 -50 -21 -67 -58 -12 -23 -21 -62 -21 -87 0 -24
-5 -62 -10 -84 -13 -59 -25 -391 -23 -617 1 -109 -1 -198 -6 -198 -5 0 -25 13
-46 30 -21 16 -41 30 -45 30 -5 0 -34 15 -67 33 -32 18 -78 39 -103 47 -25 8
-54 19 -65 26 -12 7 -60 12 -116 13 -96 0 -96 0 -119 -31 -17 -23 -21 -38 -17
-65 9 -54 29 -75 100 -111 36 -18 78 -44 94 -58 41 -36 45 -38 80 -53 17 -7
46 -24 65 -37 18 -14 49 -29 70 -34 20 -6 50 -21 65 -34 16 -14 49 -27 75 -31
44 -7 47 -9 53 -44 6 -38 14 -113 19 -186 3 -39 10 -102 22 -193 3 -24 12 -62
20 -85 8 -23 17 -68 20 -100 2 -33 7 -63 10 -69 4 -5 14 -47 23 -91 l16 -82
58 -3 57 -3 0 38 c0 21 -5 56 -12 78 -6 22 -11 44 -9 49 3 11 -37 200 -54 256
-12 40 -18 86 -30 255 -2 28 -8 88 -14 135 -20 170 -30 650 -17 865 7 116 18
212 27 245 5 19 9 54 9 78 0 24 5 52 11 63 5 11 12 44 14 74 4 61 5 61 -67 39z
m-318 -1077 c19 -7 54 -25 77 -40 24 -15 47 -27 53 -27 5 0 10 -9 10 -20 0
-26 -3 -25 -48 5 -20 14 -41 25 -46 25 -14 0 -86 51 -86 61 0 11 -2 11 40 -4z"/>
</g>
</svg>
