<?xml version="1.0" standalone="no"?>
<!DOCTYPE svg PUBLIC "-//W3C//DTD SVG 20010904//EN"
 "http://www.w3.org/TR/2001/REC-SVG-20010904/DTD/svg10.dtd">
<svg version="1.0" xmlns="http://www.w3.org/2000/svg"
 width="400.000000pt" height="400.000000pt" viewBox="0 0 400.000000 400.000000"
 preserveAspectRatio="xMidYMid meet">
<metadata>
Created by potrace 1.16, written by Peter Selinger 2001-2019
</metadata>
<g transform="translate(0.000000,400.000000) scale(0.100000,-0.100000)"
fill="#000000" stroke="none">
<path d="M1578 3523 c-24 -15 -27 -24 -33 -102 -4 -47 -8 -141 -8 -209 l-2
-123 -55 -52 c-128 -121 -218 -264 -226 -360 -3 -29 -7 -61 -9 -71 -4 -17 18
-71 83 -203 9 -17 19 -30 24 -27 4 3 5 -2 2 -11 -4 -10 6 -33 25 -60 17 -24
31 -50 31 -57 0 -15 88 -141 102 -146 13 -6 98 -119 98 -132 0 -10 14 -31 35
-50 47 -43 94 -78 128 -95 36 -18 59 -44 83 -94 4 -7 2 -22 -4 -32 -15 -24 5
-97 29 -104 19 -6 44 -122 55 -255 4 -41 11 -84 17 -95 6 -11 16 -55 22 -97
11 -75 11 -79 -10 -98 l-22 -21 -59 20 c-32 12 -67 21 -79 21 -11 0 -33 9 -50
20 -16 11 -37 20 -46 20 -9 0 -22 7 -29 15 -7 8 -25 15 -40 15 -15 0 -33 6
-39 14 -6 7 -33 21 -59 31 -31 12 -66 37 -104 77 -32 33 -58 65 -58 70 0 6
-17 30 -39 53 -27 29 -41 55 -46 86 -5 29 -22 63 -51 100 -24 30 -44 60 -44
66 0 7 -11 20 -25 31 -14 11 -25 28 -25 38 0 29 -31 74 -104 150 -36 38 -66
74 -66 80 0 6 -39 50 -87 98 -64 63 -99 90 -128 98 -22 6 -44 15 -50 20 -5 4
-25 8 -45 8 -20 0 -52 11 -75 25 -34 21 -52 24 -127 25 -48 0 -90 -4 -93 -10
-3 -5 -14 -10 -24 -10 -27 0 -111 -99 -111 -132 0 -7 -12 -24 -26 -37 -19 -19
-24 -31 -19 -50 7 -32 59 -81 123 -118 26 -15 49 -31 50 -35 2 -4 12 -8 22 -8
10 0 22 -4 25 -10 3 -5 19 -10 34 -10 33 0 121 -54 121 -74 0 -8 20 -31 45
-52 25 -20 45 -42 45 -50 0 -7 17 -33 38 -58 20 -24 48 -61 62 -81 14 -20 33
-44 43 -53 9 -9 17 -21 17 -26 0 -6 18 -29 40 -51 22 -23 42 -52 45 -65 6 -31
42 -82 104 -150 28 -30 51 -60 51 -66 0 -6 12 -17 28 -25 15 -8 29 -17 32 -20
16 -20 120 -98 137 -103 12 -4 24 -13 27 -21 3 -8 14 -15 23 -15 10 0 27 -6
38 -14 11 -7 35 -17 53 -21 18 -4 45 -13 60 -21 15 -8 33 -14 40 -14 7 0 35
-11 62 -25 27 -14 58 -25 68 -25 10 0 40 -11 68 -24 27 -13 75 -27 107 -31 41
-5 64 -13 75 -27 9 -11 36 -29 60 -40 23 -11 42 -24 42 -29 0 -20 65 -8 90 16
17 17 41 27 70 30 29 3 52 13 71 31 27 26 28 31 22 88 -3 34 -10 66 -15 72 -5
7 -6 30 -2 53 6 35 3 46 -15 65 -19 20 -22 37 -26 143 -3 99 -8 127 -24 154
-12 19 -21 45 -21 60 0 14 -4 29 -9 35 -5 5 -12 36 -15 69 -3 33 -11 96 -17
140 -13 92 -14 120 -4 156 9 33 -36 109 -64 109 -10 0 -33 10 -52 23 -19 13
-42 26 -53 30 -28 11 -70 45 -154 124 -43 40 -80 76 -84 80 -3 4 -29 33 -57
64 -28 31 -51 61 -51 68 0 14 -32 59 -81 113 -24 26 -35 47 -32 59 4 13 -2 22
-22 29 -21 8 -26 15 -22 32 3 11 -1 34 -9 49 -16 32 -19 150 -4 177 5 9 19 39
30 65 12 26 27 50 35 53 8 3 19 21 25 40 7 20 23 40 38 48 15 8 37 28 50 45
16 22 31 31 51 31 73 0 124 48 99 94 -7 11 -13 28 -13 36 -1 8 -8 65 -15 127
-11 91 -11 115 0 127 20 25 40 19 105 -29 33 -24 86 -56 117 -72 32 -15 58
-34 58 -41 0 -38 134 -116 180 -105 14 3 43 17 65 31 47 30 103 36 310 36 110
0 165 -5 207 -17 31 -9 65 -17 76 -17 10 0 31 -9 45 -21 15 -11 70 -42 122
-69 53 -27 122 -65 153 -83 44 -27 65 -34 90 -30 17 3 32 9 32 13 0 4 21 13
48 20 26 6 61 22 77 35 37 28 102 48 111 34 3 -6 -6 -21 -20 -34 -14 -13 -26
-31 -26 -38 0 -8 -7 -18 -15 -21 -24 -9 -56 -86 -44 -107 5 -10 9 -26 9 -36 0
-10 14 -36 30 -57 17 -22 30 -50 30 -63 0 -13 11 -35 25 -49 22 -22 25 -33 25
-98 0 -40 6 -95 14 -122 22 -82 20 -120 -12 -177 -16 -29 -35 -70 -42 -92 -19
-63 -57 -122 -121 -188 -32 -33 -59 -64 -59 -69 0 -4 -6 -8 -14 -8 -7 0 -36
-25 -64 -55 -28 -30 -58 -55 -65 -55 -34 0 -107 -42 -111 -63 -17 -82 -17
-119 1 -139 27 -30 38 -149 33 -359 -1 -51 3 -95 10 -108 6 -12 11 -41 10 -64
-1 -23 -1 -76 -1 -118 1 -68 4 -80 26 -100 13 -13 25 -31 25 -40 0 -23 33 -49
63 -49 33 0 67 43 67 85 0 18 -7 68 -15 111 -15 80 -19 136 -30 394 -4 80 -11
157 -17 172 -8 21 -6 32 6 50 9 12 16 33 16 46 0 36 38 102 67 115 15 7 41 25
58 40 16 15 50 44 75 64 25 20 63 60 84 90 22 29 43 53 48 53 4 0 8 7 8 15 0
8 11 25 25 37 16 14 26 36 31 67 3 25 12 53 20 61 29 34 54 113 53 168 -1 63
-20 180 -32 199 -4 7 -8 34 -8 60 -1 48 -15 107 -32 130 -5 7 -6 21 -2 33 3
11 2 35 -3 53 -6 17 -13 55 -16 83 l-6 52 95 127 c52 70 95 133 94 139 -2 43
-49 83 -118 101 -46 12 -52 11 -90 -11 -22 -12 -78 -34 -123 -49 -46 -14 -112
-41 -148 -60 -97 -53 -172 -48 -248 17 -18 15 -37 28 -42 28 -6 0 -10 6 -10
13 0 8 -27 25 -59 40 -47 21 -71 26 -118 23 -32 -2 -67 2 -78 8 -47 25 -131
39 -305 48 -122 6 -195 6 -215 -1 -16 -5 -55 -15 -86 -21 -47 -11 -60 -10 -87
4 -17 9 -36 16 -42 16 -17 0 -69 41 -117 92 -25 26 -57 50 -73 53 -16 3 -45
22 -65 41 -34 31 -41 34 -98 34 -40 0 -72 -6 -89 -17z m-992 -1424 c3 -5 29
-9 57 -9 50 0 54 -2 110 -59 31 -32 57 -62 57 -65 0 -7 58 -83 140 -182 27
-34 50 -67 50 -74 0 -7 10 -25 23 -40 12 -15 39 -54 60 -86 66 -103 82 -123
99 -129 10 -4 22 -23 28 -44 5 -20 21 -47 34 -60 13 -12 36 -49 50 -82 21 -45
40 -69 84 -102 70 -54 130 -87 158 -87 12 0 27 -7 34 -15 7 -8 30 -18 52 -21
22 -4 54 -16 71 -28 43 -29 84 -46 107 -46 11 0 20 -4 20 -9 0 -4 35 -8 78 -9
109 0 124 -8 145 -77 22 -73 14 -83 -50 -60 -26 10 -68 21 -93 25 -189 34
-281 60 -362 101 -10 5 -60 23 -110 41 -51 17 -106 42 -121 55 -16 12 -33 23
-38 23 -13 0 -149 139 -149 152 0 6 -6 18 -14 27 -48 53 -63 68 -82 81 -11 8
-37 43 -58 78 -21 34 -43 68 -50 75 -7 6 -25 37 -40 67 -15 30 -40 69 -56 85
-15 17 -31 41 -35 54 -4 13 -22 44 -41 68 -19 25 -34 49 -34 54 0 5 -5 9 -11
9 -11 0 -73 46 -121 89 -20 18 -45 27 -87 32 -49 5 -65 12 -91 39 -22 22 -30
40 -28 58 3 22 11 29 55 42 29 8 57 20 63 26 13 13 88 15 96 3z"/>
<path d="M1947 2633 c-11 -18 -24 -91 -18 -99 3 -5 32 -21 63 -36 61 -29 137
-37 228 -23 25 3 52 7 61 8 8 2 30 14 48 29 30 23 33 29 27 61 -5 27 -14 39
-42 52 -38 18 -52 17 -124 -10 -35 -13 -53 -14 -85 -6 -22 5 -53 12 -70 15
-16 3 -42 8 -56 11 -15 4 -29 3 -32 -2z"/>
<path d="M2632 2524 c-13 -26 25 -107 53 -113 11 -2 32 -12 47 -22 15 -11 39
-19 55 -20 290 -1 299 1 330 59 l22 41 -42 31 c-44 32 -110 41 -146 18 -14 -9
-35 -8 -87 1 -38 8 -103 15 -146 18 -67 4 -77 3 -86 -13z"/>
<path d="M2402 2157 c-18 -21 -3 -87 22 -97 51 -19 81 27 54 85 -13 28 -57 35
-76 12z"/>
</g>
</svg>
