<?xml version="1.0" standalone="no"?>
<!DOCTYPE svg PUBLIC "-//W3C//DTD SVG 20010904//EN"
 "http://www.w3.org/TR/2001/REC-SVG-20010904/DTD/svg10.dtd">
<svg version="1.0" xmlns="http://www.w3.org/2000/svg"
 width="450.000000pt" height="450.000000pt" viewBox="0 0 450.000000 450.000000"
 preserveAspectRatio="xMidYMid meet">

<g transform="translate(0.000000,450.000000) scale(0.100000,-0.100000)"
fill="#000000" stroke="none">
<path d="M1587 4166 c-62 -37 -109 -101 -119 -160 -6 -40 -5 -53 7 -62 9 -7
15 -27 15 -52 0 -22 9 -57 20 -79 11 -21 24 -51 30 -66 7 -19 22 -33 47 -43
21 -8 46 -19 55 -24 26 -15 45 -12 52 8 3 9 15 33 26 52 11 19 20 45 20 58 0
13 8 37 17 55 18 34 26 174 11 183 -4 3 -8 17 -8 32 0 34 -5 42 -58 86 -50 41
-63 43 -115 12z m49 -197 c-3 -17 -6 -38 -6 -45 0 -12 -5 -11 -25 2 -24 15
-34 52 -18 67 3 4 17 7 31 7 22 0 24 -3 18 -31z"/>
<path d="M1029 3950 c-45 -24 -48 -39 -45 -210 l2 -125 37 -38 c21 -21 42 -35
47 -32 6 3 7 -1 4 -10 -9 -24 34 -65 68 -65 15 0 28 -4 28 -10 0 -5 10 -10 23
-10 13 0 32 -7 43 -15 19 -15 19 -16 -1 -14 -11 1 -23 0 -27 -1 -5 -1 -12 -3
-18 -4 -22 -2 -13 -21 18 -43 23 -15 42 -20 61 -17 24 5 34 -1 77 -55 27 -34
57 -61 66 -61 37 0 78 73 78 139 0 13 -13 39 -30 57 -16 19 -32 47 -35 62 -11
57 -38 126 -56 146 -11 11 -22 32 -26 46 -3 14 -20 41 -38 60 -47 51 -135 168
-135 180 0 11 -64 40 -89 40 -9 -1 -32 -10 -52 -20z m101 -170 c4 0 29 -44 54
-97 25 -54 57 -119 70 -144 14 -26 22 -50 19 -53 -14 -14 -41 -4 -67 23 -15
16 -43 46 -62 66 -19 19 -34 44 -34 55 0 11 -7 40 -16 66 -18 53 -12 99 12 90
9 -3 19 -6 24 -6z"/>
<path d="M2130 3939 c-38 -15 -119 -98 -145 -150 -15 -29 -26 -71 -29 -111 -2
-36 -12 -82 -21 -104 -14 -34 -14 -44 -1 -104 24 -106 47 -141 98 -154 22 -5
31 0 57 31 17 21 31 43 31 50 0 16 51 62 90 83 37 19 91 89 88 111 -2 10 12
33 30 52 40 42 54 94 42 159 -13 69 -33 100 -78 126 -43 24 -117 29 -162 11z
m84 -165 c17 -43 6 -68 -59 -132 -73 -71 -102 -79 -97 -23 7 94 132 218 156
155z"/>
<path d="M2607 3616 c-19 -13 -66 -55 -104 -92 -37 -38 -80 -78 -94 -90 -23
-18 -24 -25 -19 -75 5 -50 8 -55 41 -72 31 -15 44 -16 80 -6 24 6 60 12 79 14
72 7 228 58 274 90 11 8 27 15 36 15 15 1 50 64 50 92 0 8 -13 33 -29 55 -23
32 -42 45 -102 66 -95 35 -163 36 -212 3z m133 -115 c0 -21 -19 -31 -61 -31
-35 0 -36 6 -6 31 30 25 67 25 67 0z"/>
<path d="M483 3383 c-32 -28 -33 -29 -29 -102 5 -86 28 -137 65 -146 15 -4 46
-20 70 -36 25 -16 48 -29 53 -29 5 0 22 -10 37 -21 27 -20 33 -20 88 -10 67
14 76 14 121 5 48 -9 72 16 72 76 0 40 -5 51 -35 81 -77 75 -93 89 -103 89
-28 0 -62 24 -57 40 9 30 -81 70 -172 76 -75 5 -79 4 -110 -23z"/>
<path d="M2738 3174 c-3 -3 -48 -11 -100 -18 -112 -16 -178 -47 -280 -132 -76
-63 -81 -79 -48 -143 23 -47 33 -51 120 -51 49 0 69 -4 73 -14 10 -26 101 -37
264 -29 l155 6 42 41 c90 89 107 137 66 189 -11 14 -20 32 -20 41 0 9 -4 16
-10 16 -5 0 -10 9 -10 20 0 14 -7 20 -22 20 -12 0 -31 8 -42 19 -26 23 -173
51 -188 35z m105 -168 c42 -32 0 -61 -93 -62 -36 -1 -78 -4 -95 -7 -16 -4 -58
-4 -92 -1 -51 5 -63 10 -63 24 0 23 62 41 170 50 131 11 154 10 173 -4z"/>
<path d="M1750 3110 c-8 -5 -31 -8 -51 -4 -28 4 -40 1 -50 -11 -8 -9 -26 -29
-40 -43 -53 -55 -69 -94 -69 -173 0 -63 5 -83 31 -137 18 -35 46 -74 63 -86
34 -26 128 -56 173 -56 53 0 118 34 171 88 44 46 51 57 45 82 -3 17 1 46 11
70 9 22 16 65 16 95 0 46 -5 63 -31 97 -47 65 -79 81 -173 85 -47 2 -87 0 -96
-7z m103 -171 c12 -7 24 -13 26 -15 2 -1 5 -25 8 -52 4 -47 3 -49 -35 -76 -35
-24 -46 -27 -86 -21 -56 9 -86 41 -86 94 0 50 8 57 70 69 76 13 79 13 103 1z"/>
<path d="M1099 2745 c-3 -2 -29 -9 -59 -14 -93 -17 -112 -23 -148 -48 -19 -12
-41 -23 -48 -23 -22 0 -120 -48 -135 -66 -7 -9 -30 -27 -51 -40 -20 -13 -51
-44 -68 -69 -28 -40 -31 -51 -25 -88 9 -50 17 -62 61 -83 28 -13 47 -14 121
-5 48 5 95 10 103 11 61 3 111 14 121 26 6 8 18 14 25 14 28 0 87 39 110 73
13 19 45 51 72 71 60 44 103 97 105 133 3 39 -89 113 -142 113 -21 0 -40 -2
-42 -5z m-63 -157 c4 -7 0 -16 -11 -22 -10 -6 -25 -19 -34 -28 -8 -10 -21 -18
-27 -18 -7 0 -14 -5 -16 -11 -4 -12 -85 -32 -99 -24 -19 12 -7 31 37 58 25 15
51 27 57 27 7 1 23 7 37 15 31 18 47 19 56 3z"/>
<path d="M1317 2332 c-44 -14 -46 -16 -49 -56 l-3 -41 -44 0 c-38 0 -46 -4
-65 -31 -11 -18 -33 -47 -48 -66 -37 -47 -46 -110 -22 -165 13 -30 25 -43 45
-47 33 -6 93 9 109 29 7 8 21 15 32 15 27 0 58 18 58 35 0 7 11 22 25 33 14
11 38 49 54 85 16 35 34 68 40 71 13 8 15 122 3 130 -30 18 -92 22 -135 8z"/>
<path d="M2570 2315 c-14 -8 -49 -35 -77 -61 -47 -41 -53 -51 -53 -86 0 -21 8
-55 19 -76 10 -20 22 -66 26 -101 4 -35 12 -78 17 -95 5 -17 12 -62 14 -101 3
-38 15 -99 26 -135 14 -40 23 -94 24 -140 2 -94 14 -181 26 -197 6 -7 7 -69 4
-150 -6 -150 10 -410 26 -430 6 -7 8 -20 4 -28 -6 -17 -51 -21 -61 -5 -3 6
-28 10 -54 10 -50 0 -64 9 -86 54 -14 28 -53 33 -70 9 -14 -18 -13 -52 1 -167
l6 -48 -33 7 c-45 10 -51 21 -44 79 5 43 3 52 -14 66 -18 13 -20 20 -11 49 8
28 6 39 -12 64 -13 18 -23 50 -25 81 -3 28 -8 60 -13 71 -21 47 -28 301 -10
335 11 20 12 99 6 400 -1 30 2 93 5 140 5 75 3 91 -19 140 -13 30 -30 70 -38
88 -8 18 -14 41 -14 50 0 27 -50 69 -95 81 -22 5 -113 8 -203 7 -162 -3 -163
-3 -191 -30 -32 -31 -54 -78 -69 -151 -10 -44 -17 -560 -12 -855 5 -362 7
-354 -57 -331 -35 13 -38 12 -59 -13 -24 -27 -68 -49 -78 -39 -3 4 -6 13 -6
21 0 22 -60 92 -88 103 -20 8 -29 5 -47 -13 -19 -19 -32 -23 -68 -20 -36 3
-47 9 -56 29 -6 14 -9 34 -5 45 8 27 -32 68 -65 68 -28 0 -91 -66 -91 -95 0
-18 -86 -76 -103 -69 -7 3 -27 27 -46 55 -41 60 -62 73 -106 65 -37 -7 -56
-25 -57 -53 -2 -76 158 -339 193 -318 4 3 10 1 14 -5 9 -15 61 -12 75 5 9 11
29 15 74 13 59 -3 63 -2 93 32 30 33 32 34 59 20 32 -18 84 -85 84 -111 0 -30
43 -88 66 -89 34 0 49 27 49 93 0 76 14 82 64 28 24 -26 47 -41 62 -41 13 0
33 -7 44 -16 15 -11 33 -13 73 -8 53 6 53 6 97 -39 48 -51 65 -56 115 -39 25
9 40 23 53 51 9 20 17 43 17 49 0 6 11 23 25 37 37 36 92 34 147 -5 22 -17 49
-30 58 -30 10 0 23 -6 29 -13 6 -8 23 -12 41 -9 28 4 32 1 47 -37 10 -27 22
-41 34 -41 10 0 26 -10 36 -23 10 -12 37 -31 61 -41 24 -11 52 -30 62 -43 16
-21 24 -23 55 -17 25 4 54 1 90 -11 61 -21 85 -16 85 19 0 17 9 31 28 43 29
18 41 30 120 120 41 47 59 60 77 58 13 -1 37 6 52 16 41 27 78 24 101 -8 18
-24 27 -28 73 -28 52 0 53 -1 64 -36 5 -19 22 -50 38 -68 15 -18 27 -37 27
-43 0 -7 16 -9 44 -5 48 7 62 -3 87 -60 17 -40 40 -42 81 -8 35 30 48 31 79 7
13 -10 35 -19 48 -20 14 0 37 -6 53 -13 25 -10 32 -9 51 8 32 30 65 37 108 23
35 -12 41 -11 60 6 12 10 28 33 35 50 10 25 24 35 63 48 27 9 68 16 90 16 38
0 41 -2 62 -47 11 -27 23 -68 26 -93 4 -31 17 -60 41 -93 37 -48 61 -58 82
-33 6 8 23 16 38 18 23 3 31 15 66 95 l39 92 63 -6 64 -6 0 145 c0 179 -8 191
-100 149 -43 -19 -115 -19 -155 0 -11 6 -31 30 -44 54 -35 66 -55 65 -123 -6
-31 -33 -62 -58 -68 -54 -5 3 -10 40 -10 81 l0 76 -37 -6 c-60 -10 -63 -4 -54
119 5 61 5 115 1 120 -10 12 -19 124 -25 293 -3 92 -8 130 -20 149 -11 16 -14
34 -10 54 6 26 -14 83 -64 179 -4 8 -25 48 -45 88 -21 39 -42 72 -47 72 -5 0
-14 11 -20 24 -7 14 -31 32 -64 45 -29 12 -67 34 -83 49 -43 39 -53 46 -87 65
-40 22 -262 83 -355 98 -98 15 -112 23 -108 59 3 34 -21 60 -72 76 -53 17
-309 16 -340 -1z m258 -158 c6 -7 13 -40 15 -73 8 -114 75 -200 113 -145 10
13 26 21 45 21 20 0 38 9 52 25 22 25 22 26 107 14 47 -6 102 -20 122 -30 21
-11 45 -19 55 -19 10 0 41 -11 68 -25 28 -13 53 -25 57 -25 4 0 37 -28 73 -62
54 -51 74 -80 110 -157 25 -51 45 -103 45 -115 0 -12 5 -27 11 -33 7 -7 12
-101 14 -272 3 -262 3 -262 -19 -272 -13 -6 -41 -7 -71 -2 -49 8 -50 9 -56 48
-3 22 -10 49 -16 60 -14 26 -35 198 -27 220 8 19 -23 141 -43 170 -7 11 -13
27 -13 36 0 9 -7 22 -15 29 -8 7 -15 23 -15 36 0 13 -8 34 -17 46 -57 71 -81
78 -246 79 -84 1 -99 -2 -129 -22 -58 -41 -78 -62 -78 -82 0 -11 -14 -47 -31
-81 -49 -93 -50 -96 -66 -140 -19 -52 -24 -161 -9 -197 6 -15 23 -37 38 -48
22 -17 26 -28 25 -69 0 -27 5 -62 12 -79 11 -27 10 -36 -8 -70 -11 -22 -26
-44 -33 -50 -23 -19 -108 -37 -120 -25 -5 5 -12 66 -14 133 -7 200 -14 322
-20 359 -3 19 -6 116 -8 215 -2 139 -6 191 -20 229 -19 56 -29 128 -28 204 1
33 -4 62 -14 77 -14 22 -14 27 2 54 10 16 27 34 38 40 30 14 102 13 114 -2z
m-832 -172 c38 -38 42 -61 18 -107 -10 -19 -14 -44 -11 -63 4 -22 -2 -48 -17
-79 -19 -40 -22 -59 -18 -129 2 -45 9 -90 14 -101 12 -22 19 -244 8 -251 -4
-2 -4 -24 1 -47 7 -37 4 -55 -24 -127 -28 -74 -37 -87 -74 -110 -23 -14 -50
-40 -59 -58 -20 -35 -55 -56 -80 -46 -14 5 -16 16 -11 64 3 31 1 61 -5 67 -6
6 -4 79 4 198 6 104 11 234 10 289 -9 547 -10 535 35 521 10 -3 24 -2 32 3 7
5 43 9 78 9 61 0 67 -2 99 -33z m1261 -637 c71 -77 108 -179 118 -328 4 -52 9
-81 21 -122 4 -12 -8 -25 -38 -45 -24 -15 -60 -42 -81 -60 -49 -43 -76 -42
-132 7 -25 22 -50 40 -56 40 -5 0 -9 16 -9 36 0 19 -5 45 -11 56 -6 12 -11 43
-10 69 0 31 -5 51 -15 60 -10 9 -14 29 -13 68 1 31 -4 75 -11 99 -11 37 -10
45 4 61 9 10 19 29 21 42 7 38 33 49 110 49 67 0 73 -2 102 -32z m562 -601 c8
-11 5 -16 -14 -25 -23 -11 -25 -10 -25 13 0 27 21 33 39 12z m-205 -119 c32
-45 14 -88 -36 -88 -24 0 -28 4 -28 29 0 41 17 81 34 81 8 0 22 -10 30 -22z"/>
</g>
</svg>
