<?xml version="1.0" standalone="no"?>
<!DOCTYPE svg PUBLIC "-//W3C//DTD SVG 20010904//EN"
 "http://www.w3.org/TR/2001/REC-SVG-20010904/DTD/svg10.dtd">
<svg version="1.0" xmlns="http://www.w3.org/2000/svg"
 width="280.000000pt" height="280.000000pt" viewBox="0 0 280.000000 280.000000"
 preserveAspectRatio="xMidYMid meet">

<g transform="translate(0.000000,280.000000) scale(0.100000,-0.100000)"
fill="#000000" stroke="none">
<path d="M968 2651 c-14 -11 -34 -21 -43 -21 -26 0 -75 -29 -75 -44 0 -8 -18
-30 -40 -49 -22 -19 -40 -39 -40 -46 0 -7 -13 -17 -29 -22 -20 -7 -31 -19 -34
-37 -14 -68 -21 -89 -39 -114 -33 -47 -49 -107 -42 -160 5 -39 4 -48 -9 -48
-26 0 -49 -174 -25 -198 6 -6 12 -38 12 -72 0 -33 3 -60 6 -60 3 0 6 -10 7
-22 6 -68 17 -98 38 -112 22 -14 23 -21 19 -78 -5 -83 5 -147 26 -168 10 -10
21 -27 25 -39 3 -12 13 -21 22 -21 11 0 14 -6 9 -24 -5 -19 -1 -26 13 -31 17
-5 32 -36 36 -76 2 -19 64 -99 77 -99 5 0 11 -8 15 -17 3 -10 12 -25 20 -34 8
-10 15 -31 15 -48 1 -17 10 -40 20 -51 10 -11 16 -20 13 -20 -3 0 2 -11 11
-25 9 -14 22 -25 29 -25 14 0 28 -27 20 -40 -3 -5 22 -37 55 -71 36 -38 60
-72 60 -85 0 -28 60 -74 96 -74 15 0 35 -7 45 -16 10 -9 34 -16 53 -16 29 0
40 -6 58 -31 13 -18 31 -39 41 -47 13 -11 17 -23 12 -42 -6 -22 -14 -27 -48
-31 -54 -7 -386 -2 -457 8 -77 9 -106 -3 -107 -48 -2 -55 35 -83 143 -108 49
-11 104 -27 122 -35 38 -16 64 -18 77 -5 6 5 84 12 175 15 91 3 188 10 215 15
28 5 223 9 434 10 l385 1 54 25 c50 23 54 27 48 52 -9 37 -37 75 -67 90 -32
17 -125 16 -224 -1 -124 -22 -397 -7 -457 25 -14 8 -16 18 -11 52 3 23 6 54 7
69 1 15 5 30 9 34 4 4 7 17 7 29 0 11 4 25 9 31 14 15 58 214 67 299 2 22 10
54 18 70 23 51 37 102 30 118 -3 8 0 26 7 39 16 30 29 96 34 182 3 38 9 95 15
125 14 81 -2 321 -24 356 -7 11 -15 38 -18 60 -3 22 -17 64 -32 94 -14 30 -26
62 -26 71 0 9 -16 30 -35 48 -29 25 -34 36 -29 57 5 18 -1 36 -20 65 -14 22
-26 43 -26 46 0 18 -225 254 -243 254 -4 0 -27 9 -50 21 -25 13 -70 23 -112
26 -38 3 -80 11 -92 19 -12 7 -66 16 -125 20 -95 6 -105 5 -130 -15z m272
-135 c30 -2 78 -12 105 -23 28 -11 55 -18 62 -16 6 2 46 -28 87 -68 42 -40 80
-75 84 -78 14 -11 42 -60 42 -74 0 -8 8 -25 18 -38 10 -13 26 -44 36 -69 10
-25 21 -47 24 -50 19 -14 42 -73 42 -107 0 -21 9 -56 20 -78 17 -32 19 -51 14
-102 -6 -53 -4 -67 11 -83 12 -13 15 -24 8 -32 -5 -7 -8 -40 -7 -73 1 -33 -2
-65 -8 -72 -7 -8 -6 -24 2 -49 12 -34 11 -38 -14 -61 -14 -13 -27 -36 -28 -51
-1 -15 -3 -45 -4 -67 -4 -76 -25 -200 -39 -238 -9 -21 -12 -49 -9 -62 4 -16
-1 -34 -14 -52 -11 -15 -20 -41 -20 -56 0 -15 -7 -33 -16 -40 -13 -9 -17 -32
-19 -99 -1 -59 -6 -89 -14 -93 -7 -2 -13 -15 -13 -28 0 -13 -9 -42 -20 -65
-11 -22 -20 -45 -20 -50 0 -5 -9 -17 -19 -26 -18 -16 -21 -16 -50 -1 -17 8
-31 19 -31 24 0 4 -62 71 -137 148 -146 148 -203 220 -203 254 0 11 -20 39
-44 62 -46 45 -103 117 -98 126 5 11 -17 61 -27 61 -5 0 -12 13 -16 30 -4 16
-12 33 -19 37 -19 11 -43 62 -51 106 -4 20 -14 41 -21 45 -8 5 -20 37 -26 73
-7 35 -17 69 -23 74 -22 19 -51 127 -47 172 2 13 -4 46 -12 75 -18 62 -14 184
8 226 8 15 12 40 9 55 -3 15 -1 33 5 40 11 13 32 109 37 165 1 21 10 41 21 49
11 7 40 33 65 56 107 99 141 122 194 128 27 3 66 4 85 2 19 -2 60 -5 90 -7z"/>
<path d="M1075 2145 c-16 -8 -43 -14 -59 -15 -41 0 -123 -87 -131 -138 -7 -41
-34 -141 -44 -157 -10 -17 0 -58 20 -84 10 -13 19 -32 19 -43 0 -39 53 -118
80 -118 5 0 10 -10 10 -22 0 -29 6 -37 50 -69 21 -16 54 -29 80 -32 25 -3 65
-10 90 -17 62 -16 139 -7 181 22 88 60 112 85 141 142 24 51 28 68 23 106 -4
25 -11 52 -15 61 -5 8 -11 52 -13 98 -2 46 -9 86 -15 90 -6 4 -24 25 -39 48
-27 40 -92 96 -143 123 -36 19 -198 23 -235 5z m239 -176 c14 -11 26 -26 26
-32 0 -7 12 -30 26 -51 33 -48 29 -101 -13 -160 -16 -23 -35 -55 -42 -73 -19
-46 -54 -57 -141 -44 -40 7 -80 16 -90 21 -41 22 -85 164 -74 237 11 75 81
121 158 103 22 -5 41 -3 57 6 34 19 62 17 93 -7z"/>
<path d="M1346 535 c-3 -9 0 -15 9 -15 9 0 12 6 9 15 -4 8 -7 15 -9 15 -2 0
-5 -7 -9 -15z"/>
</g>
</svg>
