<?xml version="1.0" standalone="no"?>
<!DOCTYPE svg PUBLIC "-//W3C//DTD SVG 20010904//EN"
 "http://www.w3.org/TR/2001/REC-SVG-20010904/DTD/svg10.dtd">
<svg version="1.0" xmlns="http://www.w3.org/2000/svg"
 width="350.000000pt" height="350.000000pt" viewBox="0 0 350.000000 350.000000"
 preserveAspectRatio="xMidYMid meet">

<g transform="translate(0.000000,350.000000) scale(0.100000,-0.100000)"
fill="#000000" stroke="none">
<path d="M1966 3144 c-109 -39 -184 -82 -213 -124 -8 -11 -20 -20 -26 -20 -25
-1 -57 -40 -87 -106 -17 -38 -35 -76 -39 -84 -13 -25 -112 -69 -236 -105 -65
-19 -105 -48 -105 -77 0 -33 29 -66 65 -72 19 -4 40 -17 49 -31 21 -31 34 -31
102 0 30 14 57 25 59 25 3 0 14 9 25 20 14 14 33 20 63 20 50 0 60 -6 47 -29
-9 -18 9 -93 36 -144 7 -16 14 -41 14 -56 0 -14 8 -56 18 -93 18 -63 18 -67 1
-101 -18 -34 -20 -35 -95 -42 -51 -5 -79 -4 -87 4 -18 18 -47 13 -57 -11 -20
-45 -56 -97 -112 -164 -32 -37 -58 -76 -58 -87 0 -21 -18 -59 -33 -69 -6 -3
-12 -42 -14 -85 -3 -54 -10 -88 -23 -111 -11 -18 -20 -45 -20 -60 0 -15 -7
-36 -15 -46 -8 -11 -15 -32 -15 -47 0 -37 -22 -53 -65 -45 -39 8 -105 64 -105
91 0 9 -10 30 -22 46 -82 103 -105 129 -120 134 -28 10 -70 74 -76 118 -6 52
-44 113 -74 122 -13 4 -31 14 -40 22 -27 24 -269 34 -309 12 -10 -5 -33 -9
-51 -9 -35 -1 -56 -13 -74 -45 -6 -11 -24 -26 -40 -34 -49 -24 -58 -59 -24
-99 18 -21 24 -22 162 -20 79 2 169 -1 200 -5 49 -7 59 -12 72 -37 23 -46 89
-119 108 -120 10 0 30 -19 44 -42 15 -23 40 -56 55 -73 16 -16 29 -37 29 -45
0 -28 81 -102 139 -127 31 -14 63 -31 71 -38 16 -13 68 -26 110 -26 17 -1 37
13 64 43 40 45 96 150 96 181 0 10 6 20 14 23 17 7 56 85 56 113 0 10 7 24 16
32 10 8 14 23 11 42 -7 52 58 208 96 228 12 7 25 17 29 24 9 14 78 41 130 49
27 5 54 23 102 70 36 35 66 68 66 73 0 6 7 16 15 23 19 16 19 74 0 90 -14 12
-14 24 0 91 4 17 0 30 -10 39 -8 7 -15 19 -15 28 0 8 -7 23 -16 33 -11 12 -17
39 -18 83 -1 52 3 70 22 95 12 16 22 40 22 53 0 19 10 26 63 42 34 11 82 29
107 42 25 12 72 27 104 33 53 10 62 9 92 -9 27 -17 66 -56 102 -105 10 -13 40
-113 42 -140 6 -76 0 -109 -27 -137 -14 -15 -35 -28 -44 -28 -31 0 -30 -17 1
-48 16 -17 30 -41 30 -54 0 -14 8 -27 22 -33 15 -7 29 -30 43 -67 11 -32 30
-65 43 -74 13 -9 27 -27 32 -39 7 -18 19 -26 47 -30 66 -10 147 -37 164 -54 9
-9 28 -26 43 -38 18 -16 26 -33 26 -55 0 -23 9 -40 35 -64 30 -27 35 -38 35
-78 0 -32 -5 -48 -15 -52 -17 -7 -21 -54 -4 -54 24 0 114 -105 128 -150 8 -25
25 -65 38 -90 13 -25 23 -59 23 -75 0 -33 -52 -146 -83 -180 -145 -160 -173
-200 -189 -269 -7 -31 -5 -42 8 -57 27 -30 75 -24 111 14 60 63 111 113 162
157 47 41 81 88 81 112 0 5 11 24 25 42 14 18 25 45 25 59 0 14 5 29 10 32 18
11 10 65 -17 118 -15 29 -27 72 -28 97 -1 27 -13 63 -28 90 -63 110 -81 146
-83 165 -1 11 -5 53 -8 92 -5 54 -13 82 -31 109 -14 20 -25 45 -25 56 0 39
-44 86 -118 124 -40 21 -77 43 -83 51 -6 7 -17 13 -24 13 -7 0 -26 7 -41 15
-16 8 -36 15 -44 15 -21 0 -98 50 -105 68 -3 7 -1 21 3 30 14 28 12 220 -3
308 -9 54 -26 105 -50 149 -52 99 -48 114 40 133 72 16 183 37 211 41 19 2
104 73 104 87 0 8 9 22 20 31 23 20 25 50 8 88 -15 33 -48 41 -101 22 -23 -8
-71 -25 -107 -37 -96 -33 -101 -35 -150 -58 -25 -12 -53 -22 -62 -22 -9 0 -44
27 -78 60 -34 33 -68 60 -76 60 -8 0 -22 4 -32 9 -85 47 -209 62 -286 35z
m187 -166 c27 -14 21 -47 -10 -54 -16 -3 -47 -15 -69 -25 -81 -38 -264 -57
-264 -28 0 5 23 20 50 34 28 14 53 32 57 40 3 8 17 15 33 15 15 0 34 8 43 18
14 15 28 18 79 14 35 -2 71 -9 81 -14z"/>
<path d="M522 1508 c-10 -29 -7 -104 6 -132 41 -92 54 -113 73 -126 34 -23 69
-63 69 -78 0 -8 14 -31 30 -52 17 -21 30 -42 30 -47 0 -12 89 -103 101 -103 6
0 19 5 30 10 21 12 26 40 6 40 -8 0 -12 13 -11 35 1 25 -7 47 -28 76 -16 22
-27 47 -24 55 4 9 -12 32 -39 59 -25 24 -45 50 -45 59 0 9 -27 42 -60 74 -42
41 -60 67 -60 84 0 30 -30 68 -54 68 -9 0 -20 -10 -24 -22z"/>
<path d="M1703 1429 c-18 -5 -35 -14 -38 -20 -4 -5 -8 -96 -11 -202 -2 -106
-4 -194 -5 -197 0 -3 0 -54 1 -113 2 -118 18 -177 48 -177 25 1 85 58 78 76
-7 18 14 62 43 88 12 11 21 24 21 31 0 6 6 17 13 23 23 24 23 225 -1 270 -9
15 -9 22 -2 22 8 0 9 11 4 33 -4 17 -8 51 -9 75 -3 83 -56 117 -142 91z"/>
<path d="M1335 1120 c-60 -11 -90 -25 -113 -55 -38 -48 -37 -64 2 -102 l36
-35 42 20 c24 10 63 25 88 32 86 23 101 61 48 116 -34 35 -38 36 -103 24z"/>
<path d="M3000 707 c-3 -3 -108 -8 -233 -11 -126 -3 -233 -9 -239 -12 -5 -4
-89 -8 -187 -9 -97 -2 -223 -6 -281 -10 -58 -3 -159 -8 -225 -9 -242 -6 -421
-16 -474 -26 -30 -6 -91 -12 -135 -15 -116 -7 -142 -16 -138 -47 2 -27 -30
-64 -63 -70 -20 -3 -48 -46 -39 -59 2 -4 26 -11 52 -14 26 -3 59 -13 75 -21
23 -13 42 -14 110 -6 45 6 147 9 227 8 174 -3 385 11 520 34 36 6 99 13 140
14 122 5 281 26 319 43 58 25 174 39 286 35 28 -1 75 1 105 4 30 3 152 6 270
5 235 -1 261 4 259 48 -1 63 -37 89 -139 103 -89 13 -204 20 -210 15z m-1185
-128 c0 -7 -9 -15 -20 -17 -11 -2 -29 -7 -40 -12 -11 -5 -83 -11 -160 -14 -77
-4 -147 -7 -155 -8 -23 -2 -80 13 -80 22 0 11 63 21 170 27 52 2 98 7 102 11
4 4 47 7 95 6 68 -1 88 -4 88 -15z m-470 -34 c0 -5 -15 -11 -32 -13 -25 -3
-33 1 -33 13 0 12 8 16 33 13 17 -2 32 -7 32 -13z"/>
</g>
</svg>
