<?xml version="1.0" standalone="no"?>
<!DOCTYPE svg PUBLIC "-//W3C//DTD SVG 20010904//EN"
 "http://www.w3.org/TR/2001/REC-SVG-20010904/DTD/svg10.dtd">
<svg version="1.0" xmlns="http://www.w3.org/2000/svg"
 width="888.000000pt" height="888.000000pt" viewBox="0 0 888.000000 888.000000"
 preserveAspectRatio="xMidYMid meet">

<g transform="translate(0.000000,888.000000) scale(0.100000,-0.100000)"
fill="#000000" stroke="none">
<path d="M4867 6634 c-3 -3 -54 -8 -114 -10 -59 -2 -175 -8 -258 -14 -82 -6
-218 -12 -302 -13 -84 -2 -156 -6 -159 -10 -4 -4 -25 -7 -46 -7 -22 0 -47 -4
-56 -9 -10 -5 -62 -3 -127 4 -117 14 -421 9 -441 -6 -6 -5 -33 -8 -60 -8 -27
1 -60 -3 -72 -8 -15 -6 -43 -5 -74 1 -39 8 -51 7 -57 -3 -7 -11 -27 -12 -92
-7 -56 5 -94 3 -114 -4 -17 -6 -79 -13 -140 -15 -102 -4 -231 -13 -315 -21
-19 -2 -78 -8 -130 -14 -135 -15 -237 -22 -297 -22 -38 0 -53 -3 -53 -13 0
-15 -39 -26 -85 -25 -28 1 -182 -16 -215 -23 -14 -4 -90 -12 -215 -23 -27 -3
-69 -4 -93 -4 -24 0 -51 -4 -59 -9 -10 -5 -27 -5 -43 1 -18 6 -68 4 -148 -6
-152 -19 -198 -32 -207 -60 -3 -11 -8 -16 -11 -10 -6 15 -64 5 -71 -12 -3 -8
-16 -14 -29 -14 -13 0 -24 -5 -24 -11 0 -6 -12 -9 -27 -7 -22 2 -28 -2 -35
-27 -10 -36 -2 -75 15 -75 7 0 22 -8 33 -19 11 -10 30 -21 41 -25 11 -4 32
-17 45 -29 36 -32 86 -67 96 -67 5 0 15 -7 22 -15 7 -8 21 -15 31 -15 10 0 24
-10 30 -22 15 -29 39 -47 61 -48 9 0 23 -7 32 -15 8 -8 18 -15 21 -15 4 0 21
-11 37 -25 19 -17 37 -23 49 -20 13 4 19 2 19 -8 0 -17 32 -47 51 -47 8 0 20
-9 27 -20 7 -11 18 -20 25 -20 8 0 19 -10 26 -23 6 -12 28 -33 48 -47 20 -14
51 -38 67 -53 17 -15 49 -40 71 -55 22 -15 42 -30 45 -33 3 -3 26 -16 53 -28
60 -29 107 -75 107 -106 0 -16 -10 -30 -30 -42 -26 -15 -30 -23 -30 -61 0 -23
-6 -53 -14 -65 -8 -12 -17 -42 -21 -67 -4 -25 -13 -68 -21 -96 -10 -34 -16
-116 -18 -237 -2 -102 -7 -190 -11 -197 -4 -6 -1 -17 5 -25 7 -8 9 -23 6 -32
-7 -17 -16 -137 -21 -288 -2 -44 -9 -113 -15 -153 -9 -54 -9 -76 0 -87 6 -7 7
-16 2 -19 -5 -3 -9 -24 -9 -46 0 -22 -6 -60 -13 -85 -11 -39 -10 -51 3 -83 17
-41 17 -36 20 -179 1 -63 7 -107 14 -114 9 -9 9 -18 2 -31 -8 -14 -7 -24 2
-35 11 -13 10 -18 -6 -29 -19 -14 -19 -16 13 -45 30 -28 34 -29 70 -18 21 6
48 19 61 28 l23 18 -21 43 c-11 23 -17 49 -13 56 4 7 4 50 1 96 -3 46 -1 94 4
108 14 40 18 193 7 282 -7 55 -7 85 0 94 6 6 15 46 19 88 5 42 14 83 21 91 7
8 14 60 17 122 3 60 9 113 13 118 5 6 6 30 4 55 -2 25 -3 54 -3 65 1 11 0 55
0 98 -1 63 1 77 14 77 8 0 15 7 15 15 0 8 -5 15 -12 15 -6 0 -4 8 6 19 10 11
13 22 8 25 -6 4 -8 53 -5 123 2 65 4 150 4 190 -1 41 3 74 9 78 8 5 8 11 0 20
-17 20 4 27 35 11 15 -8 35 -28 45 -44 10 -17 43 -47 74 -69 30 -21 57 -47 60
-58 3 -12 23 -31 44 -43 21 -11 44 -32 52 -46 7 -14 21 -28 30 -31 9 -3 31
-23 49 -45 18 -22 36 -40 41 -40 5 0 23 -13 41 -30 18 -16 47 -36 64 -44 16
-8 53 -37 80 -63 28 -27 61 -56 73 -65 23 -15 23 -18 11 -55 -7 -21 -17 -43
-22 -50 -4 -6 -11 -52 -14 -100 -5 -86 -5 -91 22 -131 26 -40 28 -46 21 -120
-15 -182 -17 -249 -7 -275 12 -32 6 -54 -19 -62 -10 -3 -20 -14 -23 -25 -3
-10 -20 -28 -38 -39 -19 -12 -31 -21 -27 -21 4 0 -2 -21 -12 -46 -11 -25 -20
-58 -20 -74 0 -40 22 -130 32 -130 4 0 8 -6 8 -13 0 -7 8 -17 19 -24 23 -14
33 -69 15 -84 -7 -6 -16 -24 -19 -40 -4 -19 -26 -45 -63 -76 -31 -25 -104 -95
-162 -154 -58 -59 -116 -113 -130 -120 -14 -6 -29 -18 -33 -25 -12 -21 -31
-17 -55 10 -11 14 -40 30 -64 37 -24 6 -53 16 -65 21 -12 6 -31 8 -42 5 -12
-3 -24 -1 -27 5 -3 5 -13 7 -22 3 -9 -3 -27 6 -46 24 -19 19 -46 32 -71 36
-37 6 -42 5 -53 -20 -15 -32 -15 -68 -2 -81 6 -6 12 -27 13 -47 2 -20 6 -39
10 -43 4 -4 7 -13 7 -21 0 -12 16 -35 50 -72 8 -9 27 -33 42 -53 l27 -36 -30
-12 c-16 -7 -46 -26 -66 -42 -20 -15 -47 -31 -60 -34 -12 -4 -23 -10 -23 -15
0 -5 -6 -9 -13 -9 -8 0 -19 -12 -26 -27 -10 -21 -9 -28 1 -35 18 -12 68 -1
100 22 15 11 32 20 38 20 9 0 30 9 70 31 73 41 92 47 118 39 38 -10 72 -32 72
-46 0 -23 -154 -164 -179 -164 -6 0 -23 -16 -38 -35 -15 -19 -32 -35 -37 -35
-5 0 -27 -15 -50 -33 -49 -38 -79 -53 -125 -61 -61 -11 -76 -47 -27 -66 29
-11 136 9 143 26 6 17 46 19 41 2 -3 -7 -13 -15 -24 -16 -23 -4 -44 -29 -44
-52 0 -21 38 -39 65 -31 36 11 112 65 131 93 11 16 26 28 36 28 9 0 64 47 122
105 59 58 109 105 113 105 4 0 16 9 27 19 20 18 50 26 86 21 10 -1 7 -5 -7
-10 -14 -6 -23 -18 -23 -30 0 -12 -11 -36 -25 -54 -14 -18 -25 -43 -25 -54 0
-12 -9 -27 -20 -34 -20 -13 -27 -52 -11 -63 5 -3 16 1 23 9 8 7 25 17 37 21
26 8 91 68 91 83 0 19 33 36 76 38 24 2 44 1 44 -3 0 -16 -146 -153 -164 -153
-12 0 -32 -9 -45 -19 -20 -15 -22 -21 -12 -39 9 -17 21 -22 55 -22 62 0 196
65 196 95 0 7 7 15 15 19 8 3 15 14 15 24 0 11 7 25 15 32 8 7 15 19 15 27 0
10 6 12 20 8 11 -4 20 -2 20 4 0 13 77 15 85 2 3 -5 18 -12 33 -16 47 -10 138
-50 156 -68 10 -9 29 -17 44 -17 15 0 42 -9 60 -20 18 -11 44 -20 58 -20 14 0
23 -4 19 -10 -3 -6 2 -13 12 -17 10 -3 24 -11 32 -17 7 -6 19 -11 25 -11 14
-1 125 -34 151 -45 23 -10 63 -17 150 -26 33 -3 64 -8 68 -11 5 -3 38 -7 74
-8 49 -3 71 -9 87 -24 15 -14 36 -21 62 -21 21 -1 57 -7 79 -15 22 -8 52 -15
67 -15 15 0 39 -5 55 -11 41 -16 196 -40 281 -44 40 -2 85 -7 100 -13 86 -30
204 -50 270 -44 18 2 76 -6 130 -18 63 -13 146 -21 232 -23 79 -2 144 -8 157
-15 14 -8 24 -9 28 -2 4 6 10 8 14 5 8 -4 47 -8 266 -22 166 -11 594 -6 610 7
7 6 55 13 106 15 154 8 285 33 433 82 48 17 91 35 95 41 3 6 31 12 61 13 47 2
60 7 87 34 26 26 30 36 25 62 -12 54 -45 83 -96 83 -25 0 -47 -4 -50 -9 -3 -5
-16 -7 -27 -4 -15 4 -27 -1 -39 -17 -16 -21 -21 -22 -50 -11 -51 17 -115 13
-153 -9 -26 -15 -63 -23 -151 -29 -79 -6 -124 -14 -142 -25 -14 -10 -33 -14
-44 -11 -11 4 -25 3 -32 -2 -7 -4 -71 -8 -143 -9 -73 -1 -143 -7 -160 -14 -21
-8 -62 -9 -130 -5 -58 4 -116 3 -136 -3 -38 -10 -139 4 -151 22 -4 7 -13 5
-25 -4 -15 -13 -61 -17 -118 -11 -14 1 -10 187 4 204 7 9 8 37 4 79 -3 37 -2
75 2 85 9 18 10 25 18 103 3 25 10 57 15 71 13 33 18 111 8 127 -4 6 -3 20 2
29 4 10 8 38 7 63 -1 25 1 50 6 55 8 11 5 102 -5 126 -4 9 2 25 14 39 21 24
25 62 21 203 -2 53 1 68 13 73 20 8 21 33 1 40 -8 4 -15 10 -15 16 0 5 -9 27
-19 48 -19 39 -19 40 0 77 21 41 26 33 -49 75 l-31 18 2 -78 c1 -42 5 -81 9
-87 8 -13 3 -174 -11 -310 -6 -60 -11 -150 -12 -200 -2 -49 -7 -99 -13 -110
-17 -32 -35 -107 -36 -147 0 -20 -4 -39 -10 -43 -5 -3 -6 -16 -2 -28 12 -36 7
-236 -8 -315 -10 -55 -11 -84 -2 -120 6 -28 7 -51 1 -58 -5 -6 -5 -14 -1 -19
4 -4 -51 -4 -123 0 -71 4 -191 10 -266 14 -75 3 -143 11 -150 17 -29 22 -142
56 -173 51 -17 -3 -56 -1 -86 3 -30 5 -82 11 -115 14 -33 2 -82 14 -108 25
-27 12 -62 21 -77 21 -16 0 -32 5 -35 10 -3 6 -16 10 -28 10 -32 0 -139 39
-151 55 -6 7 -33 16 -61 20 -27 4 -65 15 -85 25 -19 10 -62 21 -95 25 -33 4
-64 10 -70 14 -5 4 -37 15 -70 26 -33 10 -70 25 -82 33 -12 7 -28 10 -34 6 -9
-5 -10 -2 -6 9 5 12 1 17 -13 17 -10 0 -32 5 -47 11 -15 6 -39 16 -53 22 -14
5 -41 18 -61 28 -20 11 -45 19 -55 19 -28 0 -83 22 -134 52 -25 14 -70 34
-100 44 -83 25 -89 34 -62 89 12 25 22 62 22 81 0 20 7 50 16 67 33 63 36 70
39 98 2 15 13 47 24 70 12 24 21 50 21 59 0 8 6 24 14 35 14 22 25 82 32 184
2 35 7 68 10 73 3 5 1 15 -5 22 -23 28 -15 70 22 119 37 48 37 49 37 145 0 67
-5 106 -15 126 -8 15 -15 34 -15 41 0 6 -10 20 -21 31 -23 20 -49 73 -49 99 0
8 9 23 20 32 11 10 20 22 20 27 0 6 12 20 28 32 26 22 26 23 8 37 -19 14 -19
15 -2 52 12 24 16 48 12 68 -5 23 -1 36 16 54 29 32 51 29 85 -10 15 -18 51
-53 80 -77 28 -24 57 -54 64 -67 7 -13 18 -23 25 -23 8 0 59 -20 116 -45 73
-33 114 -58 147 -91 25 -25 65 -57 89 -71 23 -14 42 -29 42 -33 0 -5 37 -41
83 -79 45 -39 102 -97 127 -128 72 -91 128 -143 155 -143 13 0 27 -4 30 -10
10 -16 19 -12 54 19 18 16 30 34 27 40 -4 5 3 15 15 21 13 7 19 18 16 29 -2
10 3 27 12 39 13 17 30 21 99 25 46 2 88 9 94 15 6 6 26 8 44 5 20 -3 34 -1
34 5 0 12 60 22 169 27 46 2 88 8 94 14 6 6 36 11 67 11 55 1 138 10 260 29
36 6 144 13 240 17 96 3 179 9 184 12 6 3 46 9 90 14 110 10 148 18 166 33 23
19 64 30 55 14 -6 -9 6 -11 56 -5 35 3 66 11 67 16 2 6 7 8 11 6 8 -6 160 12
181 21 8 3 40 7 72 9 31 1 66 8 79 14 12 7 74 18 138 25 64 7 130 17 146 23
17 6 100 22 185 37 244 42 230 41 252 14 34 -43 40 -70 22 -90 -13 -14 -15
-32 -12 -74 3 -38 1 -55 -7 -55 -9 0 -12 -31 -12 -109 0 -104 1 -108 20 -103
12 3 18 1 14 -5 -12 -19 -26 -147 -18 -158 13 -17 5 -104 -12 -123 -11 -11
-15 -36 -15 -77 0 -194 -1 -227 -17 -350 -3 -22 -7 -83 -9 -135 -2 -52 -7
-111 -12 -130 -4 -19 -7 -46 -5 -60 2 -30 7 -126 9 -191 2 -40 8 -52 39 -83
44 -42 63 -45 94 -11 13 13 30 25 37 25 15 0 16 73 1 103 -10 18 -8 23 10 35
15 11 21 25 21 53 0 22 -4 39 -8 39 -18 0 -29 54 -15 75 10 17 10 25 -1 47 -8
16 -10 30 -5 35 14 14 29 119 29 208 1 44 8 104 17 133 13 42 14 55 4 61 -12
8 -6 61 8 61 3 0 6 38 6 84 0 53 5 89 13 99 7 8 10 26 7 39 -3 13 -1 37 5 53
7 17 14 60 17 97 4 56 2 69 -11 74 -12 5 -13 10 -5 25 5 11 8 23 5 27 -2 4 4
25 15 47 24 51 17 90 -24 133 -24 25 -28 35 -19 44 19 19 14 37 -23 88 -55 75
-42 120 33 120 16 0 52 6 78 14 27 8 96 20 154 27 58 7 110 16 116 20 6 5 28
8 50 8 65 -1 144 13 144 26 0 7 14 11 38 10 20 -1 43 2 49 8 7 5 19 7 27 4 8
-3 45 -1 83 4 37 6 103 14 147 19 89 11 106 20 106 61 0 38 20 37 49 -2 21
-28 27 -30 59 -25 21 4 51 14 68 23 29 15 34 15 67 0 37 -18 74 -22 94 -9 7 4
15 27 19 50 6 41 5 44 -43 91 -28 27 -61 52 -74 56 -13 4 -44 27 -69 51 -61
58 -120 104 -134 104 -7 0 -27 13 -46 30 -19 16 -43 29 -53 30 -9 0 -44 24
-76 54 -33 30 -74 62 -93 72 -18 9 -52 32 -75 50 -23 19 -46 34 -52 34 -6 0
-11 3 -11 8 0 4 -26 22 -57 39 -32 18 -73 46 -91 62 -18 17 -41 31 -51 31 -10
0 -24 7 -31 15 -7 8 -30 25 -51 37 -22 12 -39 25 -39 30 0 4 -4 8 -9 8 -18 0
-121 68 -162 108 -24 23 -47 42 -51 42 -5 0 -19 10 -34 23 -14 12 -54 42 -88
67 -144 102 -162 116 -192 148 -17 17 -38 32 -48 32 -21 0 -92 38 -117 61 -9
9 -44 31 -78 49 -33 18 -61 37 -61 41 0 5 -7 9 -15 9 -9 0 -20 10 -26 23 -11
24 -88 77 -111 77 -8 0 -23 6 -33 14 -12 8 -33 12 -57 8 -37 -4 -38 -4 -38 27
0 29 -2 31 -35 31 -25 0 -44 8 -67 30 -33 32 -43 38 -32 18 4 -7 -3 -3 -15 10
-12 12 -31 22 -41 22 -11 0 -20 5 -20 10 0 6 -17 19 -38 28 -20 9 -53 29 -72
43 -19 15 -55 37 -80 49 -25 13 -59 33 -76 46 -17 13 -36 24 -42 24 -6 0 -26
13 -44 28 -18 16 -49 34 -68 42 -19 7 -47 22 -62 32 -14 10 -55 32 -89 49 -35
17 -69 38 -77 45 -7 8 -23 14 -35 14 -13 0 -31 6 -42 14 -11 7 -23 14 -28 15
-38 5 -61 20 -96 61 -30 35 -50 49 -77 55 -25 4 -39 2 -45 -6 -5 -9 -16 -7
-44 9 -34 21 -85 29 -98 16z m117 -191 l31 -7 -35 -9 c-19 -5 -62 -12 -95 -16
-33 -3 -66 -10 -73 -15 -7 -4 -73 -12 -145 -16 -73 -5 -145 -13 -160 -19 -40
-15 -180 -14 -195 1 -9 9 -15 10 -20 2 -4 -7 -45 -15 -92 -18 -47 -4 -128 -11
-180 -15 -111 -9 -217 -7 -243 4 -9 4 -30 3 -45 -3 -15 -6 -61 -13 -102 -17
-41 -3 -109 -10 -150 -15 -41 -4 -140 -9 -220 -11 -80 -1 -163 -5 -186 -10
-22 -5 -81 -11 -130 -14 -49 -3 -125 -12 -170 -21 -45 -8 -115 -16 -156 -19
-71 -4 -123 -12 -142 -23 -9 -5 -85 -10 -268 -16 -64 -2 -120 -6 -125 -9 -5
-3 -24 -3 -43 -1 -19 2 -42 4 -50 4 -231 0 -306 -3 -312 -13 -5 -9 -16 -7 -41
6 -43 24 -80 15 -112 -28 -36 -46 -32 -61 26 -89 59 -30 70 -31 109 -11 18 9
31 11 35 5 11 -17 37 -11 42 10 5 20 43 29 43 10 0 -14 77 -13 86 1 4 8 9 8
17 0 15 -15 27 -14 27 4 0 20 75 20 115 -1 27 -14 31 -14 41 0 13 18 74 22 91
5 15 -15 153 0 160 17 6 17 35 18 51 2 8 -8 15 -8 26 1 8 6 35 13 60 14 25 2
48 6 52 10 4 3 12 3 18 0 15 -10 96 -14 96 -5 0 16 77 36 140 37 36 0 73 5 83
11 11 6 49 9 90 6 40 -2 112 3 162 11 51 8 117 13 153 10 34 -3 90 0 122 6 51
10 63 10 82 -3 19 -14 24 -14 38 -1 11 10 63 18 175 26 88 6 166 10 173 9 38
-5 223 3 237 11 13 7 190 2 238 -6 28 -6 41 -3 50 8 10 13 20 13 72 2 63 -13
120 -10 144 9 7 6 47 9 89 8 41 -1 81 3 87 8 7 6 41 10 76 9 95 -2 211 14 240
34 14 9 35 30 46 46 19 25 20 31 7 49 -13 20 -13 20 19 9 17 -7 38 -18 45 -24
7 -7 19 -13 27 -13 9 0 12 -10 8 -38 l-5 -38 65 -32 c84 -40 91 -52 32 -52
-26 0 -54 -4 -64 -9 -26 -15 -147 -33 -231 -35 -297 -9 -436 -20 -460 -35 -43
-28 -92 -41 -113 -30 -10 6 -26 7 -35 4 -17 -7 -152 -26 -187 -26 -10 0 -24
-4 -30 -8 -5 -4 -37 -9 -70 -10 -79 -2 -188 -12 -199 -19 -5 -3 -59 -6 -120
-7 -61 -1 -140 -8 -176 -14 -36 -7 -99 -14 -140 -16 -91 -5 -260 -15 -355 -21
-38 -3 -115 -6 -170 -8 -55 -2 -153 -9 -217 -16 -93 -11 -120 -11 -132 -1 -8
7 -20 10 -26 6 -18 -11 -129 -14 -135 -4 -3 4 -18 6 -33 3 -15 -3 -65 -7 -112
-8 -254 -9 -307 -13 -329 -25 -14 -8 -36 -10 -56 -7 -19 4 -36 3 -39 -2 -2 -4
-34 -14 -70 -22 -89 -18 -141 -48 -141 -80 0 -23 3 -25 52 -25 34 1 58 7 71
18 10 9 26 17 34 17 9 0 21 7 28 15 7 8 26 15 42 15 27 0 30 -3 24 -25 -6 -22
-3 -25 23 -25 16 0 42 5 58 11 15 7 59 11 97 10 52 -2 73 2 87 15 17 15 22 15
56 2 29 -11 56 -13 113 -8 45 5 82 4 93 -2 13 -6 28 -6 47 2 15 6 43 9 63 5
21 -4 37 -3 41 4 9 14 91 14 116 1 13 -7 21 -6 29 4 8 9 25 12 55 9 26 -3 46
-1 50 6 10 16 41 13 57 -5 9 -11 21 -14 43 -9 17 4 51 6 76 6 25 -1 54 2 65 7
56 26 71 29 99 19 20 -7 34 -7 47 1 9 6 37 12 61 13 23 1 53 8 65 15 12 8 24
10 27 5 11 -16 69 -18 100 -3 22 12 68 16 173 17 105 2 147 6 159 16 11 9 50
15 113 17 53 2 101 8 108 14 12 9 161 13 170 4 3 -3 20 2 37 11 25 14 68 18
229 20 109 1 215 7 235 12 53 15 308 33 348 25 19 -3 34 -2 34 3 0 14 73 34
84 23 5 -5 19 -4 35 2 14 6 64 13 111 17 47 3 84 10 83 16 -2 13 154 18 162 6
3 -5 31 -22 63 -38 31 -15 62 -34 68 -42 6 -8 18 -12 27 -8 10 3 17 -1 20 -13
3 -11 18 -25 34 -32 15 -7 39 -20 52 -30 13 -10 31 -18 40 -18 10 0 27 -13 39
-30 12 -16 37 -37 55 -46 17 -9 41 -25 52 -35 11 -10 41 -29 65 -42 25 -14 64
-35 86 -47 23 -12 61 -40 84 -61 23 -22 51 -39 61 -39 11 0 27 -9 36 -20 10
-11 21 -20 26 -20 5 0 30 -15 56 -33 25 -19 75 -51 111 -72 36 -21 67 -42 70
-46 3 -4 17 -10 32 -14 15 -4 58 -34 95 -67 37 -33 79 -65 93 -72 14 -6 31
-16 38 -23 7 -7 19 -13 27 -13 7 0 19 -13 27 -30 7 -17 21 -30 31 -30 22 0 72
-35 105 -72 13 -16 31 -28 41 -28 9 0 35 -9 56 -20 22 -11 45 -18 51 -16 7 3
20 -5 31 -16 12 -15 14 -22 6 -25 -7 -2 -24 -14 -40 -26 -15 -12 -46 -27 -68
-34 -22 -6 -72 -23 -111 -37 -70 -25 -136 -37 -314 -56 -52 -6 -104 -15 -115
-19 -40 -17 -194 -37 -350 -45 -27 -2 -70 -8 -95 -14 -25 -6 -79 -19 -120 -28
-41 -10 -113 -19 -160 -20 -96 -2 -230 -12 -275 -20 -59 -11 -112 -15 -246
-18 -82 -2 -144 -8 -159 -16 -15 -8 -40 -10 -71 -6 -29 4 -49 3 -49 -3 0 -5
-26 -11 -57 -14 -32 -2 -75 -9 -95 -15 -22 -5 -38 -6 -38 -1 0 5 -11 9 -25 9
-14 0 -25 -4 -25 -9 0 -4 -35 -11 -77 -15 -80 -6 -158 -16 -343 -41 -104 -14
-126 -19 -245 -49 -33 -9 -83 -16 -112 -16 -33 0 -55 -5 -60 -14 -8 -13 -35
-19 -170 -36 -40 -5 -81 -14 -92 -19 -11 -6 -35 -11 -54 -11 -19 0 -47 -6 -63
-14 -16 -8 -51 -16 -78 -17 -27 -2 -58 -10 -69 -19 l-20 -17 21 -21 c27 -27
53 -30 83 -11 31 21 78 29 104 19 13 -5 28 -3 40 6 10 8 33 14 51 14 18 0 36
5 40 11 4 8 28 10 67 6 33 -3 71 -1 84 4 15 6 31 6 41 0 10 -6 24 -5 37 2 11
6 39 9 62 8 23 -1 44 3 48 9 3 5 19 10 34 10 15 0 31 3 35 8 4 4 53 8 109 8
65 1 102 5 105 13 2 6 20 11 41 11 20 0 42 5 49 12 8 8 44 11 103 10 60 -1 99
3 113 12 11 7 50 14 86 15 36 1 69 6 74 11 6 6 27 10 48 10 28 0 38 4 38 16 0
12 7 14 33 9 17 -4 34 -11 35 -16 5 -12 32 -11 32 1 0 5 9 14 21 20 16 9 26 8
44 -4 31 -21 75 -21 75 -1 0 8 8 16 18 16 68 5 89 7 105 14 11 4 23 3 30 -4
13 -13 51 -15 42 -2 -3 5 -1 12 4 15 5 3 12 -1 15 -9 4 -12 10 -13 25 -5 11 5
42 10 70 10 27 0 51 4 53 9 2 5 47 11 101 14 57 3 104 10 113 17 11 10 20 10
37 2 20 -10 66 -17 77 -12 6 3 22 5 95 14 28 4 61 8 75 11 62 11 276 33 282
29 4 -2 9 0 13 6 3 5 30 10 58 10 29 0 68 5 87 11 49 15 139 29 250 38 95 9
130 17 130 31 0 11 176 43 198 36 19 -6 112 29 123 46 4 6 44 14 90 20 46 5
93 15 104 21 11 6 31 10 45 8 37 -3 90 -30 90 -45 0 -15 54 -56 74 -56 8 0 18
-4 21 -10 3 -5 14 -10 24 -10 9 0 32 -16 51 -35 19 -19 41 -35 50 -35 8 0 44
-27 79 -60 35 -34 84 -71 110 -85 25 -13 62 -40 81 -59 28 -30 32 -40 24 -54
-10 -15 -27 -17 -132 -14 -71 2 -135 -1 -155 -7 -18 -6 -60 -12 -92 -14 -33
-2 -76 -10 -95 -20 -30 -14 -105 -29 -265 -53 -16 -3 -59 -12 -95 -21 -87 -21
-206 -19 -231 3 -12 11 -28 14 -46 11 -69 -14 -89 -19 -108 -27 -11 -5 -38
-11 -61 -13 -23 -3 -56 -12 -75 -21 -74 -34 -321 -62 -634 -71 -104 -3 -196
-5 -202 -5 -19 2 -288 -5 -366 -9 -15 0 -35 -10 -44 -21 -10 -11 -29 -20 -44
-20 -15 0 -61 -11 -102 -25 -42 -13 -83 -22 -91 -19 -8 3 -25 -2 -39 -11 -15
-9 -52 -17 -95 -19 -38 -2 -74 -6 -79 -9 -6 -4 -34 -11 -64 -16 -30 -5 -81
-16 -114 -24 -33 -8 -94 -15 -135 -16 -41 -1 -79 -5 -84 -9 -6 -3 -28 -9 -51
-13 -22 -4 -53 -11 -70 -17 -77 -26 -106 -32 -166 -32 -35 0 -91 -7 -124 -15
-33 -8 -78 -14 -100 -15 -70 -1 -213 -84 -201 -116 3 -8 1 -14 -5 -14 -14 0
-33 16 -98 80 -31 30 -74 70 -96 88 -22 19 -68 61 -101 93 -34 32 -69 59 -77
59 -8 0 -17 7 -20 15 -4 8 -25 26 -49 41 -24 15 -54 38 -68 51 -14 14 -42 34
-62 44 -21 11 -38 24 -38 30 0 21 -264 259 -287 259 -22 0 -14 21 17 48 17 15
30 33 30 42 1 19 62 50 99 50 36 0 59 37 42 69 -12 22 -31 29 -31 11 0 -5 -16
-10 -36 -10 -31 0 -35 2 -24 15 7 8 20 15 29 15 9 0 22 5 28 11 6 6 32 12 57
14 59 4 80 20 72 57 -4 23 -2 28 13 28 11 0 21 -5 23 -12 2 -6 27 -14 55 -18
48 -6 54 -4 79 22 22 24 33 29 68 26 31 -2 41 1 41 12 0 9 10 15 25 15 39 1
104 26 119 47 8 13 21 18 33 14 11 -2 31 2 44 10 13 9 50 17 84 18 34 2 65 7
68 13 9 13 39 24 82 29 19 3 44 14 55 24 12 11 29 20 39 20 9 0 31 7 47 16 28
14 32 14 50 -2 10 -9 19 -22 19 -28 0 -6 12 -24 25 -39 44 -50 215 -74 262
-37 14 11 35 20 47 21 11 0 35 9 51 20 17 10 37 22 45 26 8 4 38 24 67 45 29
21 56 38 62 38 16 0 71 76 77 107 11 58 -76 186 -144 211 -86 30 -129 37 -192
29 -144 -18 -165 -25 -211 -73 -76 -79 -83 -85 -122 -105 -32 -17 -57 -20
-155 -19 -119 1 -194 -10 -200 -29 -5 -16 -38 -13 -52 4 -18 22 -63 19 -165
-11 -49 -14 -108 -30 -130 -35 -22 -6 -53 -15 -70 -21 -16 -5 -50 -14 -75 -19
-25 -5 -49 -15 -55 -22 -5 -7 -26 -19 -45 -27 -19 -7 -59 -24 -89 -38 -30 -14
-70 -25 -90 -26 -27 -1 -37 -6 -41 -20 -5 -17 -100 -76 -123 -76 -5 0 -28 -13
-52 -29 -24 -16 -54 -32 -66 -36 -29 -10 -99 -74 -99 -92 0 -24 -25 -13 -53
22 -15 19 -33 35 -40 35 -7 0 -33 20 -57 45 -24 25 -50 45 -57 45 -7 0 -13 5
-13 10 0 12 -2 12 40 0 25 -7 39 -6 54 3 12 8 54 19 94 26 53 10 75 18 83 33
8 15 17 18 40 13 20 -5 36 -2 47 8 20 16 135 49 171 48 13 -1 29 3 35 8 6 4
27 11 47 14 47 7 109 33 109 46 0 10 -39 16 -85 13 -11 0 -68 -3 -128 -5 -59
-3 -114 -10 -121 -16 -8 -7 -18 -11 -22 -9 -16 4 -94 -14 -99 -23 -3 -4 -28
-11 -56 -15 -27 -4 -52 -11 -55 -15 -3 -5 -17 -9 -32 -9 -40 0 -113 -24 -126
-42 -6 -8 -23 -18 -37 -21 -21 -5 -28 -3 -32 13 -3 11 -14 20 -24 20 -11 0
-40 20 -65 45 -25 25 -51 45 -57 45 -10 0 -33 19 -89 71 -15 14 -47 39 -71 55
-24 16 -54 36 -67 45 -13 8 -34 26 -48 40 -13 13 -36 33 -51 44 -42 31 -110
89 -113 98 -2 4 -9 7 -16 7 -7 0 -27 16 -46 35 -19 19 -39 35 -46 35 -18 0
-314 284 -314 302 0 4 -16 15 -36 24 -29 14 -40 15 -55 6 -26 -16 -54 -15 -69
3 -7 8 -21 15 -31 15 -10 0 -21 5 -24 10 -11 18 -114 90 -128 90 -8 0 -31 16
-52 35 -21 20 -50 38 -64 41 -32 7 -58 41 -43 56 6 6 28 7 54 3 65 -12 245 -7
270 6 12 7 63 13 113 14 49 2 111 8 136 13 25 6 118 11 207 11 89 0 167 3 173
7 6 3 52 6 103 5 67 -1 102 3 131 15 31 13 73 18 180 19 166 2 377 20 406 35
11 7 38 8 64 4 25 -3 53 -3 62 1 16 7 349 15 614 15 82 0 100 3 119 20 25 22
45 26 55 10 8 -13 52 -13 60 -1 3 6 83 10 178 11 94 1 197 3 227 6 178 13 368
20 385 14 11 -4 58 -3 105 1 47 5 150 10 228 13 79 2 147 7 150 11 4 3 17 3
30 0 14 -3 38 -9 56 -12z m-2750 -3438 c2 -6 -3 -19 -10 -30 -13 -18 -15 -18
-30 -3 -9 9 -14 23 -11 32 7 17 44 18 51 1z"/>
<path d="M5062 5898 c-17 -18 -35 -20 -165 -22 -90 -2 -151 -7 -159 -14 -8 -6
-23 -11 -33 -11 -42 1 -164 -9 -250 -21 -49 -6 -123 -12 -164 -11 -41 0 -80
-4 -87 -10 -9 -7 -19 -7 -30 -1 -12 7 -30 5 -57 -4 -22 -8 -49 -12 -59 -8 -10
3 -25 1 -32 -5 -7 -6 -69 -13 -137 -16 -68 -2 -148 -9 -178 -15 -29 -5 -64 -7
-77 -4 -15 4 -34 0 -49 -10 -16 -11 -47 -16 -93 -16 -37 0 -73 -5 -78 -10 -8
-8 -20 -7 -39 0 -16 6 -41 8 -55 4 -14 -4 -27 -8 -30 -8 -3 -1 -10 -5 -16 -9
-7 -4 -23 -7 -35 -7 -60 -1 -145 -13 -153 -21 -6 -5 -18 -9 -27 -9 -14 0 -37
-29 -27 -34 48 -25 305 -28 375 -5 18 6 37 8 42 4 5 -3 81 3 168 14 87 11 219
24 293 31 74 6 153 16 175 21 22 6 72 10 110 10 39 -1 95 4 125 10 30 5 75 10
99 9 27 -1 47 4 52 12 5 8 31 13 69 14 46 1 64 6 74 19 11 15 16 16 35 5 14
-7 44 -10 79 -6 32 3 80 7 108 9 28 2 57 8 64 12 8 5 48 9 89 10 74 2 151 25
151 46 0 5 14 6 30 3 17 -4 30 -3 30 2 -1 22 -20 36 -67 48 -47 13 -52 12 -71
-6z"/>
<path d="M5780 5749 c-25 -5 -56 -7 -69 -4 -13 4 -30 0 -40 -8 -9 -8 -32 -17
-51 -21 -91 -16 -179 -29 -215 -31 -22 -2 -51 -8 -65 -13 -21 -10 -97 -18
-425 -48 -88 -8 -146 -19 -145 -26 0 -5 0 -19 0 -33 0 -21 5 -25 30 -25 22 0
28 -4 23 -15 -5 -14 12 -15 132 -12 120 4 140 6 152 22 7 11 13 14 13 7 0 -17
62 -25 95 -11 30 12 101 23 224 35 40 4 72 13 83 24 13 12 38 17 96 18 42 2
78 6 80 11 2 5 23 6 48 3 31 -3 50 0 62 10 27 24 69 30 113 16 46 -13 113 -1
155 30 60 44 6 72 -146 77 -58 2 -125 -1 -150 -6z"/>
<path d="M2525 5648 c-16 -4 -39 -6 -50 -4 -11 3 -40 0 -65 -5 -25 -5 -65 -9
-89 -9 -42 1 -140 -18 -151 -30 -8 -8 -72 -32 -103 -37 -15 -3 -30 -9 -33 -14
-3 -5 -23 -9 -46 -9 -32 0 -39 -3 -34 -16 3 -9 6 -18 6 -20 0 -12 56 -1 89 18
37 21 39 21 74 5 43 -21 64 -21 83 -2 8 8 31 17 52 20 49 8 111 25 139 38 13
6 26 7 30 4 3 -4 13 -1 21 5 8 7 41 13 73 13 48 0 59 3 59 16 0 26 -22 37 -55
27z"/>
<path d="M2760 5650 c0 -5 7 -10 15 -10 8 0 15 5 15 10 0 6 -7 10 -15 10 -8 0
-15 -4 -15 -10z"/>
<path d="M4675 5599 c-11 -16 24 -48 46 -42 25 7 25 29 0 43 -25 13 -38 13
-46 -1z"/>
<path d="M5845 5470 c-38 -4 -113 -16 -165 -27 -52 -12 -125 -21 -162 -21 -38
-1 -77 -6 -87 -11 -11 -6 -36 -10 -58 -9 -21 1 -58 -4 -83 -10 -25 -6 -76 -19
-115 -27 -38 -9 -75 -21 -82 -27 -10 -8 -17 -8 -25 0 -31 31 -178 -8 -178 -47
0 -10 17 -33 37 -51 38 -35 81 -42 109 -19 15 13 46 19 114 25 30 3 57 8 60
12 3 4 26 19 52 32 45 23 49 24 75 9 31 -18 51 -15 71 10 9 12 32 17 85 18 40
2 92 10 117 19 26 9 81 17 130 18 47 1 92 6 100 11 8 5 42 12 76 16 43 4 67
12 83 28 26 26 26 31 4 31 -10 0 -27 7 -37 15 -11 8 -27 14 -35 14 -9 -1 -47
-5 -86 -9z"/>
<path d="M6755 5231 c-41 -17 -122 -34 -178 -37 -32 -2 -68 -9 -80 -15 -12 -7
-31 -13 -42 -15 -96 -13 -123 -19 -140 -30 -11 -8 -32 -14 -47 -14 -15 0 -29
-4 -32 -9 -4 -5 -30 -12 -59 -16 -28 -4 -56 -11 -62 -15 -16 -12 -66 -22 -125
-24 -30 -1 -86 -12 -125 -23 -38 -12 -104 -27 -145 -33 -41 -6 -106 -20 -145
-31 -38 -10 -83 -19 -100 -19 -58 0 -170 -16 -191 -27 -12 -7 -52 -15 -89 -18
-37 -3 -75 -9 -84 -14 -9 -4 -43 -11 -76 -15 -33 -3 -73 -8 -90 -11 -16 -2
-75 -7 -130 -11 -55 -4 -106 -11 -113 -17 -7 -5 -59 -12 -115 -15 -56 -2 -107
-9 -114 -14 -6 -5 -90 -14 -185 -19 -117 -7 -189 -16 -223 -28 -34 -12 -86
-18 -159 -20 -61 -1 -118 -7 -127 -12 -10 -5 -28 -9 -41 -9 -14 0 -43 -9 -67
-20 l-42 -21 7 -44 c6 -44 6 -45 -20 -45 -17 0 -25 -4 -20 -11 3 -6 17 -8 33
-4 34 9 249 37 281 37 14 0 33 7 43 16 18 16 65 21 197 21 48 0 76 6 105 22
32 18 60 22 145 25 58 1 137 8 175 14 39 7 94 12 123 11 28 0 52 4 52 9 0 15
65 31 136 32 38 0 78 5 88 10 11 6 53 12 93 14 41 1 80 7 86 12 17 13 94 25
156 23 29 -1 92 7 140 18 47 11 109 25 136 32 28 6 63 11 80 11 16 1 35 6 41
13 7 7 56 15 111 19 53 4 109 14 123 21 35 19 136 38 160 30 11 -3 20 -2 20 3
0 6 24 12 53 15 62 6 121 19 162 38 17 7 48 14 70 15 22 1 44 9 51 19 10 13
19 15 46 7 23 -6 50 -4 88 5 51 13 128 26 225 39 108 14 103 11 103 53 1 55
-24 76 -83 68 -27 -4 -45 -3 -45 3 0 12 -7 12 -35 1z"/>
<path d="M7560 4740 c-8 -5 -29 -10 -45 -10 -17 0 -36 -5 -43 -12 -9 -9 -18
-9 -36 0 -21 9 -28 8 -42 -5 -10 -10 -18 -12 -22 -6 -10 15 -134 25 -168 13
-17 -6 -41 -6 -59 -2 -22 6 -55 2 -119 -15 -86 -23 -185 -37 -346 -50 -41 -3
-100 -13 -130 -23 -30 -10 -93 -23 -140 -29 -47 -7 -105 -16 -128 -22 -24 -5
-65 -7 -90 -3 -26 3 -67 0 -92 -6 -51 -13 -142 -28 -212 -34 -27 -3 -76 -12
-110 -21 -35 -9 -114 -20 -176 -24 -64 -4 -117 -12 -124 -19 -7 -7 -34 -12
-60 -12 -27 0 -115 -11 -195 -25 -80 -14 -154 -23 -164 -20 -9 3 -20 1 -24 -5
-3 -5 -35 -10 -70 -10 -35 0 -97 -7 -137 -16 -40 -9 -102 -20 -138 -24 -82 -9
-269 -38 -335 -51 -27 -5 -75 -11 -105 -14 -96 -8 -176 -22 -198 -34 -11 -6
-45 -11 -75 -11 -30 0 -68 -5 -86 -11 -26 -9 -31 -15 -25 -33 7 -26 31 -45 64
-52 14 -3 35 -10 47 -16 16 -8 26 -8 35 0 7 6 51 13 98 17 47 4 119 13 160 22
41 8 87 17 103 20 19 4 27 11 27 25 0 20 1 20 27 3 32 -21 71 -21 150 -1 32 8
87 16 122 17 47 2 69 7 83 21 19 19 38 24 38 9 0 -10 75 -4 105 9 20 9 65 14
215 26 41 4 80 10 85 13 6 4 28 8 50 10 22 1 59 9 82 17 27 8 60 11 88 7 35
-4 49 -2 58 9 9 12 40 17 122 21 113 6 182 18 247 45 20 8 61 15 91 16 29 2
59 6 67 11 8 5 64 9 124 11 168 3 166 2 166 20 0 13 7 15 34 10 21 -4 37 -2
41 5 5 7 23 9 51 4 30 -4 50 -2 66 8 13 8 78 20 148 27 69 7 131 17 138 23 12
9 99 20 266 33 55 4 84 11 98 23 10 10 28 16 41 14 12 -2 65 5 117 17 52 12
115 26 140 31 25 6 68 13 97 18 59 8 68 13 60 36 -7 17 -34 20 -57 5z"/>
<path d="M2195 4798 c4 -18 16 -58 27 -88 14 -38 20 -83 21 -145 2 -100 -8
-260 -18 -275 -3 -5 -1 -19 5 -30 6 -11 8 -26 3 -32 -4 -7 -6 -30 -4 -51 1
-21 -3 -44 -9 -52 -6 -7 -14 -51 -16 -97 -3 -46 -7 -100 -11 -120 -7 -48 3
-88 22 -88 16 0 21 25 6 34 -12 8 3 70 23 101 9 13 16 35 16 48 0 14 7 41 15
61 8 20 15 38 14 41 0 3 8 25 19 48 22 46 42 201 37 282 -2 28 -4 87 -5 132
-3 75 -5 82 -27 94 -18 10 -23 19 -20 36 2 12 0 24 -5 25 -5 2 -15 26 -22 53
-11 46 -15 50 -45 53 -32 3 -33 3 -26 -30z"/>
<path d="M1923 4759 c3 -12 2 -29 -3 -38 -15 -30 -29 -116 -26 -166 1 -27 -1
-63 -6 -80 -5 -16 -11 -100 -14 -185 -7 -194 -7 -176 6 -235 9 -41 33 -221 44
-325 2 -14 6 -32 9 -40 4 -8 8 -34 10 -57 1 -23 6 -45 10 -49 3 -4 4 -17 1
-29 -3 -13 -1 -26 5 -29 5 -4 8 -13 5 -21 -3 -8 4 -26 15 -41 12 -15 21 -33
21 -40 0 -8 4 -22 9 -32 37 -73 62 -137 59 -155 -3 -29 9 -47 33 -47 15 0 19
7 19 38 0 20 -8 60 -19 87 -10 28 -21 88 -24 134 -4 46 -13 94 -21 106 -11 16
-12 33 -5 69 7 37 5 54 -7 78 -8 16 -13 36 -10 44 3 8 -1 25 -9 38 -10 14 -17
57 -20 112 -6 126 -14 232 -19 283 -3 24 0 53 5 63 7 13 7 29 1 48 -7 19 -7
31 1 39 7 7 7 22 -3 50 -12 37 -11 56 5 108 5 15 0 28 -14 42 -23 23 -27 56
-10 98 16 38 11 106 -7 116 -7 4 -14 15 -14 22 0 8 -7 15 -16 15 -12 0 -15 -6
-11 -21z"/>
<path d="M3038 4123 c-20 -3 -28 -12 -33 -34 -4 -18 -2 -36 5 -44 10 -12 10
-22 -1 -46 -12 -29 -15 -156 -4 -167 3 -3 0 -11 -6 -19 -12 -13 -20 -82 -22
-190 -1 -35 -5 -63 -9 -63 -13 0 -9 -23 8 -41 11 -12 13 -23 6 -35 -11 -20 13
-74 34 -74 8 0 14 -4 14 -10 0 -5 -7 -7 -16 -3 -13 5 -15 2 -9 -16 5 -16 2
-26 -10 -35 -15 -11 -15 -13 3 -29 17 -15 18 -24 10 -74 -5 -31 -5 -59 -1 -62
5 -3 9 -17 10 -31 7 -131 17 -211 29 -244 9 -22 12 -51 9 -67 -5 -21 0 -37 15
-59 19 -27 20 -34 10 -66 -11 -32 -10 -38 9 -55 11 -10 27 -19 36 -19 19 0 32
29 17 39 -7 4 -10 42 -8 111 2 65 -1 111 -8 122 -8 14 -8 23 2 39 9 13 10 25
4 32 -13 15 -18 107 -8 130 5 9 3 36 -3 60 -7 23 -12 47 -12 52 0 6 3 39 6 75
3 36 6 89 7 118 1 28 4 52 7 52 11 0 4 145 -7 173 -9 21 -9 34 -1 49 9 16 7
23 -10 35 -16 11 -21 25 -21 61 0 30 -8 59 -20 80 -13 22 -18 38 -12 45 7 9
15 222 8 216 0 -1 -13 -4 -28 -6z"/>
<path d="M6326 4018 c-3 -7 -9 -28 -15 -47 -6 -19 -11 -46 -11 -62 0 -15 -4
-29 -8 -31 -5 -1 -5 -34 -1 -73 8 -76 3 -230 -11 -338 -5 -42 -5 -81 2 -104 5
-20 7 -57 4 -82 -8 -62 -10 -367 -3 -378 3 -5 4 -37 2 -71 -2 -34 -1 -62 3
-62 4 0 7 -45 7 -100 1 -110 8 -126 50 -116 24 6 26 10 20 34 -12 47 -4 167
13 184 6 6 5 26 -4 55 -8 27 -10 50 -5 57 13 16 24 93 15 107 -4 6 -9 53 -11
103 -5 115 -5 99 3 186 3 41 7 131 9 200 2 69 5 145 6 170 1 25 2 68 0 95 -2
67 2 122 12 131 10 11 9 24 -3 24 -5 0 -10 -7 -10 -16 0 -8 -4 -12 -10 -9 -5
3 -7 25 -4 49 5 33 2 52 -12 75 -19 33 -32 39 -38 19z"/>
<path d="M5650 3872 c-20 -2 -28 -12 -38 -43 -8 -27 -9 -46 -3 -58 14 -25 10
-63 -7 -83 -9 -11 -12 -24 -7 -35 5 -10 10 -187 12 -393 2 -206 4 -382 4 -390
0 -8 -2 -45 -5 -82 -3 -45 -1 -68 6 -68 7 0 8 -14 4 -40 -3 -22 0 -77 8 -123
8 -46 12 -93 9 -105 -8 -31 5 -72 22 -72 8 0 17 10 20 23 9 38 28 230 27 272
-2 75 -8 120 -16 133 -4 7 -2 19 5 28 9 11 13 46 12 107 -1 53 3 97 9 105 8 9
8 19 -1 36 -9 16 -10 43 -4 97 10 87 9 217 -2 276 -6 33 -3 51 14 87 20 40 21
47 8 68 -24 38 -29 74 -12 88 21 18 19 52 -6 79 -15 15 -20 31 -17 52 5 34 -7
46 -42 41z"/>
<path d="M3240 3795 c0 -50 10 -57 32 -22 11 16 12 28 5 45 -18 39 -37 27 -37
-23z"/>
<path d="M6566 3795 c-3 -9 0 -15 9 -15 16 0 20 16 6 24 -5 3 -11 -1 -15 -9z"/>
<path d="M5331 3716 c-19 -20 -22 -34 -21 -92 1 -38 -4 -98 -10 -134 -7 -36
-13 -126 -15 -200 -2 -74 -4 -139 -5 -145 -1 -5 1 -44 5 -85 9 -105 9 -181 1
-208 -5 -13 -3 -29 3 -36 7 -9 10 -44 7 -95 -2 -45 0 -84 5 -87 5 -3 9 -16 9
-29 0 -14 9 -41 20 -60 11 -20 21 -47 22 -61 1 -13 5 -24 9 -24 14 0 18 47 8
84 -7 26 -7 46 0 65 5 14 10 67 10 116 0 50 2 104 4 120 3 17 2 49 -3 72 -4
24 -3 46 2 51 6 6 5 17 -3 30 -11 18 -10 24 3 39 10 11 14 24 9 33 -16 28 -22
121 -11 135 12 14 9 103 -4 123 -3 6 -2 13 4 17 5 3 7 19 3 35 -3 19 0 39 11
55 14 22 15 31 4 66 -9 32 -9 45 0 60 16 25 15 76 0 81 -8 3 -12 19 -10 43 3
24 -1 41 -10 46 -19 13 -22 11 -47 -15z"/>
<path d="M5940 3725 c-8 -10 -10 -25 -5 -42 9 -32 11 -137 6 -313 -5 -141 6
-265 24 -280 8 -6 17 -6 28 3 15 11 15 18 3 69 -11 50 -11 59 3 72 8 9 16 32
17 51 0 20 6 46 13 58 10 19 9 31 -2 65 -8 23 -11 45 -6 47 4 3 3 17 -3 30 -9
19 -8 31 2 49 7 14 10 36 6 51 -4 15 -2 33 4 40 9 10 7 20 -4 38 -9 13 -13 26
-10 29 8 9 -33 48 -50 48 -7 0 -19 -7 -26 -15z"/>
<path d="M3226 3708 c-24 -117 -29 -351 -10 -465 7 -46 11 -90 8 -98 -4 -8 -1
-21 4 -28 7 -8 12 -67 12 -143 1 -114 4 -131 21 -144 13 -10 19 -29 21 -58 1
-44 4 -47 28 -32 11 7 16 33 18 102 1 51 5 121 8 155 5 48 3 69 -9 86 -13 20
-18 64 -19 147 0 8 4 63 8 123 6 88 4 110 -8 125 -12 14 -13 33 -7 102 9 105
5 122 -28 138 -37 17 -42 15 -47 -10z"/>
<path d="M4672 3717 c-14 -16 -31 -99 -30 -147 0 -43 -24 -176 -34 -186 -4 -3
-3 -16 3 -26 6 -12 8 -35 4 -57 -8 -37 -7 -128 1 -191 2 -19 4 -48 3 -65 -1
-16 -1 -69 -1 -117 2 -116 2 -94 1 -328 0 -136 3 -206 10 -208 6 -2 11 -15 11
-28 0 -14 6 -24 14 -24 34 0 58 76 32 103 -14 13 -14 19 -1 43 7 15 11 40 8
55 -3 15 0 66 6 114 7 48 15 182 18 299 6 217 6 235 3 371 -1 51 2 81 9 83 13
4 15 78 3 86 -5 3 -8 44 -7 91 2 66 -1 88 -12 92 -7 3 -13 10 -12 17 4 36 -9
47 -29 23z"/>
<path d="M6560 3711 c0 -12 -4 -21 -8 -21 -5 0 -15 -26 -24 -57 -12 -44 -15
-94 -13 -203 10 -513 8 -818 -6 -941 -11 -86 -10 -98 6 -122 23 -36 45 -19 45
34 0 21 5 41 10 44 6 3 10 23 10 43 0 20 7 50 15 66 12 23 14 46 9 98 -4 42
-3 73 4 80 16 21 25 140 13 183 -7 27 -7 42 0 52 7 7 8 31 4 60 -3 27 -2 68 4
92 7 31 6 49 -2 62 -8 13 -8 41 1 106 9 68 9 97 0 127 -10 31 -10 40 0 44 16
5 15 23 -4 61 -13 26 -13 35 -3 47 18 22 18 76 0 97 -8 10 -16 28 -16 40 0 15
-7 23 -22 25 -18 3 -23 -2 -23 -17z"/>
<path d="M4205 3631 c-3 -6 -6 -30 -5 -53 0 -24 -2 -64 -6 -90 -4 -26 -2 -67
5 -91 6 -25 13 -78 17 -118 3 -41 9 -83 14 -94 9 -22 33 -214 32 -255 -3 -90
0 -155 8 -170 6 -11 5 -21 -2 -28 -6 -6 -7 -19 -3 -29 4 -10 8 -58 8 -108 2
-62 7 -100 19 -123 10 -20 15 -45 11 -65 -3 -23 0 -37 11 -46 9 -7 16 -22 16
-32 0 -11 4 -19 8 -19 12 0 43 35 37 41 -11 11 -23 313 -13 340 5 16 7 36 4
44 -3 8 -7 85 -10 170 -2 90 -8 161 -15 168 -8 10 -7 17 1 25 9 9 9 17 0 34
-7 13 -14 64 -17 113 -2 50 -7 118 -9 152 -5 65 -32 183 -44 193 -4 3 -12 14
-18 25 -13 23 -39 31 -49 16z"/>
<path d="M3832 3513 c3 -22 3 -70 -1 -106 -4 -37 -4 -73 1 -80 9 -17 9 -28 4
-234 -2 -90 0 -163 4 -163 14 0 4 -238 -10 -255 -9 -11 -10 -30 -5 -63 4 -26
6 -67 6 -92 -2 -40 2 -47 28 -63 40 -23 44 -22 66 19 16 29 17 39 6 55 -9 16
-9 24 -1 34 8 10 10 32 5 64 -4 31 -3 51 4 56 6 3 9 10 7 14 -11 17 -15 227
-5 268 7 32 6 49 -2 59 -6 7 -8 22 -4 33 3 10 1 22 -5 26 -8 5 -7 12 4 24 10
11 12 21 6 31 -9 15 -3 69 11 84 4 5 4 18 -2 28 -6 10 -7 28 -4 39 4 11 2 26
-5 34 -8 10 -7 15 5 22 14 8 14 16 -2 88 -19 82 -31 97 -87 111 -29 7 -29 7
-24 -33z"/>
<path d="M3469 3453 c-11 -3 -16 -15 -16 -42 0 -20 -4 -68 -7 -105 -6 -48 -4
-71 5 -82 7 -8 13 -38 15 -67 1 -29 8 -65 14 -82 7 -16 17 -68 22 -115 6 -47
17 -96 25 -108 9 -14 14 -43 13 -70 -4 -71 -3 -72 34 -72 34 0 35 0 41 54 9
69 -3 157 -23 172 -13 9 -13 14 3 37 16 25 16 31 2 74 -8 25 -14 64 -12 87 1
22 -2 50 -7 62 -7 15 -6 28 1 43 10 17 9 22 -3 27 -17 7 -26 25 -37 79 -22
112 -27 120 -70 108z"/>
<path d="M3595 2678 c-8 -21 0 -48 15 -48 12 0 12 17 0 45 -7 18 -8 19 -15 3z"/>
<path d="M5655 2290 c-3 -5 -1 -10 4 -10 6 0 11 5 11 10 0 6 -2 10 -4 10 -3 0
-8 -4 -11 -10z"/>
</g>
</svg>
