<?xml version="1.0" standalone="no"?>
<!DOCTYPE svg PUBLIC "-//W3C//DTD SVG 20010904//EN"
 "http://www.w3.org/TR/2001/REC-SVG-20010904/DTD/svg10.dtd">
<svg version="1.0" xmlns="http://www.w3.org/2000/svg"
 width="807.000000pt" height="445.000000pt" viewBox="0 0 807.000000 445.000000"
 preserveAspectRatio="xMidYMid meet">

<g transform="translate(0.000000,445.000000) scale(0.100000,-0.100000)"
fill="#000000" stroke="none">
<path d="M7175 4215 c-27 -7 -53 -11 -57 -9 -4 2 -25 -3 -48 -12 -31 -12 -44
-14 -53 -5 -16 16 -94 14 -104 -3 -6 -9 -36 -15 -103 -18 -86 -4 -100 -7 -145
-37 -32 -20 -61 -31 -80 -30 -16 1 -38 -2 -48 -6 -9 -4 -27 -5 -40 -2 -12 4
-40 2 -62 -3 -22 -6 -103 -12 -180 -15 -124 -5 -145 -3 -185 14 -99 42 -129
50 -235 60 -118 10 -485 6 -905 -12 -187 -8 -355 -26 -395 -42 -26 -12 -52
-15 -81 -10 -24 3 -52 2 -62 -4 -11 -6 -52 -13 -93 -15 -223 -17 -329 -28
-375 -41 -29 -8 -66 -12 -82 -9 -17 4 -70 0 -119 -7 -48 -7 -108 -14 -133 -16
-25 -1 -72 -5 -105 -7 -33 -2 -121 -9 -195 -14 -145 -10 -158 -11 -264 -12
-38 -1 -74 -4 -79 -7 -6 -3 -44 -8 -86 -9 -124 -5 -209 -18 -246 -37 -11 -6
-67 -12 -124 -15 -58 -2 -116 -9 -130 -16 -29 -15 -138 -10 -158 6 -9 7 -22 7
-40 0 -16 -6 -53 -16 -83 -22 -30 -6 -64 -15 -75 -20 -11 -5 -49 -11 -85 -14
-36 -3 -86 -8 -112 -12 -26 -3 -62 -1 -81 5 -27 9 -39 8 -67 -5 -27 -14 -44
-15 -95 -8 -34 6 -75 6 -90 2 -16 -4 -36 -3 -47 3 -10 6 -26 8 -36 5 -9 -3
-114 -8 -232 -11 -118 -3 -246 -10 -283 -16 -38 -5 -73 -7 -78 -3 -11 7 -121
-26 -130 -38 -3 -5 -18 -4 -32 1 -35 14 -128 -3 -144 -26 -17 -22 -16 -58 2
-93 11 -21 13 -45 9 -88 -4 -38 -2 -67 6 -82 16 -30 2 -38 -58 -32 -38 3 -53
0 -75 -18 -25 -20 -28 -27 -22 -59 4 -20 12 -42 17 -49 14 -16 12 -78 -3 -114
-7 -18 -8 -41 -1 -72 5 -25 7 -48 4 -51 -9 -8 -12 -31 -17 -125 -3 -47 -10
-98 -15 -115 -5 -16 -9 -61 -9 -100 0 -99 -17 -301 -27 -317 -5 -7 -10 -76
-11 -153 -1 -77 -4 -158 -7 -180 -3 -22 -7 -85 -10 -139 -3 -82 -1 -107 15
-143 11 -26 19 -68 19 -98 0 -30 7 -75 16 -101 18 -53 20 -143 5 -173 -7 -13
-8 -28 -2 -44 6 -15 6 -28 0 -34 -6 -6 -12 -32 -15 -59 -3 -27 -13 -65 -23
-84 -25 -48 -32 -117 -21 -186 11 -61 -4 -154 -23 -154 -6 0 -5 -5 1 -12 9
-13 21 -105 27 -217 1 -30 -3 -68 -10 -85 -11 -26 -10 -40 6 -90 10 -32 16
-62 13 -67 -3 -5 1 -16 8 -24 66 -73 79 -78 108 -43 14 18 29 23 81 24 35 2
79 10 99 19 25 11 43 13 60 7 18 -7 31 -5 47 5 16 11 32 13 50 7 16 -4 39 -8
53 -8 32 -1 33 -28 1 -36 -16 -4 -27 -15 -32 -33 -6 -24 -2 -34 26 -63 20 -21
43 -34 58 -34 14 0 27 -5 29 -11 3 -8 23 -5 66 10 38 13 87 21 124 21 52 0
148 21 218 48 8 3 33 6 55 7 22 0 90 7 150 14 91 11 113 17 127 35 17 22 59
27 183 25 89 -1 155 11 155 28 0 28 33 42 97 43 52 0 65 4 75 20 15 24 43 26
52 4 5 -13 20 -14 103 -9 54 4 143 14 198 22 55 8 120 17 144 19 24 3 57 12
73 20 20 11 33 12 42 5 6 -5 37 -9 68 -8 39 1 61 -3 74 -14 16 -13 32 -15 99
-8 44 4 100 5 125 3 27 -3 62 1 87 10 41 15 45 14 93 -11 43 -22 54 -24 76
-15 37 18 68 15 99 -10 22 -17 31 -19 46 -10 29 18 60 15 66 -7 6 -24 55 -31
98 -14 21 8 45 8 83 2 48 -9 55 -8 85 14 23 18 50 26 97 31 36 3 90 8 121 12
37 4 59 2 63 -5 9 -15 49 -14 64 1 8 8 52 11 149 8 164 -4 190 -4 398 -2 183
2 273 -2 296 -12 9 -4 32 -1 50 7 29 12 43 12 89 0 64 -15 98 -21 157 -28 33
-4 45 -1 55 14 17 23 144 35 152 14 6 -15 96 -18 112 -4 5 5 50 2 106 -6 94
-14 97 -14 117 6 25 25 34 26 50 8 13 -17 176 -23 186 -7 4 6 53 7 138 3 73
-4 149 -6 170 -5 69 4 112 3 164 -4 74 -9 118 9 151 59 38 59 46 64 136 72 45
4 97 9 116 11 19 3 85 7 145 10 61 3 125 10 144 16 19 6 60 11 90 12 31 1 62
5 69 10 8 5 57 7 110 5 159 -4 284 2 306 16 12 7 33 15 49 19 15 4 27 11 27
16 0 6 6 10 13 10 26 0 54 43 52 77 -5 57 -95 146 -121 120 -4 -3 -17 -2 -31
4 -15 6 -39 5 -66 -2 -23 -6 -91 -17 -151 -25 -106 -14 -111 -14 -129 5 -14
14 -20 35 -22 78 -1 32 -8 78 -15 103 -21 77 -26 231 -7 260 8 14 8 25 -2 44
-9 16 -11 39 -7 70 4 25 4 52 -1 58 -4 7 -8 67 -9 133 0 66 -8 160 -17 209
-11 62 -13 94 -6 102 9 11 20 158 19 258 0 22 4 44 9 50 8 11 20 105 27 211 2
28 5 73 8 100 2 28 5 59 6 70 1 11 5 29 9 40 15 37 31 116 26 125 -3 5 2 30
11 56 13 39 14 51 3 71 -11 20 -10 26 7 46 15 17 20 36 19 83 0 34 -6 68 -12
75 -8 10 -9 37 -2 99 6 52 6 102 0 130 -5 25 -7 87 -5 139 4 90 11 121 21 94
3 -7 18 -13 34 -13 29 0 29 -1 23 -40 -4 -26 -3 -40 4 -40 33 0 31 79 -3 124
-20 28 -22 40 -19 114 2 45 8 91 14 102 15 28 13 36 -20 67 -16 15 -30 35 -30
43 0 9 18 34 40 55 44 42 50 71 24 110 -24 38 -158 81 -235 76 -26 -1 -50 2
-53 8 -9 15 -79 13 -141 -4z m-1079 -271 c-3 -9 9 -17 37 -25 23 -6 71 -20
105 -31 51 -15 71 -17 96 -8 37 12 118 14 194 5 68 -9 98 -1 105 27 5 20 12
23 55 22 27 0 63 -6 80 -13 22 -9 36 -10 50 -2 12 6 38 11 59 11 21 0 78 9
127 20 111 25 123 25 166 1 27 -14 40 -16 57 -8 18 8 27 6 43 -8 20 -19 28
-75 10 -75 -13 0 -13 -77 -1 -84 12 -8 19 -57 26 -181 4 -55 8 -109 11 -120 2
-11 0 -45 -6 -75 -14 -76 -29 -192 -31 -248 -1 -26 -6 -53 -12 -60 -5 -6 -7
-25 -4 -41 4 -16 2 -43 -3 -61 -5 -17 -12 -57 -15 -88 -3 -31 -12 -66 -19 -77
-7 -11 -15 -43 -18 -71 -3 -28 -12 -64 -20 -81 -8 -16 -13 -44 -11 -60 3 -17
-2 -43 -10 -59 -8 -16 -18 -56 -22 -89 -4 -33 -14 -67 -22 -77 -8 -9 -16 -35
-17 -58 -2 -23 -8 -46 -15 -53 -6 -6 -11 -25 -11 -42 0 -17 -4 -35 -10 -41 -6
-6 -4 -20 6 -39 12 -23 14 -46 9 -100 -7 -80 -7 -74 -6 -224 1 -109 2 -115 31
-158 19 -28 30 -57 30 -76 -3 -85 34 -317 51 -317 3 0 10 -35 14 -77 4 -43 13
-87 21 -98 22 -31 17 -61 -17 -95 -32 -31 -32 -31 -110 -24 -65 5 -83 4 -104
-10 -23 -15 -35 -16 -107 -5 -63 9 -118 9 -247 -1 -91 -7 -176 -16 -190 -21
-13 -6 -54 -9 -90 -8 -36 1 -93 -3 -126 -10 -33 -7 -78 -15 -100 -18 -22 -3
-45 -9 -51 -15 -7 -5 -55 -8 -107 -6 -75 2 -100 -1 -120 -15 -15 -9 -42 -17
-60 -17 -35 0 -101 -23 -111 -38 -3 -5 -28 -7 -55 -4 -42 4 -51 2 -60 -17 -29
-54 -93 -63 -111 -16 -7 19 -19 25 -65 30 -31 4 -78 4 -103 0 -26 -4 -70 -10
-98 -14 -28 -4 -62 -14 -76 -23 -25 -16 -91 -25 -118 -15 -19 6 -148 26 -175
26 -58 0 -194 -25 -220 -41 -36 -22 -65 -23 -65 -3 0 16 -79 15 -380 -4 -74
-5 -150 -9 -169 -10 -19 0 -42 -8 -52 -17 -13 -12 -22 -13 -36 -5 -14 7 -27 6
-47 -4 -40 -21 -95 -29 -119 -17 -24 11 -185 35 -232 35 -16 -1 -88 -5 -160
-10 -71 -5 -151 -5 -177 -2 -25 4 -73 3 -105 -3 -32 -6 -85 -10 -118 -9 -248
7 -607 1 -627 -10 -16 -8 -74 -12 -188 -10 -91 1 -190 -3 -220 -9 -30 -6 -122
-13 -204 -16 -82 -2 -155 -9 -161 -14 -10 -8 -63 -12 -150 -11 -16 0 -40 -6
-53 -15 -13 -9 -42 -14 -70 -13 -26 0 -126 -2 -222 -7 -242 -11 -313 -9 -350
6 -54 22 -65 94 -30 190 13 34 18 64 14 80 -9 31 -9 114 -1 127 4 6 5 66 4
134 -2 114 0 127 21 163 l23 39 -20 28 c-19 26 -20 33 -10 106 6 43 11 85 10
93 -6 66 -6 257 0 265 13 19 20 73 10 79 -15 9 -2 105 19 142 13 23 15 36 7
50 -6 10 -11 59 -11 110 -1 81 2 98 29 153 24 52 27 65 17 81 -8 13 -10 40 -5
81 6 61 6 62 -17 56 l-22 -6 21 23 c13 14 19 29 15 39 -4 11 2 20 19 28 22 10
26 20 32 71 6 53 5 62 -14 79 -12 11 -21 31 -21 45 0 30 24 80 42 88 10 3 8 8
-5 16 -24 15 -14 77 17 105 16 15 23 34 25 70 1 27 4 52 6 55 3 4 0 35 -6 70
-7 44 -7 66 1 76 13 15 25 84 22 134 -1 19 4 58 10 87 l11 52 71 5 c39 3 89 8
111 11 94 16 265 19 279 5 15 -15 -2 -39 -31 -45 -38 -8 -55 -18 -67 -39 -9
-13 -7 -20 7 -30 9 -7 17 -17 17 -22 0 -5 13 -23 28 -41 27 -32 54 -41 82 -30
8 3 78 18 155 32 77 15 156 33 175 40 71 28 117 36 143 24 36 -16 98 -3 104
22 6 23 16 24 33 4 16 -19 53 -19 89 0 48 24 105 29 120 11 17 -20 78 -21 118
-1 17 8 43 17 59 19 16 2 37 7 47 11 13 6 17 2 17 -15 0 -20 4 -22 32 -16 18
4 55 9 82 11 27 2 71 9 97 15 27 7 88 14 136 16 179 7 196 9 201 23 4 11 6 11
13 0 6 -11 31 -13 101 -11 51 2 97 7 101 11 4 5 42 6 83 3 52 -3 83 -1 100 9
21 11 27 11 34 -1 7 -12 18 -11 67 5 32 10 85 20 118 21 33 1 96 6 140 9 44 4
95 8 114 9 19 0 36 7 38 13 3 9 21 11 61 7 37 -4 87 0 139 10 46 10 87 15 93
11 5 -3 22 2 36 12 20 13 44 17 88 16 34 -1 84 2 113 8 35 7 58 7 71 0 10 -6
23 -6 28 -2 11 10 217 42 264 41 59 -1 164 12 177 22 9 7 23 6 44 -2 24 -10
37 -10 69 0 21 7 50 10 63 6 14 -3 56 1 94 10 37 8 81 14 96 11 18 -2 31 1 34
10 6 16 59 17 69 2 5 -8 41 -10 123 -5 155 9 162 9 183 -11 17 -16 19 -15 31
16 12 32 14 33 57 28 25 -3 66 -2 93 2 39 7 54 15 83 49 22 26 40 39 50 35 8
-3 13 -12 10 -19z m-3176 -155 c0 -6 -4 -7 -10 -4 -5 3 -10 11 -10 16 0 6 5 7
10 4 6 -3 10 -11 10 -16z m1010 -18 c0 -23 -16 -36 -25 -21 -9 14 1 40 15 40
5 0 10 -9 10 -19z m105 -1 c0 -8 -8 -16 -17 -18 -13 -2 -18 3 -18 18 0 15 5
20 18 18 9 -2 17 -10 17 -18z m-705 -47 c-1 -20 -18 -31 -57 -38 -50 -8 -58 6
-15 29 29 16 72 21 72 9z m-1173 -34 c-8 -13 -23 -19 -49 -19 -34 0 -57 14
-45 27 10 9 71 20 89 15 14 -3 15 -7 5 -23z m-1392 -109 c12 -19 -6 -72 -26
-77 -14 -4 -17 -11 -12 -34 3 -16 1 -29 -4 -29 -5 0 -15 -12 -22 -26 -6 -14
-17 -24 -23 -22 -17 6 -17 96 0 103 8 3 12 12 8 20 -3 8 -1 17 4 20 6 4 10 17
10 31 0 20 5 24 29 24 17 0 33 -5 36 -10z m25 -125 c0 -28 -12 -38 -34 -29
-20 8 -21 34 -1 34 8 0 15 7 15 16 0 8 5 12 10 9 6 -3 10 -17 10 -30z m-126
-171 c4 -11 -1 -18 -14 -21 -26 -7 -25 -19 3 -43 21 -18 24 -31 26 -103 2 -45
3 -93 4 -107 2 -47 -13 -131 -28 -160 -8 -16 -15 -37 -15 -47 0 -10 -7 -28
-15 -39 -11 -17 -12 -29 -4 -58 6 -20 7 -47 3 -59 -4 -12 -6 -41 -5 -65 2 -27
-4 -53 -14 -68 -10 -16 -19 -65 -26 -137 -5 -61 -14 -116 -19 -121 -6 -6 -10
-25 -10 -42 0 -18 -5 -36 -11 -40 -7 -4 -9 -25 -5 -58 11 -91 -14 -135 -59
-102 -19 14 -19 16 -2 48 15 28 16 39 6 67 -9 25 -9 42 1 74 7 23 14 62 15 87
1 25 4 52 7 60 3 8 13 37 21 65 15 48 15 51 -5 72 -12 13 -18 29 -14 38 3 9 6
57 7 106 0 49 5 92 11 95 6 4 7 28 3 61 -4 35 -3 59 5 67 6 8 12 44 14 81 3
50 10 75 27 98 21 29 22 34 11 98 -13 75 -9 94 20 110 10 6 23 21 28 35 11 28
25 31 34 8z m146 -558 c0 -7 -6 -21 -14 -32 -14 -17 -15 -16 -14 24 0 35 3 40
14 31 8 -6 14 -17 14 -23z m-288 -792 c-2 -10 -4 -29 -4 -41 0 -19 -3 -20 -19
-10 -22 13 -25 47 -7 65 17 17 34 9 30 -14z m6556 -1085 c-2 -6 -8 -10 -13
-10 -5 0 -11 4 -13 10 -2 6 4 11 13 11 9 0 15 -5 13 -11z"/>
<path d="M6250 3030 c-6 -10 -16 -17 -23 -14 -21 8 -89 -55 -82 -76 3 -10 -1
-43 -9 -72 -10 -35 -14 -86 -12 -151 1 -54 -1 -100 -5 -103 -5 -3 -8 -33 -8
-67 0 -67 -5 -113 -15 -138 -4 -8 -8 -35 -9 -60 -2 -28 -12 -59 -30 -86 -15
-24 -27 -51 -27 -62 0 -10 -7 -24 -15 -31 -8 -7 -15 -23 -15 -36 0 -12 -4 -25
-9 -28 -7 -5 -16 -42 -25 -111 -5 -39 -37 -29 -92 31 -55 60 -63 76 -49 108 6
13 3 23 -8 31 -8 6 -19 23 -22 38 -8 29 -20 35 -81 38 -31 2 -52 -4 -80 -22
-22 -14 -57 -32 -79 -40 -57 -19 -75 -37 -75 -75 0 -26 -8 -39 -40 -64 -22
-17 -40 -38 -40 -46 0 -8 -11 -19 -24 -24 -14 -5 -35 -23 -47 -39 -14 -19 -32
-31 -46 -31 -14 0 -23 -6 -23 -15 0 -24 -29 -29 -50 -10 -13 12 -20 31 -20 55
0 20 -5 41 -10 46 -6 6 -13 24 -16 40 -3 16 -12 48 -20 72 -7 23 -14 53 -14
65 0 12 -9 37 -20 55 -11 18 -20 46 -20 63 0 16 -11 52 -25 80 -22 43 -26 62
-24 134 2 91 -5 109 -61 150 -54 40 -86 49 -120 35 -16 -7 -30 -16 -30 -21 0
-4 -22 -38 -50 -74 -27 -36 -50 -72 -50 -80 0 -8 -4 -17 -10 -20 -21 -13 -11
-63 18 -83 26 -20 27 -23 29 -129 3 -165 9 -231 20 -245 6 -7 13 -51 17 -98 6
-107 16 -160 27 -160 5 0 9 -13 9 -29 0 -17 4 -32 9 -35 4 -3 12 -42 15 -86 4
-44 11 -82 15 -84 4 -3 16 -33 26 -68 10 -35 25 -72 32 -83 7 -11 13 -36 13
-57 0 -21 5 -38 10 -38 6 0 18 -13 28 -30 25 -40 86 -80 123 -80 19 0 38 9 53
25 13 14 31 25 40 25 9 0 16 7 16 16 0 9 9 27 20 41 13 17 20 41 20 68 0 29 6
47 20 60 11 10 20 22 20 27 0 6 9 22 20 36 12 15 39 51 61 80 22 28 46 52 54
52 8 0 20 10 26 22 6 12 20 31 30 42 11 11 19 25 19 30 1 15 30 47 66 72 l30
22 22 -57 c11 -31 24 -67 28 -81 3 -14 13 -32 21 -41 13 -16 35 -94 48 -170 3
-21 14 -48 25 -61 10 -14 27 -45 36 -69 23 -58 29 -66 64 -72 42 -9 106 30
193 117 60 61 76 83 91 132 10 32 23 65 29 72 6 7 12 49 15 93 3 50 9 79 16
79 14 0 46 36 39 44 -3 3 4 20 15 38 13 21 22 61 27 110 4 43 11 80 16 84 5 3
9 23 9 44 0 21 5 40 11 42 10 3 17 61 22 184 1 24 10 50 19 61 13 14 15 22 7
30 -8 8 -6 18 6 37 14 20 15 32 8 49 -7 15 -6 60 3 137 7 63 11 123 8 132 -4
12 3 21 18 29 22 10 24 15 22 92 0 45 2 94 6 108 9 31 -3 47 -56 77 -53 28
-109 29 -124 2z"/>
<path d="M4569 2686 c-2 -3 -33 -5 -69 -7 -36 -1 -87 -9 -115 -17 -27 -9 -81
-17 -120 -18 -151 -6 -353 -23 -408 -35 -47 -10 -63 -10 -78 0 -17 10 -26 8
-53 -9 -18 -11 -48 -20 -65 -20 -48 0 -81 -38 -81 -94 0 -25 5 -48 10 -51 15
-9 12 -106 -4 -134 -7 -13 -11 -32 -9 -43 3 -10 -2 -29 -10 -41 -28 -43 -42
-177 -29 -276 15 -108 15 -208 2 -216 -9 -6 -4 -48 9 -70 13 -23 14 -36 14
-140 -1 -33 0 -87 0 -120 0 -33 -3 -69 -7 -81 -7 -18 -2 -22 48 -33 39 -9 61
-9 75 -2 11 6 48 11 83 11 35 0 68 4 74 9 16 16 124 27 242 25 62 -1 115 3
118 8 7 11 93 2 141 -14 25 -9 36 -8 57 5 19 13 31 14 50 7 23 -8 31 -4 76 39
27 26 50 56 50 65 0 31 -107 123 -153 132 -12 2 -23 8 -25 14 -8 24 -60 10
-91 -26 l-31 -35 -93 2 c-50 1 -104 -2 -119 -6 -17 -4 -43 -1 -70 9 -25 10
-66 15 -98 14 -53 -3 -55 -2 -58 24 -2 19 3 30 17 38 17 9 21 20 21 65 0 30
-4 55 -10 55 -15 0 -12 36 5 50 8 6 19 9 25 5 5 -3 10 1 10 9 0 9 14 30 32 46
29 29 38 31 98 30 95 -1 199 9 221 21 11 5 24 7 30 3 10 -6 58 13 69 27 3 4
23 15 45 25 32 15 42 26 49 57 8 32 7 40 -15 63 -48 51 -86 67 -141 60 -41 -6
-52 -4 -63 10 -12 17 -15 16 -45 -9 -28 -24 -39 -27 -111 -27 -99 0 -119 9
-119 55 0 20 4 43 9 53 4 9 20 42 35 73 38 81 56 99 102 99 22 0 46 4 54 10 9
5 19 5 27 -2 16 -13 139 -4 159 13 7 6 23 9 36 8 48 -5 163 35 202 71 11 11
37 30 56 43 47 31 67 71 46 93 -9 8 -16 19 -16 23 0 4 -10 13 -22 19 -13 7
-32 19 -44 27 -11 8 -22 13 -25 11z"/>
<path d="M2501 2656 c-7 -8 -28 -22 -47 -31 -20 -9 -45 -32 -55 -50 -11 -18
-31 -40 -44 -49 -13 -8 -26 -29 -30 -46 -4 -16 -11 -32 -16 -35 -5 -4 -9 -14
-9 -24 0 -9 -9 -27 -20 -39 -12 -12 -18 -22 -15 -22 11 0 -26 -61 -41 -67 -7
-3 -14 -13 -14 -23 0 -10 -7 -23 -15 -30 -8 -7 -15 -20 -15 -30 0 -18 -67
-151 -129 -257 -19 -32 -36 -64 -37 -72 -3 -15 -39 -51 -52 -51 -17 0 -42 37
-42 63 0 14 -4 29 -10 32 -5 3 -10 21 -10 38 0 18 -9 50 -20 72 -11 22 -20 54
-20 72 0 18 -4 41 -10 51 -27 46 -60 176 -54 212 5 29 2 38 -10 43 -10 4 -16
18 -16 35 0 16 -7 35 -15 42 -8 7 -15 18 -15 26 0 7 -10 16 -22 19 -11 4 -32
19 -45 34 -18 19 -42 29 -86 37 -34 7 -65 10 -69 8 -3 -2 -1 -20 5 -39 8 -29
7 -38 -6 -53 -18 -20 -18 -96 -1 -186 5 -27 3 -40 -6 -46 -10 -6 -11 -12 -2
-22 13 -16 13 -16 13 -156 1 -63 -4 -108 -11 -117 -8 -10 -7 -16 5 -23 14 -7
18 -33 21 -157 2 -81 8 -154 13 -163 5 -9 5 -25 -1 -38 -8 -18 -7 -26 5 -39
18 -17 33 -96 23 -121 -4 -9 0 -27 8 -39 8 -12 19 -40 25 -62 13 -46 46 -93
66 -93 7 0 26 -15 41 -32 15 -18 31 -32 35 -31 5 2 26 -6 47 -17 31 -16 45
-18 66 -10 40 15 116 98 116 126 0 14 10 35 21 47 12 12 30 41 41 65 11 24 26
46 33 48 7 3 25 31 40 62 15 31 43 91 63 132 20 41 37 81 39 89 1 7 6 18 12
24 6 6 11 21 11 33 0 12 7 27 15 34 8 7 18 34 21 61 4 32 11 49 20 49 8 0 14
9 14 20 0 10 13 34 29 52 15 18 34 56 40 84 7 29 21 61 32 72 10 12 28 38 40
59 11 21 29 52 39 68 10 17 19 40 19 53 1 12 6 22 11 22 6 0 10 6 10 14 0 8
15 34 33 58 18 24 44 62 57 85 20 36 22 46 12 68 -6 14 -17 25 -23 25 -6 0
-24 11 -41 25 -34 28 -50 31 -67 11z"/>
<path d="M2990 2655 c-7 -8 -18 -15 -25 -15 -7 0 -15 -7 -19 -15 -3 -8 0 -15
7 -15 8 0 8 -3 -2 -9 -15 -10 -54 -196 -46 -222 3 -9 -1 -31 -9 -50 -8 -19
-12 -46 -9 -62 3 -16 0 -34 -8 -44 -10 -12 -15 -60 -17 -182 -5 -232 -9 -290
-22 -306 -14 -17 -3 -156 16 -202 7 -17 10 -41 7 -52 -9 -34 6 -71 40 -102 34
-32 64 -37 73 -14 4 8 12 15 19 15 7 0 41 23 74 51 l61 50 -17 26 c-16 24 -16
26 5 44 12 9 28 20 35 23 9 5 9 7 0 12 -7 3 -13 14 -13 25 0 10 -4 19 -9 19
-22 0 -34 63 -28 154 4 63 3 96 -5 104 -8 8 -9 22 -1 49 26 89 42 211 37 268
-4 33 -1 85 6 115 30 145 32 171 16 189 -9 10 -13 26 -9 40 4 17 -3 31 -28 57
-57 59 -105 78 -129 49z"/>
</g>
</svg>
